<?xml version="1.0" standalone="no"?>
<!DOCTYPE svg PUBLIC "-//W3C//DTD SVG 1.1//EN" "http://www.w3.org/Graphics/SVG/1.1/DTD/svg11.dtd">
<svg width="74mm" height="44mm" viewBox="-37 -22 74 44" xmlns="http://www.w3.org/2000/svg" version="1.1">
<title>OpenSCAD Model</title>
<path d="
M 32.9369,21.9114 L 33.5451,21.7553 L 34.1289,21.5241 L 34.6791,21.2216 L 35.1871,20.8526 L 35.6448,20.4227
 L 36.0451,19.9389 L 36.3815,19.4088 L 36.6489,18.8406 L 36.8429,18.2434 L 36.9606,17.6267 L 37,17
 L 37,-17 L 36.9606,-17.6267 L 36.8429,-18.2434 L 36.6489,-18.8406 L 36.3815,-19.4088 L 36.0451,-19.9389
 L 35.6448,-20.4227 L 35.1871,-20.8526 L 34.6791,-21.2216 L 34.1289,-21.5241 L 33.5451,-21.7553 L 32.9369,-21.9114
 L 32.3139,-21.9901 L -32.3139,-21.9901 L -32.9369,-21.9114 L -33.5451,-21.7553 L -34.1289,-21.5241 L -34.6791,-21.2216
 L -35.1871,-20.8526 L -35.6448,-20.4227 L -36.0451,-19.9389 L -36.3815,-19.4088 L -36.6489,-18.8406 L -36.8429,-18.2434
 L -36.9606,-17.6267 L -37,-17 L -37,17 L -36.9606,17.6267 L -36.8429,18.2434 L -36.6489,18.8406
 L -36.3815,19.4088 L -36.0451,19.9389 L -35.6448,20.4227 L -35.1871,20.8526 L -34.6791,21.2216 L -34.1289,21.5241
 L -33.5451,21.7553 L -32.9369,21.9114 L -32.3139,21.9901 L 32.3139,21.9901 z
M -30.1884,-12.0059 L -30.5621,-12.0531 L -30.927,-12.1468 L -31.2773,-12.2855 L -31.6075,-12.467 L -31.9123,-12.6884
 L -32.1869,-12.9464 L -32.427,-13.2366 L -32.6289,-13.5547 L -32.7893,-13.8956 L -32.9057,-14.2539 L -32.9763,-14.624
 L -33,-15 L -32.9763,-15.376 L -32.9057,-15.7461 L -32.7893,-16.1044 L -32.6289,-16.4453 L -32.427,-16.7634
 L -32.1869,-17.0536 L -31.9123,-17.3115 L -31.6075,-17.533 L -31.2773,-17.7145 L -30.927,-17.8532 L -30.5621,-17.9469
 L -30.1884,-17.9941 L -29.8116,-17.9941 L -29.4379,-17.9469 L -29.0729,-17.8532 L -28.7227,-17.7145 L -28.3925,-17.533
 L -28.0877,-17.3115 L -27.8131,-17.0536 L -27.5729,-16.7634 L -27.3711,-16.4453 L -27.2107,-16.1044 L -27.0942,-15.7461
 L -27.0237,-15.376 L -27,-15 L -27.0237,-14.624 L -27.0942,-14.2539 L -27.2107,-13.8956 L -27.3711,-13.5547
 L -27.5729,-13.2366 L -27.8131,-12.9464 L -28.0877,-12.6884 L -28.3925,-12.467 L -28.7227,-12.2855 L -29.0729,-12.1468
 L -29.4379,-12.0531 L -29.8116,-12.0059 z
M -0.18837,-12.0059 L -0.562134,-12.0531 L -0.927048,-12.1468 L -1.27733,-12.2855 L -1.60747,-12.467 L -1.91226,-12.6884
 L -2.1869,-12.9464 L -2.42705,-13.2366 L -2.62891,-13.5547 L -2.78932,-13.8956 L -2.90575,-14.2539 L -2.97633,-14.624
 L -3,-15 L -2.97633,-15.376 L -2.90575,-15.7461 L -2.78932,-16.1044 L -2.62891,-16.4453 L -2.42705,-16.7634
 L -2.1869,-17.0536 L -1.91226,-17.3115 L -1.60747,-17.533 L -1.27733,-17.7145 L -0.927048,-17.8532 L -0.562134,-17.9469
 L -0.18837,-17.9941 L 0.18837,-17.9941 L 0.562134,-17.9469 L 0.927048,-17.8532 L 1.27733,-17.7145 L 1.60747,-17.533
 L 1.91226,-17.3115 L 2.1869,-17.0536 L 2.42705,-16.7634 L 2.62891,-16.4453 L 2.78932,-16.1044 L 2.90575,-15.7461
 L 2.97633,-15.376 L 3,-15 L 2.97633,-14.624 L 2.90575,-14.2539 L 2.78932,-13.8956 L 2.62891,-13.5547
 L 2.42705,-13.2366 L 2.1869,-12.9464 L 1.91226,-12.6884 L 1.60747,-12.467 L 1.27733,-12.2855 L 0.927048,-12.1468
 L 0.562134,-12.0531 L 0.18837,-12.0059 z
M 29.8116,-12.0059 L 29.4379,-12.0531 L 29.0729,-12.1468 L 28.7227,-12.2855 L 28.3925,-12.467 L 28.0877,-12.6884
 L 27.8131,-12.9464 L 27.5729,-13.2366 L 27.3711,-13.5547 L 27.2107,-13.8956 L 27.0942,-14.2539 L 27.0237,-14.624
 L 27,-15 L 27.0237,-15.376 L 27.0942,-15.7461 L 27.2107,-16.1044 L 27.3711,-16.4453 L 27.5729,-16.7634
 L 27.8131,-17.0536 L 28.0877,-17.3115 L 28.3925,-17.533 L 28.7227,-17.7145 L 29.0729,-17.8532 L 29.4379,-17.9469
 L 29.8116,-17.9941 L 30.1884,-17.9941 L 30.5621,-17.9469 L 30.927,-17.8532 L 31.2773,-17.7145 L 31.6075,-17.533
 L 31.9123,-17.3115 L 32.1869,-17.0536 L 32.427,-16.7634 L 32.6289,-16.4453 L 32.7893,-16.1044 L 32.9057,-15.7461
 L 32.9763,-15.376 L 33,-15 L 32.9763,-14.624 L 32.9057,-14.2539 L 32.7893,-13.8956 L 32.6289,-13.5547
 L 32.427,-13.2366 L 32.1869,-12.9464 L 31.9123,-12.6884 L 31.6075,-12.467 L 31.2773,-12.2855 L 30.927,-12.1468
 L 30.5621,-12.0531 L 30.1884,-12.0059 z
M 14.8116,-12.0059 L 14.4379,-12.0531 L 14.0729,-12.1468 L 13.7227,-12.2855 L 13.3925,-12.467 L 13.0877,-12.6884
 L 12.8131,-12.9464 L 12.5729,-13.2366 L 12.3711,-13.5547 L 12.2107,-13.8956 L 12.0942,-14.2539 L 12.0237,-14.624
 L 12,-15 L 12.0237,-15.376 L 12.0942,-15.7461 L 12.2107,-16.1044 L 12.3711,-16.4453 L 12.5729,-16.7634
 L 12.8131,-17.0536 L 13.0877,-17.3115 L 13.3925,-17.533 L 13.7227,-17.7145 L 14.0729,-17.8532 L 14.4379,-17.9469
 L 14.8116,-17.9941 L 15.1884,-17.9941 L 15.5621,-17.9469 L 15.927,-17.8532 L 16.2773,-17.7145 L 16.6075,-17.533
 L 16.9123,-17.3115 L 17.1869,-17.0536 L 17.427,-16.7634 L 17.6289,-16.4453 L 17.7893,-16.1044 L 17.9057,-15.7461
 L 17.9763,-15.376 L 18,-15 L 17.9763,-14.624 L 17.9057,-14.2539 L 17.7893,-13.8956 L 17.6289,-13.5547
 L 17.427,-13.2366 L 17.1869,-12.9464 L 16.9123,-12.6884 L 16.6075,-12.467 L 16.2773,-12.2855 L 15.927,-12.1468
 L 15.5621,-12.0531 L 15.1884,-12.0059 z
M -15.1884,-12.0059 L -15.5621,-12.0531 L -15.927,-12.1468 L -16.2773,-12.2855 L -16.6075,-12.467 L -16.9123,-12.6884
 L -17.1869,-12.9464 L -17.427,-13.2366 L -17.6289,-13.5547 L -17.7893,-13.8956 L -17.9057,-14.2539 L -17.9763,-14.624
 L -18,-15 L -17.9763,-15.376 L -17.9057,-15.7461 L -17.7893,-16.1044 L -17.6289,-16.4453 L -17.427,-16.7634
 L -17.1869,-17.0536 L -16.9123,-17.3115 L -16.6075,-17.533 L -16.2773,-17.7145 L -15.927,-17.8532 L -15.5621,-17.9469
 L -15.1884,-17.9941 L -14.8116,-17.9941 L -14.4379,-17.9469 L -14.0729,-17.8532 L -13.7227,-17.7145 L -13.3925,-17.533
 L -13.0877,-17.3115 L -12.8131,-17.0536 L -12.5729,-16.7634 L -12.3711,-16.4453 L -12.2107,-16.1044 L -12.0942,-15.7461
 L -12.0237,-15.376 L -12,-15 L -12.0237,-14.624 L -12.0942,-14.2539 L -12.2107,-13.8956 L -12.3711,-13.5547
 L -12.5729,-13.2366 L -12.8131,-12.9464 L -13.0877,-12.6884 L -13.3925,-12.467 L -13.7227,-12.2855 L -14.0729,-12.1468
 L -14.4379,-12.0531 L -14.8116,-12.0059 z
M -9.08675,-12.2517 L -10.6735,-15 L -9.08675,-17.7483 L -5.91325,-17.7483 L -4.32651,-15 L -5.91325,-12.2517
 z
M 5.91325,-12.2517 L 4.32651,-15 L 5.91325,-17.7483 L 9.08675,-17.7483 L 10.6735,-15 L 9.08675,-12.2517
 z
M 22.4058,-13.5029 L 22.2189,-13.5266 L 22.0365,-13.5734 L 21.8613,-13.6427 L 21.6963,-13.7335 L 21.5439,-13.8442
 L 21.4065,-13.9732 L 21.2865,-14.1183 L 21.1855,-14.2774 L 21.1053,-14.4478 L 21.0471,-14.627 L 21.0118,-14.812
 L 21,-15 L 21.0118,-15.188 L 21.0471,-15.373 L 21.1053,-15.5522 L 21.1855,-15.7226 L 21.2865,-15.8817
 L 21.4065,-16.0268 L 21.5439,-16.1558 L 21.6963,-16.2665 L 21.8613,-16.3572 L 22.0365,-16.4266 L 22.2189,-16.4734
 L 22.4058,-16.497 L 22.5942,-16.497 L 22.7811,-16.4734 L 22.9635,-16.4266 L 23.1387,-16.3572 L 23.3037,-16.2665
 L 23.4561,-16.1558 L 23.5934,-16.0268 L 23.7135,-15.8817 L 23.8145,-15.7226 L 23.8947,-15.5522 L 23.9529,-15.373
 L 23.9882,-15.188 L 24,-15 L 23.9882,-14.812 L 23.9529,-14.627 L 23.8947,-14.4478 L 23.8145,-14.2774
 L 23.7135,-14.1183 L 23.5934,-13.9732 L 23.4561,-13.8442 L 23.3037,-13.7335 L 23.1387,-13.6427 L 22.9635,-13.5734
 L 22.7811,-13.5266 L 22.5942,-13.5029 z
M -22.5942,-13.5029 L -22.7811,-13.5266 L -22.9635,-13.5734 L -23.1387,-13.6427 L -23.3037,-13.7335 L -23.4561,-13.8442
 L -23.5934,-13.9732 L -23.7135,-14.1183 L -23.8145,-14.2774 L -23.8947,-14.4478 L -23.9529,-14.627 L -23.9882,-14.812
 L -24,-15 L -23.9882,-15.188 L -23.9529,-15.373 L -23.8947,-15.5522 L -23.8145,-15.7226 L -23.7135,-15.8817
 L -23.5934,-16.0268 L -23.4561,-16.1558 L -23.3037,-16.2665 L -23.1387,-16.3572 L -22.9635,-16.4266 L -22.7811,-16.4734
 L -22.5942,-16.497 L -22.4058,-16.497 L -22.2189,-16.4734 L -22.0365,-16.4266 L -21.8613,-16.3572 L -21.6963,-16.2665
 L -21.5439,-16.1558 L -21.4065,-16.0268 L -21.2865,-15.8817 L -21.1855,-15.7226 L -21.1053,-15.5522 L -21.0471,-15.373
 L -21.0118,-15.188 L -21,-15 L -21.0118,-14.812 L -21.0471,-14.627 L -21.1053,-14.4478 L -21.1855,-14.2774
 L -21.2865,-14.1183 L -21.4065,-13.9732 L -21.5439,-13.8442 L -21.6963,-13.7335 L -21.8613,-13.6427 L -22.0365,-13.5734
 L -22.2189,-13.5266 L -22.4058,-13.5029 z
M 29.9058,-6.00294 L 29.7189,-6.02657 L 29.5365,-6.07341 L 29.3613,-6.14275 L 29.1963,-6.23351 L 29.0439,-6.34422
 L 28.9065,-6.47318 L 28.7865,-6.61832 L 28.6855,-6.77736 L 28.6053,-6.9478 L 28.5471,-7.12695 L 28.5118,-7.312
 L 28.5,-7.5 L 28.5118,-7.68799 L 28.5471,-7.87303 L 28.6053,-8.05219 L 28.6855,-8.22263 L 28.7865,-8.38167
 L 28.9065,-8.52681 L 29.0439,-8.65576 L 29.1963,-8.76648 L 29.3613,-8.85724 L 29.5365,-8.92657 L 29.7189,-8.97342
 L 29.9058,-8.99704 L 30.0942,-8.99704 L 30.2811,-8.97342 L 30.4635,-8.92657 L 30.6387,-8.85724 L 30.8037,-8.76648
 L 30.9561,-8.65576 L 31.0934,-8.52681 L 31.2135,-8.38167 L 31.3145,-8.22263 L 31.3947,-8.05219 L 31.4529,-7.87303
 L 31.4882,-7.68799 L 31.5,-7.5 L 31.4882,-7.312 L 31.4529,-7.12695 L 31.3947,-6.9478 L 31.3145,-6.77736
 L 31.2135,-6.61832 L 31.0934,-6.47318 L 30.9561,-6.34422 L 30.8037,-6.23351 L 30.6387,-6.14275 L 30.4635,-6.07341
 L 30.2811,-6.02657 L 30.0942,-6.00294 z
M -30.0942,-6.00294 L -30.2811,-6.02657 L -30.4635,-6.07341 L -30.6387,-6.14275 L -30.8037,-6.23351 L -30.9561,-6.34422
 L -31.0934,-6.47318 L -31.2135,-6.61832 L -31.3145,-6.77736 L -31.3947,-6.9478 L -31.4529,-7.12695 L -31.4882,-7.312
 L -31.5,-7.5 L -31.4882,-7.68799 L -31.4529,-7.87303 L -31.3947,-8.05219 L -31.3145,-8.22263 L -31.2135,-8.38167
 L -31.0934,-8.52681 L -30.9561,-8.65576 L -30.8037,-8.76648 L -30.6387,-8.85724 L -30.4635,-8.92657 L -30.2811,-8.97342
 L -30.0942,-8.99704 L -29.9058,-8.99704 L -29.7189,-8.97342 L -29.5365,-8.92657 L -29.3613,-8.85724 L -29.1963,-8.76648
 L -29.0439,-8.65576 L -28.9065,-8.52681 L -28.7865,-8.38167 L -28.6855,-8.22263 L -28.6053,-8.05219 L -28.5471,-7.87303
 L -28.5118,-7.68799 L -28.5,-7.5 L -28.5118,-7.312 L -28.5471,-7.12695 L -28.6053,-6.9478 L -28.6855,-6.77736
 L -28.7865,-6.61832 L -28.9065,-6.47318 L -29.0439,-6.34422 L -29.1963,-6.23351 L -29.3613,-6.14275 L -29.5365,-6.07341
 L -29.7189,-6.02657 L -29.9058,-6.00294 z
M -15.0534,-4.65167 L -15.1593,-4.66505 L -15.2626,-4.69159 L -15.3619,-4.7309 L -15.4554,-4.78232 L -15.5418,-4.84506
 L -15.6196,-4.91812 L -15.6877,-5.00038 L -15.7449,-5.0905 L -15.7903,-5.18709 L -15.8233,-5.2886 L -15.8433,-5.39346
 L -15.85,-5.5 L -15.8433,-5.60652 L -15.8233,-5.71138 L -15.7903,-5.8129 L -15.7449,-5.90948 L -15.6877,-5.9996
 L -15.6196,-6.08186 L -15.5418,-6.15492 L -15.4554,-6.21767 L -15.3619,-6.26909 L -15.2626,-6.3084 L -15.1593,-6.33493
 L -15.0534,-6.34831 L -14.9466,-6.34831 L -14.8407,-6.33493 L -14.7373,-6.3084 L -14.6381,-6.26909 L -14.5445,-6.21767
 L -14.4582,-6.15492 L -14.3804,-6.08186 L -14.3123,-5.9996 L -14.2551,-5.90948 L -14.2097,-5.8129 L -14.1767,-5.71138
 L -14.1567,-5.60652 L -14.15,-5.5 L -14.1567,-5.39346 L -14.1767,-5.2886 L -14.2097,-5.18709 L -14.2551,-5.0905
 L -14.3123,-5.00038 L -14.3804,-4.91812 L -14.4582,-4.84506 L -14.5445,-4.78232 L -14.6381,-4.7309 L -14.7373,-4.69159
 L -14.8407,-4.66505 L -14.9466,-4.65167 z
M 14.9686,-5.00098 L 14.9063,-5.00885 L 14.8455,-5.02446 L 14.7871,-5.04758 L 14.7321,-5.07784 L 14.6813,-5.11473
 L 14.6355,-5.15771 L 14.5955,-5.2061 L 14.5618,-5.25911 L 14.5351,-5.31593 L 14.5157,-5.37564 L 14.5039,-5.43733
 L 14.5,-5.5 L 14.5039,-5.56265 L 14.5157,-5.62434 L 14.5351,-5.68405 L 14.5618,-5.74088 L 14.5955,-5.79388
 L 14.6355,-5.84227 L 14.6813,-5.88525 L 14.7321,-5.92215 L 14.7871,-5.95241 L 14.8455,-5.97552 L 14.9063,-5.99113
 L 14.9686,-5.99901 L 15.0314,-5.99901 L 15.0937,-5.99113 L 15.1545,-5.97552 L 15.2129,-5.95241 L 15.2679,-5.92215
 L 15.3187,-5.88525 L 15.3645,-5.84227 L 15.4045,-5.79388 L 15.4381,-5.74088 L 15.4649,-5.68405 L 15.4843,-5.62434
 L 15.496,-5.56265 L 15.5,-5.5 L 15.496,-5.43733 L 15.4843,-5.37564 L 15.4649,-5.31593 L 15.4381,-5.25911
 L 15.4045,-5.2061 L 15.3645,-5.15771 L 15.3187,-5.11473 L 15.2679,-5.07784 L 15.2129,-5.04758 L 15.1545,-5.02446
 L 15.0937,-5.00885 L 15.0314,-5.00098 z
M 22.4058,-1.50294 L 22.2189,-1.52657 L 22.0365,-1.57341 L 21.8613,-1.64275 L 21.6963,-1.73351 L 21.5439,-1.84422
 L 21.4065,-1.97318 L 21.2865,-2.11832 L 21.1855,-2.27736 L 21.1053,-2.4478 L 21.0471,-2.62695 L 21.0118,-2.812
 L 21,-3 L 21.0118,-3.18799 L 21.0471,-3.37303 L 21.1053,-3.55219 L 21.1855,-3.72263 L 21.2865,-3.88167
 L 21.4065,-4.02681 L 21.5439,-4.15576 L 21.6963,-4.26648 L 21.8613,-4.35724 L 22.0365,-4.42657 L 22.2189,-4.47342
 L 22.4058,-4.49704 L 22.5942,-4.49704 L 22.7811,-4.47342 L 22.9635,-4.42657 L 23.1387,-4.35724 L 23.3037,-4.26648
 L 23.4561,-4.15576 L 23.5934,-4.02681 L 23.7135,-3.88167 L 23.8145,-3.72263 L 23.8947,-3.55219 L 23.9529,-3.37303
 L 23.9882,-3.18799 L 24,-3 L 23.9882,-2.812 L 23.9529,-2.62695 L 23.8947,-2.4478 L 23.8145,-2.27736
 L 23.7135,-2.11832 L 23.5934,-1.97318 L 23.4561,-1.84422 L 23.3037,-1.73351 L 23.1387,-1.64275 L 22.9635,-1.57341
 L 22.7811,-1.52657 L 22.5942,-1.50294 z
M 29.8116,2.99408 L 29.4379,2.94685 L 29.0729,2.85316 L 28.7227,2.71448 L 28.3925,2.53297 L 28.0877,2.31154
 L 27.8131,2.05363 L 27.5729,1.76335 L 27.3711,1.44525 L 27.2107,1.10437 L 27.0942,0.746063 L 27.0237,0.375992
 L 27,-0 L 27.0237,-0.375992 L 27.0942,-0.746063 L 27.2107,-1.10437 L 27.3711,-1.44525 L 27.5729,-1.76335
 L 27.8131,-2.05363 L 28.0877,-2.31154 L 28.3925,-2.53297 L 28.7227,-2.71448 L 29.0729,-2.85316 L 29.4379,-2.94685
 L 29.8116,-2.99408 L 30.1884,-2.99408 L 30.5621,-2.94685 L 30.927,-2.85316 L 31.2773,-2.71448 L 31.6075,-2.53297
 L 31.9123,-2.31154 L 32.1869,-2.05363 L 32.427,-1.76335 L 32.6289,-1.44525 L 32.7893,-1.10437 L 32.9057,-0.746063
 L 32.9763,-0.375992 L 33,-0 L 32.9763,0.375992 L 32.9057,0.746063 L 32.7893,1.10437 L 32.6289,1.44525
 L 32.427,1.76335 L 32.1869,2.05363 L 31.9123,2.31154 L 31.6075,2.53297 L 31.2773,2.71448 L 30.927,2.85316
 L 30.5621,2.94685 L 30.1884,2.99408 z
M -30.1884,2.99408 L -30.5621,2.94685 L -30.927,2.85316 L -31.2773,2.71448 L -31.6075,2.53297 L -31.9123,2.31154
 L -32.1869,2.05363 L -32.427,1.76335 L -32.6289,1.44525 L -32.7893,1.10437 L -32.9057,0.746063 L -32.9763,0.375992
 L -33,-0 L -32.9763,-0.375992 L -32.9057,-0.746063 L -32.7893,-1.10437 L -32.6289,-1.44525 L -32.427,-1.76335
 L -32.1869,-2.05363 L -31.9123,-2.31154 L -31.6075,-2.53297 L -31.2773,-2.71448 L -30.927,-2.85316 L -30.5621,-2.94685
 L -30.1884,-2.99408 L -29.8116,-2.99408 L -29.4379,-2.94685 L -29.0729,-2.85316 L -28.7227,-2.71448 L -28.3925,-2.53297
 L -28.0877,-2.31154 L -27.8131,-2.05363 L -27.5729,-1.76335 L -27.3711,-1.44525 L -27.2107,-1.10437 L -27.0942,-0.746063
 L -27.0237,-0.375992 L -27,-0 L -27.0237,0.375992 L -27.0942,0.746063 L -27.2107,1.10437 L -27.3711,1.44525
 L -27.5729,1.76335 L -27.8131,2.05363 L -28.0877,2.31154 L -28.3925,2.53297 L -28.7227,2.71448 L -29.0729,2.85316
 L -29.4379,2.94685 L -29.8116,2.99408 z
M 22.4058,4.49704 L 22.2189,4.47342 L 22.0365,4.42657 L 21.8613,4.35724 L 21.6963,4.26648 L 21.5439,4.15576
 L 21.4065,4.02681 L 21.2865,3.88167 L 21.1855,3.72263 L 21.1053,3.55219 L 21.0471,3.37303 L 21.0118,3.18799
 L 21,3 L 21.0118,2.812 L 21.0471,2.62695 L 21.1053,2.4478 L 21.1855,2.27736 L 21.2865,2.11832
 L 21.4065,1.97318 L 21.5439,1.84422 L 21.6963,1.73351 L 21.8613,1.64275 L 22.0365,1.57341 L 22.2189,1.52657
 L 22.4058,1.50294 L 22.5942,1.50294 L 22.7811,1.52657 L 22.9635,1.57341 L 23.1387,1.64275 L 23.3037,1.73351
 L 23.4561,1.84422 L 23.5934,1.97318 L 23.7135,2.11832 L 23.8145,2.27736 L 23.8947,2.4478 L 23.9529,2.62695
 L 23.9882,2.812 L 24,3 L 23.9882,3.18799 L 23.9529,3.37303 L 23.8947,3.55219 L 23.8145,3.72263
 L 23.7135,3.88167 L 23.5934,4.02681 L 23.4561,4.15576 L 23.3037,4.26648 L 23.1387,4.35724 L 22.9635,4.42657
 L 22.7811,4.47342 L 22.5942,4.49704 z
M 29.9058,8.99704 L 29.7189,8.97342 L 29.5365,8.92657 L 29.3613,8.85724 L 29.1963,8.76648 L 29.0439,8.65576
 L 28.9065,8.52681 L 28.7865,8.38167 L 28.6855,8.22263 L 28.6053,8.05219 L 28.5471,7.87303 L 28.5118,7.68799
 L 28.5,7.5 L 28.5118,7.312 L 28.5471,7.12695 L 28.6053,6.9478 L 28.6855,6.77736 L 28.7865,6.61832
 L 28.9065,6.47318 L 29.0439,6.34422 L 29.1963,6.23351 L 29.3613,6.14275 L 29.5365,6.07341 L 29.7189,6.02657
 L 29.9058,6.00294 L 30.0942,6.00294 L 30.2811,6.02657 L 30.4635,6.07341 L 30.6387,6.14275 L 30.8037,6.23351
 L 30.9561,6.34422 L 31.0934,6.47318 L 31.2135,6.61832 L 31.3145,6.77736 L 31.3947,6.9478 L 31.4529,7.12695
 L 31.4882,7.312 L 31.5,7.5 L 31.4882,7.68799 L 31.4529,7.87303 L 31.3947,8.05219 L 31.3145,8.22263
 L 31.2135,8.38167 L 31.0934,8.52681 L 30.9561,8.65576 L 30.8037,8.76648 L 30.6387,8.85724 L 30.4635,8.92657
 L 30.2811,8.97342 L 30.0942,8.99704 z
M -30.0942,8.99704 L -30.2811,8.97342 L -30.4635,8.92657 L -30.6387,8.85724 L -30.8037,8.76648 L -30.9561,8.65576
 L -31.0934,8.52681 L -31.2135,8.38167 L -31.3145,8.22263 L -31.3947,8.05219 L -31.4529,7.87303 L -31.4882,7.68799
 L -31.5,7.5 L -31.4882,7.312 L -31.4529,7.12695 L -31.3947,6.9478 L -31.3145,6.77736 L -31.2135,6.61832
 L -31.0934,6.47318 L -30.9561,6.34422 L -30.8037,6.23351 L -30.6387,6.14275 L -30.4635,6.07341 L -30.2811,6.02657
 L -30.0942,6.00294 L -29.9058,6.00294 L -29.7189,6.02657 L -29.5365,6.07341 L -29.3613,6.14275 L -29.1963,6.23351
 L -29.0439,6.34422 L -28.9065,6.47318 L -28.7865,6.61832 L -28.6855,6.77736 L -28.6053,6.9478 L -28.5471,7.12695
 L -28.5118,7.312 L -28.5,7.5 L -28.5118,7.68799 L -28.5471,7.87303 L -28.6053,8.05219 L -28.6855,8.22263
 L -28.7865,8.38167 L -28.9065,8.52681 L -29.0439,8.65576 L -29.1963,8.76648 L -29.3613,8.85724 L -29.5365,8.92657
 L -29.7189,8.97342 L -29.9058,8.99704 z
M 14.9466,7.84831 L 14.8407,7.83493 L 14.7373,7.8084 L 14.6381,7.76909 L 14.5445,7.71767 L 14.4582,7.65492
 L 14.3804,7.58186 L 14.3123,7.4996 L 14.2551,7.40948 L 14.2097,7.3129 L 14.1767,7.21138 L 14.1567,7.10652
 L 14.15,7 L 14.1567,6.89346 L 14.1767,6.7886 L 14.2097,6.68709 L 14.2551,6.5905 L 14.3123,6.50038
 L 14.3804,6.41812 L 14.4582,6.34506 L 14.5445,6.28232 L 14.6381,6.2309 L 14.7373,6.19159 L 14.8407,6.16505
 L 14.9466,6.15167 L 15.0534,6.15167 L 15.1593,6.16505 L 15.2626,6.19159 L 15.3619,6.2309 L 15.4554,6.28232
 L 15.5418,6.34506 L 15.6196,6.41812 L 15.6877,6.50038 L 15.7449,6.5905 L 15.7903,6.68709 L 15.8233,6.7886
 L 15.8433,6.89346 L 15.85,7 L 15.8433,7.10652 L 15.8233,7.21138 L 15.7903,7.3129 L 15.7449,7.40948
 L 15.6877,7.4996 L 15.6196,7.58186 L 15.5418,7.65492 L 15.4554,7.71767 L 15.3619,7.76909 L 15.2626,7.8084
 L 15.1593,7.83493 L 15.0534,7.84831 z
M -15.0314,7.49901 L -15.0937,7.49113 L -15.1545,7.47552 L -15.2129,7.45241 L -15.2679,7.42215 L -15.3187,7.38525
 L -15.3645,7.34227 L -15.4045,7.29388 L -15.4381,7.24088 L -15.4649,7.18405 L -15.4843,7.12434 L -15.496,7.06265
 L -15.5,7 L -15.496,6.93733 L -15.4843,6.87564 L -15.4649,6.81593 L -15.4381,6.75911 L -15.4045,6.7061
 L -15.3645,6.65771 L -15.3187,6.61473 L -15.2679,6.57784 L -15.2129,6.54758 L -15.1545,6.52446 L -15.0937,6.50885
 L -15.0314,6.50098 L -14.9686,6.50098 L -14.9063,6.50885 L -14.8455,6.52446 L -14.7871,6.54758 L -14.7321,6.57784
 L -14.6813,6.61473 L -14.6355,6.65771 L -14.5955,6.7061 L -14.5618,6.75911 L -14.5351,6.81593 L -14.5157,6.87564
 L -14.5039,6.93733 L -14.5,7 L -14.5039,7.06265 L -14.5157,7.12434 L -14.5351,7.18405 L -14.5618,7.24088
 L -14.5955,7.29388 L -14.6355,7.34227 L -14.6813,7.38525 L -14.7321,7.42215 L -14.7871,7.45241 L -14.8455,7.47552
 L -14.9063,7.49113 L -14.9686,7.49901 z
M -30.1884,17.9941 L -30.5621,17.9469 L -30.927,17.8532 L -31.2773,17.7145 L -31.6075,17.533 L -31.9123,17.3115
 L -32.1869,17.0536 L -32.427,16.7634 L -32.6289,16.4453 L -32.7893,16.1044 L -32.9057,15.7461 L -32.9763,15.376
 L -33,15 L -32.9763,14.624 L -32.9057,14.2539 L -32.7893,13.8956 L -32.6289,13.5547 L -32.427,13.2366
 L -32.1869,12.9464 L -31.9123,12.6884 L -31.6075,12.467 L -31.2773,12.2855 L -30.927,12.1468 L -30.5621,12.0531
 L -30.1884,12.0059 L -29.8116,12.0059 L -29.4379,12.0531 L -29.0729,12.1468 L -28.7227,12.2855 L -28.3925,12.467
 L -28.0877,12.6884 L -27.8131,12.9464 L -27.5729,13.2366 L -27.3711,13.5547 L -27.2107,13.8956 L -27.0942,14.2539
 L -27.0237,14.624 L -27,15 L -27.0237,15.376 L -27.0942,15.7461 L -27.2107,16.1044 L -27.3711,16.4453
 L -27.5729,16.7634 L -27.8131,17.0536 L -28.0877,17.3115 L -28.3925,17.533 L -28.7227,17.7145 L -29.0729,17.8532
 L -29.4379,17.9469 L -29.8116,17.9941 z
M -0.18837,17.9941 L -0.562134,17.9469 L -0.927048,17.8532 L -1.27733,17.7145 L -1.60747,17.533 L -1.91226,17.3115
 L -2.1869,17.0536 L -2.42705,16.7634 L -2.62891,16.4453 L -2.78932,16.1044 L -2.90575,15.7461 L -2.97633,15.376
 L -3,15 L -2.97633,14.624 L -2.90575,14.2539 L -2.78932,13.8956 L -2.62891,13.5547 L -2.42705,13.2366
 L -2.1869,12.9464 L -1.91226,12.6884 L -1.60747,12.467 L -1.27733,12.2855 L -0.927048,12.1468 L -0.562134,12.0531
 L -0.18837,12.0059 L 0.18837,12.0059 L 0.562134,12.0531 L 0.927048,12.1468 L 1.27733,12.2855 L 1.60747,12.467
 L 1.91226,12.6884 L 2.1869,12.9464 L 2.42705,13.2366 L 2.62891,13.5547 L 2.78932,13.8956 L 2.90575,14.2539
 L 2.97633,14.624 L 3,15 L 2.97633,15.376 L 2.90575,15.7461 L 2.78932,16.1044 L 2.62891,16.4453
 L 2.42705,16.7634 L 2.1869,17.0536 L 1.91226,17.3115 L 1.60747,17.533 L 1.27733,17.7145 L 0.927048,17.8532
 L 0.562134,17.9469 L 0.18837,17.9941 z
M -15.1884,17.9941 L -15.5621,17.9469 L -15.927,17.8532 L -16.2773,17.7145 L -16.6075,17.533 L -16.9123,17.3115
 L -17.1869,17.0536 L -17.427,16.7634 L -17.6289,16.4453 L -17.7893,16.1044 L -17.9057,15.7461 L -17.9763,15.376
 L -18,15 L -17.9763,14.624 L -17.9057,14.2539 L -17.7893,13.8956 L -17.6289,13.5547 L -17.427,13.2366
 L -17.1869,12.9464 L -16.9123,12.6884 L -16.6075,12.467 L -16.2773,12.2855 L -15.927,12.1468 L -15.5621,12.0531
 L -15.1884,12.0059 L -14.8116,12.0059 L -14.4379,12.0531 L -14.0729,12.1468 L -13.7227,12.2855 L -13.3925,12.467
 L -13.0877,12.6884 L -12.8131,12.9464 L -12.5729,13.2366 L -12.3711,13.5547 L -12.2107,13.8956 L -12.0942,14.2539
 L -12.0237,14.624 L -12,15 L -12.0237,15.376 L -12.0942,15.7461 L -12.2107,16.1044 L -12.3711,16.4453
 L -12.5729,16.7634 L -12.8131,17.0536 L -13.0877,17.3115 L -13.3925,17.533 L -13.7227,17.7145 L -14.0729,17.8532
 L -14.4379,17.9469 L -14.8116,17.9941 z
M 14.8116,17.9941 L 14.4379,17.9469 L 14.0729,17.8532 L 13.7227,17.7145 L 13.3925,17.533 L 13.0877,17.3115
 L 12.8131,17.0536 L 12.5729,16.7634 L 12.3711,16.4453 L 12.2107,16.1044 L 12.0942,15.7461 L 12.0237,15.376
 L 12,15 L 12.0237,14.624 L 12.0942,14.2539 L 12.2107,13.8956 L 12.3711,13.5547 L 12.5729,13.2366
 L 12.8131,12.9464 L 13.0877,12.6884 L 13.3925,12.467 L 13.7227,12.2855 L 14.0729,12.1468 L 14.4379,12.0531
 L 14.8116,12.0059 L 15.1884,12.0059 L 15.5621,12.0531 L 15.927,12.1468 L 16.2773,12.2855 L 16.6075,12.467
 L 16.9123,12.6884 L 17.1869,12.9464 L 17.427,13.2366 L 17.6289,13.5547 L 17.7893,13.8956 L 17.9057,14.2539
 L 17.9763,14.624 L 18,15 L 17.9763,15.376 L 17.9057,15.7461 L 17.7893,16.1044 L 17.6289,16.4453
 L 17.427,16.7634 L 17.1869,17.0536 L 16.9123,17.3115 L 16.6075,17.533 L 16.2773,17.7145 L 15.927,17.8532
 L 15.5621,17.9469 L 15.1884,17.9941 z
M 29.8116,17.9941 L 29.4379,17.9469 L 29.0729,17.8532 L 28.7227,17.7145 L 28.3925,17.533 L 28.0877,17.3115
 L 27.8131,17.0536 L 27.5729,16.7634 L 27.3711,16.4453 L 27.2107,16.1044 L 27.0942,15.7461 L 27.0237,15.376
 L 27,15 L 27.0237,14.624 L 27.0942,14.2539 L 27.2107,13.8956 L 27.3711,13.5547 L 27.5729,13.2366
 L 27.8131,12.9464 L 28.0877,12.6884 L 28.3925,12.467 L 28.7227,12.2855 L 29.0729,12.1468 L 29.4379,12.0531
 L 29.8116,12.0059 L 30.1884,12.0059 L 30.5621,12.0531 L 30.927,12.1468 L 31.2773,12.2855 L 31.6075,12.467
 L 31.9123,12.6884 L 32.1869,12.9464 L 32.427,13.2366 L 32.6289,13.5547 L 32.7893,13.8956 L 32.9057,14.2539
 L 32.9763,14.624 L 33,15 L 32.9763,15.376 L 32.9057,15.7461 L 32.7893,16.1044 L 32.6289,16.4453
 L 32.427,16.7634 L 32.1869,17.0536 L 31.9123,17.3115 L 31.6075,17.533 L 31.2773,17.7145 L 30.927,17.8532
 L 30.5621,17.9469 L 30.1884,17.9941 z
M 5.91325,17.7483 L 4.32651,15 L 5.91325,12.2517 L 9.08675,12.2517 L 10.6735,15 L 9.08675,17.7483
 z
M -9.08675,17.7483 L -10.6735,15 L -9.08675,12.2517 L -5.91325,12.2517 L -4.32651,15 L -5.91325,17.7483
 z
M -22.5942,16.497 L -22.7811,16.4734 L -22.9635,16.4266 L -23.1387,16.3572 L -23.3037,16.2665 L -23.4561,16.1558
 L -23.5934,16.0268 L -23.7135,15.8817 L -23.8145,15.7226 L -23.8947,15.5522 L -23.9529,15.373 L -23.9882,15.188
 L -24,15 L -23.9882,14.812 L -23.9529,14.627 L -23.8947,14.4478 L -23.8145,14.2774 L -23.7135,14.1183
 L -23.5934,13.9732 L -23.4561,13.8442 L -23.3037,13.7335 L -23.1387,13.6427 L -22.9635,13.5734 L -22.7811,13.5266
 L -22.5942,13.5029 L -22.4058,13.5029 L -22.2189,13.5266 L -22.0365,13.5734 L -21.8613,13.6427 L -21.6963,13.7335
 L -21.5439,13.8442 L -21.4065,13.9732 L -21.2865,14.1183 L -21.1855,14.2774 L -21.1053,14.4478 L -21.0471,14.627
 L -21.0118,14.812 L -21,15 L -21.0118,15.188 L -21.0471,15.373 L -21.1053,15.5522 L -21.1855,15.7226
 L -21.2865,15.8817 L -21.4065,16.0268 L -21.5439,16.1558 L -21.6963,16.2665 L -21.8613,16.3572 L -22.0365,16.4266
 L -22.2189,16.4734 L -22.4058,16.497 z
M 22.4058,16.497 L 22.2189,16.4734 L 22.0365,16.4266 L 21.8613,16.3572 L 21.6963,16.2665 L 21.5439,16.1558
 L 21.4065,16.0268 L 21.2865,15.8817 L 21.1855,15.7226 L 21.1053,15.5522 L 21.0471,15.373 L 21.0118,15.188
 L 21,15 L 21.0118,14.812 L 21.0471,14.627 L 21.1053,14.4478 L 21.1855,14.2774 L 21.2865,14.1183
 L 21.4065,13.9732 L 21.5439,13.8442 L 21.6963,13.7335 L 21.8613,13.6427 L 22.0365,13.5734 L 22.2189,13.5266
 L 22.4058,13.5029 L 22.5942,13.5029 L 22.7811,13.5266 L 22.9635,13.5734 L 23.1387,13.6427 L 23.3037,13.7335
 L 23.4561,13.8442 L 23.5934,13.9732 L 23.7135,14.1183 L 23.8145,14.2774 L 23.8947,14.4478 L 23.9529,14.627
 L 23.9882,14.812 L 24,15 L 23.9882,15.188 L 23.9529,15.373 L 23.8947,15.5522 L 23.8145,15.7226
 L 23.7135,15.8817 L 23.5934,16.0268 L 23.4561,16.1558 L 23.3037,16.2665 L 23.1387,16.3572 L 22.9635,16.4266
 L 22.7811,16.4734 L 22.5942,16.497 z
" stroke="black" fill="lightgray" stroke-width="0.5"/>
</svg>
