  0
SECTION
  2
BLOCKS
  0
ENDSEC
  0
SECTION
  2
ENTITIES
  0
LINE
  8
0
 10
32.9369
 20
-21.9114
 11
33.5451
 21
-21.7553
  0
LINE
  8
0
 10
33.5451
 20
-21.7553
 11
34.1289
 21
-21.5241
  0
LINE
  8
0
 10
34.1289
 20
-21.5241
 11
34.6791
 21
-21.2216
  0
LINE
  8
0
 10
34.6791
 20
-21.2216
 11
35.1871
 21
-20.8526
  0
LINE
  8
0
 10
35.1871
 20
-20.8526
 11
35.6448
 21
-20.4227
  0
LINE
  8
0
 10
35.6448
 20
-20.4227
 11
36.0451
 21
-19.9389
  0
LINE
  8
0
 10
36.0451
 20
-19.9389
 11
36.3815
 21
-19.4088
  0
LINE
  8
0
 10
36.3815
 20
-19.4088
 11
36.6489
 21
-18.8406
  0
LINE
  8
0
 10
36.6489
 20
-18.8406
 11
36.8429
 21
-18.2434
  0
LINE
  8
0
 10
36.8429
 20
-18.2434
 11
36.9606
 21
-17.6267
  0
LINE
  8
0
 10
36.9606
 20
-17.6267
 11
37
 21
-17
  0
LINE
  8
0
 10
37
 20
-17
 11
37
 21
17
  0
LINE
  8
0
 10
37
 20
17
 11
36.9606
 21
17.6267
  0
LINE
  8
0
 10
36.9606
 20
17.6267
 11
36.8429
 21
18.2434
  0
LINE
  8
0
 10
36.8429
 20
18.2434
 11
36.6489
 21
18.8406
  0
LINE
  8
0
 10
36.6489
 20
18.8406
 11
36.3815
 21
19.4088
  0
LINE
  8
0
 10
36.3815
 20
19.4088
 11
36.0451
 21
19.9389
  0
LINE
  8
0
 10
36.0451
 20
19.9389
 11
35.6448
 21
20.4227
  0
LINE
  8
0
 10
35.6448
 20
20.4227
 11
35.1871
 21
20.8526
  0
LINE
  8
0
 10
35.1871
 20
20.8526
 11
34.6791
 21
21.2216
  0
LINE
  8
0
 10
34.6791
 20
21.2216
 11
34.1289
 21
21.5241
  0
LINE
  8
0
 10
34.1289
 20
21.5241
 11
33.5451
 21
21.7553
  0
LINE
  8
0
 10
33.5451
 20
21.7553
 11
32.9369
 21
21.9114
  0
LINE
  8
0
 10
32.9369
 20
21.9114
 11
32.3139
 21
21.9901
  0
LINE
  8
0
 10
32.3139
 20
21.9901
 11
-32.3139
 21
21.9901
  0
LINE
  8
0
 10
-32.3139
 20
21.9901
 11
-32.9369
 21
21.9114
  0
LINE
  8
0
 10
-32.9369
 20
21.9114
 11
-33.5451
 21
21.7553
  0
LINE
  8
0
 10
-33.5451
 20
21.7553
 11
-34.1289
 21
21.5241
  0
LINE
  8
0
 10
-34.1289
 20
21.5241
 11
-34.6791
 21
21.2216
  0
LINE
  8
0
 10
-34.6791
 20
21.2216
 11
-35.1871
 21
20.8526
  0
LINE
  8
0
 10
-35.1871
 20
20.8526
 11
-35.6448
 21
20.4227
  0
LINE
  8
0
 10
-35.6448
 20
20.4227
 11
-36.0451
 21
19.9389
  0
LINE
  8
0
 10
-36.0451
 20
19.9389
 11
-36.3815
 21
19.4088
  0
LINE
  8
0
 10
-36.3815
 20
19.4088
 11
-36.6489
 21
18.8406
  0
LINE
  8
0
 10
-36.6489
 20
18.8406
 11
-36.8429
 21
18.2434
  0
LINE
  8
0
 10
-36.8429
 20
18.2434
 11
-36.9606
 21
17.6267
  0
LINE
  8
0
 10
-36.9606
 20
17.6267
 11
-37
 21
17
  0
LINE
  8
0
 10
-37
 20
17
 11
-37
 21
-17
  0
LINE
  8
0
 10
-37
 20
-17
 11
-36.9606
 21
-17.6267
  0
LINE
  8
0
 10
-36.9606
 20
-17.6267
 11
-36.8429
 21
-18.2434
  0
LINE
  8
0
 10
-36.8429
 20
-18.2434
 11
-36.6489
 21
-18.8406
  0
LINE
  8
0
 10
-36.6489
 20
-18.8406
 11
-36.3815
 21
-19.4088
  0
LINE
  8
0
 10
-36.3815
 20
-19.4088
 11
-36.0451
 21
-19.9389
  0
LINE
  8
0
 10
-36.0451
 20
-19.9389
 11
-35.6448
 21
-20.4227
  0
LINE
  8
0
 10
-35.6448
 20
-20.4227
 11
-35.1871
 21
-20.8526
  0
LINE
  8
0
 10
-35.1871
 20
-20.8526
 11
-34.6791
 21
-21.2216
  0
LINE
  8
0
 10
-34.6791
 20
-21.2216
 11
-34.1289
 21
-21.5241
  0
LINE
  8
0
 10
-34.1289
 20
-21.5241
 11
-33.5451
 21
-21.7553
  0
LINE
  8
0
 10
-33.5451
 20
-21.7553
 11
-32.9369
 21
-21.9114
  0
LINE
  8
0
 10
-32.9369
 20
-21.9114
 11
-32.3139
 21
-21.9901
  0
LINE
  8
0
 10
-32.3139
 20
-21.9901
 11
32.3139
 21
-21.9901
  0
LINE
  8
0
 10
32.3139
 20
-21.9901
 11
32.9369
 21
-21.9114
  0
LINE
  8
0
 10
-30.1884
 20
12.0059
 11
-30.5621
 21
12.0531
  0
LINE
  8
0
 10
-30.5621
 20
12.0531
 11
-30.927
 21
12.1468
  0
LINE
  8
0
 10
-30.927
 20
12.1468
 11
-31.2773
 21
12.2855
  0
LINE
  8
0
 10
-31.2773
 20
12.2855
 11
-31.6075
 21
12.467
  0
LINE
  8
0
 10
-31.6075
 20
12.467
 11
-31.9123
 21
12.6884
  0
LINE
  8
0
 10
-31.9123
 20
12.6884
 11
-32.1869
 21
12.9464
  0
LINE
  8
0
 10
-32.1869
 20
12.9464
 11
-32.427
 21
13.2366
  0
LINE
  8
0
 10
-32.427
 20
13.2366
 11
-32.6289
 21
13.5547
  0
LINE
  8
0
 10
-32.6289
 20
13.5547
 11
-32.7893
 21
13.8956
  0
LINE
  8
0
 10
-32.7893
 20
13.8956
 11
-32.9057
 21
14.2539
  0
LINE
  8
0
 10
-32.9057
 20
14.2539
 11
-32.9763
 21
14.624
  0
LINE
  8
0
 10
-32.9763
 20
14.624
 11
-33
 21
15
  0
LINE
  8
0
 10
-33
 20
15
 11
-32.9763
 21
15.376
  0
LINE
  8
0
 10
-32.9763
 20
15.376
 11
-32.9057
 21
15.7461
  0
LINE
  8
0
 10
-32.9057
 20
15.7461
 11
-32.7893
 21
16.1044
  0
LINE
  8
0
 10
-32.7893
 20
16.1044
 11
-32.6289
 21
16.4453
  0
LINE
  8
0
 10
-32.6289
 20
16.4453
 11
-32.427
 21
16.7634
  0
LINE
  8
0
 10
-32.427
 20
16.7634
 11
-32.1869
 21
17.0536
  0
LINE
  8
0
 10
-32.1869
 20
17.0536
 11
-31.9123
 21
17.3115
  0
LINE
  8
0
 10
-31.9123
 20
17.3115
 11
-31.6075
 21
17.533
  0
LINE
  8
0
 10
-31.6075
 20
17.533
 11
-31.2773
 21
17.7145
  0
LINE
  8
0
 10
-31.2773
 20
17.7145
 11
-30.927
 21
17.8532
  0
LINE
  8
0
 10
-30.927
 20
17.8532
 11
-30.5621
 21
17.9469
  0
LINE
  8
0
 10
-30.5621
 20
17.9469
 11
-30.1884
 21
17.9941
  0
LINE
  8
0
 10
-30.1884
 20
17.9941
 11
-29.8116
 21
17.9941
  0
LINE
  8
0
 10
-29.8116
 20
17.9941
 11
-29.4379
 21
17.9469
  0
LINE
  8
0
 10
-29.4379
 20
17.9469
 11
-29.0729
 21
17.8532
  0
LINE
  8
0
 10
-29.0729
 20
17.8532
 11
-28.7227
 21
17.7145
  0
LINE
  8
0
 10
-28.7227
 20
17.7145
 11
-28.3925
 21
17.533
  0
LINE
  8
0
 10
-28.3925
 20
17.533
 11
-28.0877
 21
17.3115
  0
LINE
  8
0
 10
-28.0877
 20
17.3115
 11
-27.8131
 21
17.0536
  0
LINE
  8
0
 10
-27.8131
 20
17.0536
 11
-27.5729
 21
16.7634
  0
LINE
  8
0
 10
-27.5729
 20
16.7634
 11
-27.3711
 21
16.4453
  0
LINE
  8
0
 10
-27.3711
 20
16.4453
 11
-27.2107
 21
16.1044
  0
LINE
  8
0
 10
-27.2107
 20
16.1044
 11
-27.0942
 21
15.7461
  0
LINE
  8
0
 10
-27.0942
 20
15.7461
 11
-27.0237
 21
15.376
  0
LINE
  8
0
 10
-27.0237
 20
15.376
 11
-27
 21
15
  0
LINE
  8
0
 10
-27
 20
15
 11
-27.0237
 21
14.624
  0
LINE
  8
0
 10
-27.0237
 20
14.624
 11
-27.0942
 21
14.2539
  0
LINE
  8
0
 10
-27.0942
 20
14.2539
 11
-27.2107
 21
13.8956
  0
LINE
  8
0
 10
-27.2107
 20
13.8956
 11
-27.3711
 21
13.5547
  0
LINE
  8
0
 10
-27.3711
 20
13.5547
 11
-27.5729
 21
13.2366
  0
LINE
  8
0
 10
-27.5729
 20
13.2366
 11
-27.8131
 21
12.9464
  0
LINE
  8
0
 10
-27.8131
 20
12.9464
 11
-28.0877
 21
12.6884
  0
LINE
  8
0
 10
-28.0877
 20
12.6884
 11
-28.3925
 21
12.467
  0
LINE
  8
0
 10
-28.3925
 20
12.467
 11
-28.7227
 21
12.2855
  0
LINE
  8
0
 10
-28.7227
 20
12.2855
 11
-29.0729
 21
12.1468
  0
LINE
  8
0
 10
-29.0729
 20
12.1468
 11
-29.4379
 21
12.0531
  0
LINE
  8
0
 10
-29.4379
 20
12.0531
 11
-29.8116
 21
12.0059
  0
LINE
  8
0
 10
-29.8116
 20
12.0059
 11
-30.1884
 21
12.0059
  0
LINE
  8
0
 10
-0.18837
 20
12.0059
 11
-0.562134
 21
12.0531
  0
LINE
  8
0
 10
-0.562134
 20
12.0531
 11
-0.927048
 21
12.1468
  0
LINE
  8
0
 10
-0.927048
 20
12.1468
 11
-1.27733
 21
12.2855
  0
LINE
  8
0
 10
-1.27733
 20
12.2855
 11
-1.60747
 21
12.467
  0
LINE
  8
0
 10
-1.60747
 20
12.467
 11
-1.91226
 21
12.6884
  0
LINE
  8
0
 10
-1.91226
 20
12.6884
 11
-2.1869
 21
12.9464
  0
LINE
  8
0
 10
-2.1869
 20
12.9464
 11
-2.42705
 21
13.2366
  0
LINE
  8
0
 10
-2.42705
 20
13.2366
 11
-2.62891
 21
13.5547
  0
LINE
  8
0
 10
-2.62891
 20
13.5547
 11
-2.78932
 21
13.8956
  0
LINE
  8
0
 10
-2.78932
 20
13.8956
 11
-2.90575
 21
14.2539
  0
LINE
  8
0
 10
-2.90575
 20
14.2539
 11
-2.97633
 21
14.624
  0
LINE
  8
0
 10
-2.97633
 20
14.624
 11
-3
 21
15
  0
LINE
  8
0
 10
-3
 20
15
 11
-2.97633
 21
15.376
  0
LINE
  8
0
 10
-2.97633
 20
15.376
 11
-2.90575
 21
15.7461
  0
LINE
  8
0
 10
-2.90575
 20
15.7461
 11
-2.78932
 21
16.1044
  0
LINE
  8
0
 10
-2.78932
 20
16.1044
 11
-2.62891
 21
16.4453
  0
LINE
  8
0
 10
-2.62891
 20
16.4453
 11
-2.42705
 21
16.7634
  0
LINE
  8
0
 10
-2.42705
 20
16.7634
 11
-2.1869
 21
17.0536
  0
LINE
  8
0
 10
-2.1869
 20
17.0536
 11
-1.91226
 21
17.3115
  0
LINE
  8
0
 10
-1.91226
 20
17.3115
 11
-1.60747
 21
17.533
  0
LINE
  8
0
 10
-1.60747
 20
17.533
 11
-1.27733
 21
17.7145
  0
LINE
  8
0
 10
-1.27733
 20
17.7145
 11
-0.927048
 21
17.8532
  0
LINE
  8
0
 10
-0.927048
 20
17.8532
 11
-0.562134
 21
17.9469
  0
LINE
  8
0
 10
-0.562134
 20
17.9469
 11
-0.18837
 21
17.9941
  0
LINE
  8
0
 10
-0.18837
 20
17.9941
 11
0.18837
 21
17.9941
  0
LINE
  8
0
 10
0.18837
 20
17.9941
 11
0.562134
 21
17.9469
  0
LINE
  8
0
 10
0.562134
 20
17.9469
 11
0.927048
 21
17.8532
  0
LINE
  8
0
 10
0.927048
 20
17.8532
 11
1.27733
 21
17.7145
  0
LINE
  8
0
 10
1.27733
 20
17.7145
 11
1.60747
 21
17.533
  0
LINE
  8
0
 10
1.60747
 20
17.533
 11
1.91226
 21
17.3115
  0
LINE
  8
0
 10
1.91226
 20
17.3115
 11
2.1869
 21
17.0536
  0
LINE
  8
0
 10
2.1869
 20
17.0536
 11
2.42705
 21
16.7634
  0
LINE
  8
0
 10
2.42705
 20
16.7634
 11
2.62891
 21
16.4453
  0
LINE
  8
0
 10
2.62891
 20
16.4453
 11
2.78932
 21
16.1044
  0
LINE
  8
0
 10
2.78932
 20
16.1044
 11
2.90575
 21
15.7461
  0
LINE
  8
0
 10
2.90575
 20
15.7461
 11
2.97633
 21
15.376
  0
LINE
  8
0
 10
2.97633
 20
15.376
 11
3
 21
15
  0
LINE
  8
0
 10
3
 20
15
 11
2.97633
 21
14.624
  0
LINE
  8
0
 10
2.97633
 20
14.624
 11
2.90575
 21
14.2539
  0
LINE
  8
0
 10
2.90575
 20
14.2539
 11
2.78932
 21
13.8956
  0
LINE
  8
0
 10
2.78932
 20
13.8956
 11
2.62891
 21
13.5547
  0
LINE
  8
0
 10
2.62891
 20
13.5547
 11
2.42705
 21
13.2366
  0
LINE
  8
0
 10
2.42705
 20
13.2366
 11
2.1869
 21
12.9464
  0
LINE
  8
0
 10
2.1869
 20
12.9464
 11
1.91226
 21
12.6884
  0
LINE
  8
0
 10
1.91226
 20
12.6884
 11
1.60747
 21
12.467
  0
LINE
  8
0
 10
1.60747
 20
12.467
 11
1.27733
 21
12.2855
  0
LINE
  8
0
 10
1.27733
 20
12.2855
 11
0.927048
 21
12.1468
  0
LINE
  8
0
 10
0.927048
 20
12.1468
 11
0.562134
 21
12.0531
  0
LINE
  8
0
 10
0.562134
 20
12.0531
 11
0.18837
 21
12.0059
  0
LINE
  8
0
 10
0.18837
 20
12.0059
 11
-0.18837
 21
12.0059
  0
LINE
  8
0
 10
29.8116
 20
12.0059
 11
29.4379
 21
12.0531
  0
LINE
  8
0
 10
29.4379
 20
12.0531
 11
29.0729
 21
12.1468
  0
LINE
  8
0
 10
29.0729
 20
12.1468
 11
28.7227
 21
12.2855
  0
LINE
  8
0
 10
28.7227
 20
12.2855
 11
28.3925
 21
12.467
  0
LINE
  8
0
 10
28.3925
 20
12.467
 11
28.0877
 21
12.6884
  0
LINE
  8
0
 10
28.0877
 20
12.6884
 11
27.8131
 21
12.9464
  0
LINE
  8
0
 10
27.8131
 20
12.9464
 11
27.5729
 21
13.2366
  0
LINE
  8
0
 10
27.5729
 20
13.2366
 11
27.3711
 21
13.5547
  0
LINE
  8
0
 10
27.3711
 20
13.5547
 11
27.2107
 21
13.8956
  0
LINE
  8
0
 10
27.2107
 20
13.8956
 11
27.0942
 21
14.2539
  0
LINE
  8
0
 10
27.0942
 20
14.2539
 11
27.0237
 21
14.624
  0
LINE
  8
0
 10
27.0237
 20
14.624
 11
27
 21
15
  0
LINE
  8
0
 10
27
 20
15
 11
27.0237
 21
15.376
  0
LINE
  8
0
 10
27.0237
 20
15.376
 11
27.0942
 21
15.7461
  0
LINE
  8
0
 10
27.0942
 20
15.7461
 11
27.2107
 21
16.1044
  0
LINE
  8
0
 10
27.2107
 20
16.1044
 11
27.3711
 21
16.4453
  0
LINE
  8
0
 10
27.3711
 20
16.4453
 11
27.5729
 21
16.7634
  0
LINE
  8
0
 10
27.5729
 20
16.7634
 11
27.8131
 21
17.0536
  0
LINE
  8
0
 10
27.8131
 20
17.0536
 11
28.0877
 21
17.3115
  0
LINE
  8
0
 10
28.0877
 20
17.3115
 11
28.3925
 21
17.533
  0
LINE
  8
0
 10
28.3925
 20
17.533
 11
28.7227
 21
17.7145
  0
LINE
  8
0
 10
28.7227
 20
17.7145
 11
29.0729
 21
17.8532
  0
LINE
  8
0
 10
29.0729
 20
17.8532
 11
29.4379
 21
17.9469
  0
LINE
  8
0
 10
29.4379
 20
17.9469
 11
29.8116
 21
17.9941
  0
LINE
  8
0
 10
29.8116
 20
17.9941
 11
30.1884
 21
17.9941
  0
LINE
  8
0
 10
30.1884
 20
17.9941
 11
30.5621
 21
17.9469
  0
LINE
  8
0
 10
30.5621
 20
17.9469
 11
30.927
 21
17.8532
  0
LINE
  8
0
 10
30.927
 20
17.8532
 11
31.2773
 21
17.7145
  0
LINE
  8
0
 10
31.2773
 20
17.7145
 11
31.6075
 21
17.533
  0
LINE
  8
0
 10
31.6075
 20
17.533
 11
31.9123
 21
17.3115
  0
LINE
  8
0
 10
31.9123
 20
17.3115
 11
32.1869
 21
17.0536
  0
LINE
  8
0
 10
32.1869
 20
17.0536
 11
32.427
 21
16.7634
  0
LINE
  8
0
 10
32.427
 20
16.7634
 11
32.6289
 21
16.4453
  0
LINE
  8
0
 10
32.6289
 20
16.4453
 11
32.7893
 21
16.1044
  0
LINE
  8
0
 10
32.7893
 20
16.1044
 11
32.9057
 21
15.7461
  0
LINE
  8
0
 10
32.9057
 20
15.7461
 11
32.9763
 21
15.376
  0
LINE
  8
0
 10
32.9763
 20
15.376
 11
33
 21
15
  0
LINE
  8
0
 10
33
 20
15
 11
32.9763
 21
14.624
  0
LINE
  8
0
 10
32.9763
 20
14.624
 11
32.9057
 21
14.2539
  0
LINE
  8
0
 10
32.9057
 20
14.2539
 11
32.7893
 21
13.8956
  0
LINE
  8
0
 10
32.7893
 20
13.8956
 11
32.6289
 21
13.5547
  0
LINE
  8
0
 10
32.6289
 20
13.5547
 11
32.427
 21
13.2366
  0
LINE
  8
0
 10
32.427
 20
13.2366
 11
32.1869
 21
12.9464
  0
LINE
  8
0
 10
32.1869
 20
12.9464
 11
31.9123
 21
12.6884
  0
LINE
  8
0
 10
31.9123
 20
12.6884
 11
31.6075
 21
12.467
  0
LINE
  8
0
 10
31.6075
 20
12.467
 11
31.2773
 21
12.2855
  0
LINE
  8
0
 10
31.2773
 20
12.2855
 11
30.927
 21
12.1468
  0
LINE
  8
0
 10
30.927
 20
12.1468
 11
30.5621
 21
12.0531
  0
LINE
  8
0
 10
30.5621
 20
12.0531
 11
30.1884
 21
12.0059
  0
LINE
  8
0
 10
30.1884
 20
12.0059
 11
29.8116
 21
12.0059
  0
LINE
  8
0
 10
14.8116
 20
12.0059
 11
14.4379
 21
12.0531
  0
LINE
  8
0
 10
14.4379
 20
12.0531
 11
14.0729
 21
12.1468
  0
LINE
  8
0
 10
14.0729
 20
12.1468
 11
13.7227
 21
12.2855
  0
LINE
  8
0
 10
13.7227
 20
12.2855
 11
13.3925
 21
12.467
  0
LINE
  8
0
 10
13.3925
 20
12.467
 11
13.0877
 21
12.6884
  0
LINE
  8
0
 10
13.0877
 20
12.6884
 11
12.8131
 21
12.9464
  0
LINE
  8
0
 10
12.8131
 20
12.9464
 11
12.5729
 21
13.2366
  0
LINE
  8
0
 10
12.5729
 20
13.2366
 11
12.3711
 21
13.5547
  0
LINE
  8
0
 10
12.3711
 20
13.5547
 11
12.2107
 21
13.8956
  0
LINE
  8
0
 10
12.2107
 20
13.8956
 11
12.0942
 21
14.2539
  0
LINE
  8
0
 10
12.0942
 20
14.2539
 11
12.0237
 21
14.624
  0
LINE
  8
0
 10
12.0237
 20
14.624
 11
12
 21
15
  0
LINE
  8
0
 10
12
 20
15
 11
12.0237
 21
15.376
  0
LINE
  8
0
 10
12.0237
 20
15.376
 11
12.0942
 21
15.7461
  0
LINE
  8
0
 10
12.0942
 20
15.7461
 11
12.2107
 21
16.1044
  0
LINE
  8
0
 10
12.2107
 20
16.1044
 11
12.3711
 21
16.4453
  0
LINE
  8
0
 10
12.3711
 20
16.4453
 11
12.5729
 21
16.7634
  0
LINE
  8
0
 10
12.5729
 20
16.7634
 11
12.8131
 21
17.0536
  0
LINE
  8
0
 10
12.8131
 20
17.0536
 11
13.0877
 21
17.3115
  0
LINE
  8
0
 10
13.0877
 20
17.3115
 11
13.3925
 21
17.533
  0
LINE
  8
0
 10
13.3925
 20
17.533
 11
13.7227
 21
17.7145
  0
LINE
  8
0
 10
13.7227
 20
17.7145
 11
14.0729
 21
17.8532
  0
LINE
  8
0
 10
14.0729
 20
17.8532
 11
14.4379
 21
17.9469
  0
LINE
  8
0
 10
14.4379
 20
17.9469
 11
14.8116
 21
17.9941
  0
LINE
  8
0
 10
14.8116
 20
17.9941
 11
15.1884
 21
17.9941
  0
LINE
  8
0
 10
15.1884
 20
17.9941
 11
15.5621
 21
17.9469
  0
LINE
  8
0
 10
15.5621
 20
17.9469
 11
15.927
 21
17.8532
  0
LINE
  8
0
 10
15.927
 20
17.8532
 11
16.2773
 21
17.7145
  0
LINE
  8
0
 10
16.2773
 20
17.7145
 11
16.6075
 21
17.533
  0
LINE
  8
0
 10
16.6075
 20
17.533
 11
16.9123
 21
17.3115
  0
LINE
  8
0
 10
16.9123
 20
17.3115
 11
17.1869
 21
17.0536
  0
LINE
  8
0
 10
17.1869
 20
17.0536
 11
17.427
 21
16.7634
  0
LINE
  8
0
 10
17.427
 20
16.7634
 11
17.6289
 21
16.4453
  0
LINE
  8
0
 10
17.6289
 20
16.4453
 11
17.7893
 21
16.1044
  0
LINE
  8
0
 10
17.7893
 20
16.1044
 11
17.9057
 21
15.7461
  0
LINE
  8
0
 10
17.9057
 20
15.7461
 11
17.9763
 21
15.376
  0
LINE
  8
0
 10
17.9763
 20
15.376
 11
18
 21
15
  0
LINE
  8
0
 10
18
 20
15
 11
17.9763
 21
14.624
  0
LINE
  8
0
 10
17.9763
 20
14.624
 11
17.9057
 21
14.2539
  0
LINE
  8
0
 10
17.9057
 20
14.2539
 11
17.7893
 21
13.8956
  0
LINE
  8
0
 10
17.7893
 20
13.8956
 11
17.6289
 21
13.5547
  0
LINE
  8
0
 10
17.6289
 20
13.5547
 11
17.427
 21
13.2366
  0
LINE
  8
0
 10
17.427
 20
13.2366
 11
17.1869
 21
12.9464
  0
LINE
  8
0
 10
17.1869
 20
12.9464
 11
16.9123
 21
12.6884
  0
LINE
  8
0
 10
16.9123
 20
12.6884
 11
16.6075
 21
12.467
  0
LINE
  8
0
 10
16.6075
 20
12.467
 11
16.2773
 21
12.2855
  0
LINE
  8
0
 10
16.2773
 20
12.2855
 11
15.927
 21
12.1468
  0
LINE
  8
0
 10
15.927
 20
12.1468
 11
15.5621
 21
12.0531
  0
LINE
  8
0
 10
15.5621
 20
12.0531
 11
15.1884
 21
12.0059
  0
LINE
  8
0
 10
15.1884
 20
12.0059
 11
14.8116
 21
12.0059
  0
LINE
  8
0
 10
-15.1884
 20
12.0059
 11
-15.5621
 21
12.0531
  0
LINE
  8
0
 10
-15.5621
 20
12.0531
 11
-15.927
 21
12.1468
  0
LINE
  8
0
 10
-15.927
 20
12.1468
 11
-16.2773
 21
12.2855
  0
LINE
  8
0
 10
-16.2773
 20
12.2855
 11
-16.6075
 21
12.467
  0
LINE
  8
0
 10
-16.6075
 20
12.467
 11
-16.9123
 21
12.6884
  0
LINE
  8
0
 10
-16.9123
 20
12.6884
 11
-17.1869
 21
12.9464
  0
LINE
  8
0
 10
-17.1869
 20
12.9464
 11
-17.427
 21
13.2366
  0
LINE
  8
0
 10
-17.427
 20
13.2366
 11
-17.6289
 21
13.5547
  0
LINE
  8
0
 10
-17.6289
 20
13.5547
 11
-17.7893
 21
13.8956
  0
LINE
  8
0
 10
-17.7893
 20
13.8956
 11
-17.9057
 21
14.2539
  0
LINE
  8
0
 10
-17.9057
 20
14.2539
 11
-17.9763
 21
14.624
  0
LINE
  8
0
 10
-17.9763
 20
14.624
 11
-18
 21
15
  0
LINE
  8
0
 10
-18
 20
15
 11
-17.9763
 21
15.376
  0
LINE
  8
0
 10
-17.9763
 20
15.376
 11
-17.9057
 21
15.7461
  0
LINE
  8
0
 10
-17.9057
 20
15.7461
 11
-17.7893
 21
16.1044
  0
LINE
  8
0
 10
-17.7893
 20
16.1044
 11
-17.6289
 21
16.4453
  0
LINE
  8
0
 10
-17.6289
 20
16.4453
 11
-17.427
 21
16.7634
  0
LINE
  8
0
 10
-17.427
 20
16.7634
 11
-17.1869
 21
17.0536
  0
LINE
  8
0
 10
-17.1869
 20
17.0536
 11
-16.9123
 21
17.3115
  0
LINE
  8
0
 10
-16.9123
 20
17.3115
 11
-16.6075
 21
17.533
  0
LINE
  8
0
 10
-16.6075
 20
17.533
 11
-16.2773
 21
17.7145
  0
LINE
  8
0
 10
-16.2773
 20
17.7145
 11
-15.927
 21
17.8532
  0
LINE
  8
0
 10
-15.927
 20
17.8532
 11
-15.5621
 21
17.9469
  0
LINE
  8
0
 10
-15.5621
 20
17.9469
 11
-15.1884
 21
17.9941
  0
LINE
  8
0
 10
-15.1884
 20
17.9941
 11
-14.8116
 21
17.9941
  0
LINE
  8
0
 10
-14.8116
 20
17.9941
 11
-14.4379
 21
17.9469
  0
LINE
  8
0
 10
-14.4379
 20
17.9469
 11
-14.0729
 21
17.8532
  0
LINE
  8
0
 10
-14.0729
 20
17.8532
 11
-13.7227
 21
17.7145
  0
LINE
  8
0
 10
-13.7227
 20
17.7145
 11
-13.3925
 21
17.533
  0
LINE
  8
0
 10
-13.3925
 20
17.533
 11
-13.0877
 21
17.3115
  0
LINE
  8
0
 10
-13.0877
 20
17.3115
 11
-12.8131
 21
17.0536
  0
LINE
  8
0
 10
-12.8131
 20
17.0536
 11
-12.5729
 21
16.7634
  0
LINE
  8
0
 10
-12.5729
 20
16.7634
 11
-12.3711
 21
16.4453
  0
LINE
  8
0
 10
-12.3711
 20
16.4453
 11
-12.2107
 21
16.1044
  0
LINE
  8
0
 10
-12.2107
 20
16.1044
 11
-12.0942
 21
15.7461
  0
LINE
  8
0
 10
-12.0942
 20
15.7461
 11
-12.0237
 21
15.376
  0
LINE
  8
0
 10
-12.0237
 20
15.376
 11
-12
 21
15
  0
LINE
  8
0
 10
-12
 20
15
 11
-12.0237
 21
14.624
  0
LINE
  8
0
 10
-12.0237
 20
14.624
 11
-12.0942
 21
14.2539
  0
LINE
  8
0
 10
-12.0942
 20
14.2539
 11
-12.2107
 21
13.8956
  0
LINE
  8
0
 10
-12.2107
 20
13.8956
 11
-12.3711
 21
13.5547
  0
LINE
  8
0
 10
-12.3711
 20
13.5547
 11
-12.5729
 21
13.2366
  0
LINE
  8
0
 10
-12.5729
 20
13.2366
 11
-12.8131
 21
12.9464
  0
LINE
  8
0
 10
-12.8131
 20
12.9464
 11
-13.0877
 21
12.6884
  0
LINE
  8
0
 10
-13.0877
 20
12.6884
 11
-13.3925
 21
12.467
  0
LINE
  8
0
 10
-13.3925
 20
12.467
 11
-13.7227
 21
12.2855
  0
LINE
  8
0
 10
-13.7227
 20
12.2855
 11
-14.0729
 21
12.1468
  0
LINE
  8
0
 10
-14.0729
 20
12.1468
 11
-14.4379
 21
12.0531
  0
LINE
  8
0
 10
-14.4379
 20
12.0531
 11
-14.8116
 21
12.0059
  0
LINE
  8
0
 10
-14.8116
 20
12.0059
 11
-15.1884
 21
12.0059
  0
LINE
  8
0
 10
-9.08675
 20
12.2517
 11
-10.6735
 21
15
  0
LINE
  8
0
 10
-10.6735
 20
15
 11
-9.08675
 21
17.7483
  0
LINE
  8
0
 10
-9.08675
 20
17.7483
 11
-5.91325
 21
17.7483
  0
LINE
  8
0
 10
-5.91325
 20
17.7483
 11
-4.32651
 21
15
  0
LINE
  8
0
 10
-4.32651
 20
15
 11
-5.91325
 21
12.2517
  0
LINE
  8
0
 10
-5.91325
 20
12.2517
 11
-9.08675
 21
12.2517
  0
LINE
  8
0
 10
5.91325
 20
12.2517
 11
4.32651
 21
15
  0
LINE
  8
0
 10
4.32651
 20
15
 11
5.91325
 21
17.7483
  0
LINE
  8
0
 10
5.91325
 20
17.7483
 11
9.08675
 21
17.7483
  0
LINE
  8
0
 10
9.08675
 20
17.7483
 11
10.6735
 21
15
  0
LINE
  8
0
 10
10.6735
 20
15
 11
9.08675
 21
12.2517
  0
LINE
  8
0
 10
9.08675
 20
12.2517
 11
5.91325
 21
12.2517
  0
LINE
  8
0
 10
22.4058
 20
13.5029
 11
22.2189
 21
13.5266
  0
LINE
  8
0
 10
22.2189
 20
13.5266
 11
22.0365
 21
13.5734
  0
LINE
  8
0
 10
22.0365
 20
13.5734
 11
21.8613
 21
13.6427
  0
LINE
  8
0
 10
21.8613
 20
13.6427
 11
21.6963
 21
13.7335
  0
LINE
  8
0
 10
21.6963
 20
13.7335
 11
21.5439
 21
13.8442
  0
LINE
  8
0
 10
21.5439
 20
13.8442
 11
21.4065
 21
13.9732
  0
LINE
  8
0
 10
21.4065
 20
13.9732
 11
21.2865
 21
14.1183
  0
LINE
  8
0
 10
21.2865
 20
14.1183
 11
21.1855
 21
14.2774
  0
LINE
  8
0
 10
21.1855
 20
14.2774
 11
21.1053
 21
14.4478
  0
LINE
  8
0
 10
21.1053
 20
14.4478
 11
21.0471
 21
14.627
  0
LINE
  8
0
 10
21.0471
 20
14.627
 11
21.0118
 21
14.812
  0
LINE
  8
0
 10
21.0118
 20
14.812
 11
21
 21
15
  0
LINE
  8
0
 10
21
 20
15
 11
21.0118
 21
15.188
  0
LINE
  8
0
 10
21.0118
 20
15.188
 11
21.0471
 21
15.373
  0
LINE
  8
0
 10
21.0471
 20
15.373
 11
21.1053
 21
15.5522
  0
LINE
  8
0
 10
21.1053
 20
15.5522
 11
21.1855
 21
15.7226
  0
LINE
  8
0
 10
21.1855
 20
15.7226
 11
21.2865
 21
15.8817
  0
LINE
  8
0
 10
21.2865
 20
15.8817
 11
21.4065
 21
16.0268
  0
LINE
  8
0
 10
21.4065
 20
16.0268
 11
21.5439
 21
16.1558
  0
LINE
  8
0
 10
21.5439
 20
16.1558
 11
21.6963
 21
16.2665
  0
LINE
  8
0
 10
21.6963
 20
16.2665
 11
21.8613
 21
16.3572
  0
LINE
  8
0
 10
21.8613
 20
16.3572
 11
22.0365
 21
16.4266
  0
LINE
  8
0
 10
22.0365
 20
16.4266
 11
22.2189
 21
16.4734
  0
LINE
  8
0
 10
22.2189
 20
16.4734
 11
22.4058
 21
16.497
  0
LINE
  8
0
 10
22.4058
 20
16.497
 11
22.5942
 21
16.497
  0
LINE
  8
0
 10
22.5942
 20
16.497
 11
22.7811
 21
16.4734
  0
LINE
  8
0
 10
22.7811
 20
16.4734
 11
22.9635
 21
16.4266
  0
LINE
  8
0
 10
22.9635
 20
16.4266
 11
23.1387
 21
16.3572
  0
LINE
  8
0
 10
23.1387
 20
16.3572
 11
23.3037
 21
16.2665
  0
LINE
  8
0
 10
23.3037
 20
16.2665
 11
23.4561
 21
16.1558
  0
LINE
  8
0
 10
23.4561
 20
16.1558
 11
23.5934
 21
16.0268
  0
LINE
  8
0
 10
23.5934
 20
16.0268
 11
23.7135
 21
15.8817
  0
LINE
  8
0
 10
23.7135
 20
15.8817
 11
23.8145
 21
15.7226
  0
LINE
  8
0
 10
23.8145
 20
15.7226
 11
23.8947
 21
15.5522
  0
LINE
  8
0
 10
23.8947
 20
15.5522
 11
23.9529
 21
15.373
  0
LINE
  8
0
 10
23.9529
 20
15.373
 11
23.9882
 21
15.188
  0
LINE
  8
0
 10
23.9882
 20
15.188
 11
24
 21
15
  0
LINE
  8
0
 10
24
 20
15
 11
23.9882
 21
14.812
  0
LINE
  8
0
 10
23.9882
 20
14.812
 11
23.9529
 21
14.627
  0
LINE
  8
0
 10
23.9529
 20
14.627
 11
23.8947
 21
14.4478
  0
LINE
  8
0
 10
23.8947
 20
14.4478
 11
23.8145
 21
14.2774
  0
LINE
  8
0
 10
23.8145
 20
14.2774
 11
23.7135
 21
14.1183
  0
LINE
  8
0
 10
23.7135
 20
14.1183
 11
23.5934
 21
13.9732
  0
LINE
  8
0
 10
23.5934
 20
13.9732
 11
23.4561
 21
13.8442
  0
LINE
  8
0
 10
23.4561
 20
13.8442
 11
23.3037
 21
13.7335
  0
LINE
  8
0
 10
23.3037
 20
13.7335
 11
23.1387
 21
13.6427
  0
LINE
  8
0
 10
23.1387
 20
13.6427
 11
22.9635
 21
13.5734
  0
LINE
  8
0
 10
22.9635
 20
13.5734
 11
22.7811
 21
13.5266
  0
LINE
  8
0
 10
22.7811
 20
13.5266
 11
22.5942
 21
13.5029
  0
LINE
  8
0
 10
22.5942
 20
13.5029
 11
22.4058
 21
13.5029
  0
LINE
  8
0
 10
-22.5942
 20
13.5029
 11
-22.7811
 21
13.5266
  0
LINE
  8
0
 10
-22.7811
 20
13.5266
 11
-22.9635
 21
13.5734
  0
LINE
  8
0
 10
-22.9635
 20
13.5734
 11
-23.1387
 21
13.6427
  0
LINE
  8
0
 10
-23.1387
 20
13.6427
 11
-23.3037
 21
13.7335
  0
LINE
  8
0
 10
-23.3037
 20
13.7335
 11
-23.4561
 21
13.8442
  0
LINE
  8
0
 10
-23.4561
 20
13.8442
 11
-23.5934
 21
13.9732
  0
LINE
  8
0
 10
-23.5934
 20
13.9732
 11
-23.7135
 21
14.1183
  0
LINE
  8
0
 10
-23.7135
 20
14.1183
 11
-23.8145
 21
14.2774
  0
LINE
  8
0
 10
-23.8145
 20
14.2774
 11
-23.8947
 21
14.4478
  0
LINE
  8
0
 10
-23.8947
 20
14.4478
 11
-23.9529
 21
14.627
  0
LINE
  8
0
 10
-23.9529
 20
14.627
 11
-23.9882
 21
14.812
  0
LINE
  8
0
 10
-23.9882
 20
14.812
 11
-24
 21
15
  0
LINE
  8
0
 10
-24
 20
15
 11
-23.9882
 21
15.188
  0
LINE
  8
0
 10
-23.9882
 20
15.188
 11
-23.9529
 21
15.373
  0
LINE
  8
0
 10
-23.9529
 20
15.373
 11
-23.8947
 21
15.5522
  0
LINE
  8
0
 10
-23.8947
 20
15.5522
 11
-23.8145
 21
15.7226
  0
LINE
  8
0
 10
-23.8145
 20
15.7226
 11
-23.7135
 21
15.8817
  0
LINE
  8
0
 10
-23.7135
 20
15.8817
 11
-23.5934
 21
16.0268
  0
LINE
  8
0
 10
-23.5934
 20
16.0268
 11
-23.4561
 21
16.1558
  0
LINE
  8
0
 10
-23.4561
 20
16.1558
 11
-23.3037
 21
16.2665
  0
LINE
  8
0
 10
-23.3037
 20
16.2665
 11
-23.1387
 21
16.3572
  0
LINE
  8
0
 10
-23.1387
 20
16.3572
 11
-22.9635
 21
16.4266
  0
LINE
  8
0
 10
-22.9635
 20
16.4266
 11
-22.7811
 21
16.4734
  0
LINE
  8
0
 10
-22.7811
 20
16.4734
 11
-22.5942
 21
16.497
  0
LINE
  8
0
 10
-22.5942
 20
16.497
 11
-22.4058
 21
16.497
  0
LINE
  8
0
 10
-22.4058
 20
16.497
 11
-22.2189
 21
16.4734
  0
LINE
  8
0
 10
-22.2189
 20
16.4734
 11
-22.0365
 21
16.4266
  0
LINE
  8
0
 10
-22.0365
 20
16.4266
 11
-21.8613
 21
16.3572
  0
LINE
  8
0
 10
-21.8613
 20
16.3572
 11
-21.6963
 21
16.2665
  0
LINE
  8
0
 10
-21.6963
 20
16.2665
 11
-21.5439
 21
16.1558
  0
LINE
  8
0
 10
-21.5439
 20
16.1558
 11
-21.4065
 21
16.0268
  0
LINE
  8
0
 10
-21.4065
 20
16.0268
 11
-21.2865
 21
15.8817
  0
LINE
  8
0
 10
-21.2865
 20
15.8817
 11
-21.1855
 21
15.7226
  0
LINE
  8
0
 10
-21.1855
 20
15.7226
 11
-21.1053
 21
15.5522
  0
LINE
  8
0
 10
-21.1053
 20
15.5522
 11
-21.0471
 21
15.373
  0
LINE
  8
0
 10
-21.0471
 20
15.373
 11
-21.0118
 21
15.188
  0
LINE
  8
0
 10
-21.0118
 20
15.188
 11
-21
 21
15
  0
LINE
  8
0
 10
-21
 20
15
 11
-21.0118
 21
14.812
  0
LINE
  8
0
 10
-21.0118
 20
14.812
 11
-21.0471
 21
14.627
  0
LINE
  8
0
 10
-21.0471
 20
14.627
 11
-21.1053
 21
14.4478
  0
LINE
  8
0
 10
-21.1053
 20
14.4478
 11
-21.1855
 21
14.2774
  0
LINE
  8
0
 10
-21.1855
 20
14.2774
 11
-21.2865
 21
14.1183
  0
LINE
  8
0
 10
-21.2865
 20
14.1183
 11
-21.4065
 21
13.9732
  0
LINE
  8
0
 10
-21.4065
 20
13.9732
 11
-21.5439
 21
13.8442
  0
LINE
  8
0
 10
-21.5439
 20
13.8442
 11
-21.6963
 21
13.7335
  0
LINE
  8
0
 10
-21.6963
 20
13.7335
 11
-21.8613
 21
13.6427
  0
LINE
  8
0
 10
-21.8613
 20
13.6427
 11
-22.0365
 21
13.5734
  0
LINE
  8
0
 10
-22.0365
 20
13.5734
 11
-22.2189
 21
13.5266
  0
LINE
  8
0
 10
-22.2189
 20
13.5266
 11
-22.4058
 21
13.5029
  0
LINE
  8
0
 10
-22.4058
 20
13.5029
 11
-22.5942
 21
13.5029
  0
LINE
  8
0
 10
29.9058
 20
6.00294
 11
29.7189
 21
6.02657
  0
LINE
  8
0
 10
29.7189
 20
6.02657
 11
29.5365
 21
6.07341
  0
LINE
  8
0
 10
29.5365
 20
6.07341
 11
29.3613
 21
6.14275
  0
LINE
  8
0
 10
29.3613
 20
6.14275
 11
29.1963
 21
6.23351
  0
LINE
  8
0
 10
29.1963
 20
6.23351
 11
29.0439
 21
6.34422
  0
LINE
  8
0
 10
29.0439
 20
6.34422
 11
28.9065
 21
6.47318
  0
LINE
  8
0
 10
28.9065
 20
6.47318
 11
28.7865
 21
6.61832
  0
LINE
  8
0
 10
28.7865
 20
6.61832
 11
28.6855
 21
6.77736
  0
LINE
  8
0
 10
28.6855
 20
6.77736
 11
28.6053
 21
6.9478
  0
LINE
  8
0
 10
28.6053
 20
6.9478
 11
28.5471
 21
7.12695
  0
LINE
  8
0
 10
28.5471
 20
7.12695
 11
28.5118
 21
7.312
  0
LINE
  8
0
 10
28.5118
 20
7.312
 11
28.5
 21
7.5
  0
LINE
  8
0
 10
28.5
 20
7.5
 11
28.5118
 21
7.68799
  0
LINE
  8
0
 10
28.5118
 20
7.68799
 11
28.5471
 21
7.87303
  0
LINE
  8
0
 10
28.5471
 20
7.87303
 11
28.6053
 21
8.05219
  0
LINE
  8
0
 10
28.6053
 20
8.05219
 11
28.6855
 21
8.22263
  0
LINE
  8
0
 10
28.6855
 20
8.22263
 11
28.7865
 21
8.38167
  0
LINE
  8
0
 10
28.7865
 20
8.38167
 11
28.9065
 21
8.52681
  0
LINE
  8
0
 10
28.9065
 20
8.52681
 11
29.0439
 21
8.65576
  0
LINE
  8
0
 10
29.0439
 20
8.65576
 11
29.1963
 21
8.76648
  0
LINE
  8
0
 10
29.1963
 20
8.76648
 11
29.3613
 21
8.85724
  0
LINE
  8
0
 10
29.3613
 20
8.85724
 11
29.5365
 21
8.92657
  0
LINE
  8
0
 10
29.5365
 20
8.92657
 11
29.7189
 21
8.97342
  0
LINE
  8
0
 10
29.7189
 20
8.97342
 11
29.9058
 21
8.99704
  0
LINE
  8
0
 10
29.9058
 20
8.99704
 11
30.0942
 21
8.99704
  0
LINE
  8
0
 10
30.0942
 20
8.99704
 11
30.2811
 21
8.97342
  0
LINE
  8
0
 10
30.2811
 20
8.97342
 11
30.4635
 21
8.92657
  0
LINE
  8
0
 10
30.4635
 20
8.92657
 11
30.6387
 21
8.85724
  0
LINE
  8
0
 10
30.6387
 20
8.85724
 11
30.8037
 21
8.76648
  0
LINE
  8
0
 10
30.8037
 20
8.76648
 11
30.9561
 21
8.65576
  0
LINE
  8
0
 10
30.9561
 20
8.65576
 11
31.0934
 21
8.52681
  0
LINE
  8
0
 10
31.0934
 20
8.52681
 11
31.2135
 21
8.38167
  0
LINE
  8
0
 10
31.2135
 20
8.38167
 11
31.3145
 21
8.22263
  0
LINE
  8
0
 10
31.3145
 20
8.22263
 11
31.3947
 21
8.05219
  0
LINE
  8
0
 10
31.3947
 20
8.05219
 11
31.4529
 21
7.87303
  0
LINE
  8
0
 10
31.4529
 20
7.87303
 11
31.4882
 21
7.68799
  0
LINE
  8
0
 10
31.4882
 20
7.68799
 11
31.5
 21
7.5
  0
LINE
  8
0
 10
31.5
 20
7.5
 11
31.4882
 21
7.312
  0
LINE
  8
0
 10
31.4882
 20
7.312
 11
31.4529
 21
7.12695
  0
LINE
  8
0
 10
31.4529
 20
7.12695
 11
31.3947
 21
6.9478
  0
LINE
  8
0
 10
31.3947
 20
6.9478
 11
31.3145
 21
6.77736
  0
LINE
  8
0
 10
31.3145
 20
6.77736
 11
31.2135
 21
6.61832
  0
LINE
  8
0
 10
31.2135
 20
6.61832
 11
31.0934
 21
6.47318
  0
LINE
  8
0
 10
31.0934
 20
6.47318
 11
30.9561
 21
6.34422
  0
LINE
  8
0
 10
30.9561
 20
6.34422
 11
30.8037
 21
6.23351
  0
LINE
  8
0
 10
30.8037
 20
6.23351
 11
30.6387
 21
6.14275
  0
LINE
  8
0
 10
30.6387
 20
6.14275
 11
30.4635
 21
6.07341
  0
LINE
  8
0
 10
30.4635
 20
6.07341
 11
30.2811
 21
6.02657
  0
LINE
  8
0
 10
30.2811
 20
6.02657
 11
30.0942
 21
6.00294
  0
LINE
  8
0
 10
30.0942
 20
6.00294
 11
29.9058
 21
6.00294
  0
LINE
  8
0
 10
-30.0942
 20
6.00294
 11
-30.2811
 21
6.02657
  0
LINE
  8
0
 10
-30.2811
 20
6.02657
 11
-30.4635
 21
6.07341
  0
LINE
  8
0
 10
-30.4635
 20
6.07341
 11
-30.6387
 21
6.14275
  0
LINE
  8
0
 10
-30.6387
 20
6.14275
 11
-30.8037
 21
6.23351
  0
LINE
  8
0
 10
-30.8037
 20
6.23351
 11
-30.9561
 21
6.34422
  0
LINE
  8
0
 10
-30.9561
 20
6.34422
 11
-31.0934
 21
6.47318
  0
LINE
  8
0
 10
-31.0934
 20
6.47318
 11
-31.2135
 21
6.61832
  0
LINE
  8
0
 10
-31.2135
 20
6.61832
 11
-31.3145
 21
6.77736
  0
LINE
  8
0
 10
-31.3145
 20
6.77736
 11
-31.3947
 21
6.9478
  0
LINE
  8
0
 10
-31.3947
 20
6.9478
 11
-31.4529
 21
7.12695
  0
LINE
  8
0
 10
-31.4529
 20
7.12695
 11
-31.4882
 21
7.312
  0
LINE
  8
0
 10
-31.4882
 20
7.312
 11
-31.5
 21
7.5
  0
LINE
  8
0
 10
-31.5
 20
7.5
 11
-31.4882
 21
7.68799
  0
LINE
  8
0
 10
-31.4882
 20
7.68799
 11
-31.4529
 21
7.87303
  0
LINE
  8
0
 10
-31.4529
 20
7.87303
 11
-31.3947
 21
8.05219
  0
LINE
  8
0
 10
-31.3947
 20
8.05219
 11
-31.3145
 21
8.22263
  0
LINE
  8
0
 10
-31.3145
 20
8.22263
 11
-31.2135
 21
8.38167
  0
LINE
  8
0
 10
-31.2135
 20
8.38167
 11
-31.0934
 21
8.52681
  0
LINE
  8
0
 10
-31.0934
 20
8.52681
 11
-30.9561
 21
8.65576
  0
LINE
  8
0
 10
-30.9561
 20
8.65576
 11
-30.8037
 21
8.76648
  0
LINE
  8
0
 10
-30.8037
 20
8.76648
 11
-30.6387
 21
8.85724
  0
LINE
  8
0
 10
-30.6387
 20
8.85724
 11
-30.4635
 21
8.92657
  0
LINE
  8
0
 10
-30.4635
 20
8.92657
 11
-30.2811
 21
8.97342
  0
LINE
  8
0
 10
-30.2811
 20
8.97342
 11
-30.0942
 21
8.99704
  0
LINE
  8
0
 10
-30.0942
 20
8.99704
 11
-29.9058
 21
8.99704
  0
LINE
  8
0
 10
-29.9058
 20
8.99704
 11
-29.7189
 21
8.97342
  0
LINE
  8
0
 10
-29.7189
 20
8.97342
 11
-29.5365
 21
8.92657
  0
LINE
  8
0
 10
-29.5365
 20
8.92657
 11
-29.3613
 21
8.85724
  0
LINE
  8
0
 10
-29.3613
 20
8.85724
 11
-29.1963
 21
8.76648
  0
LINE
  8
0
 10
-29.1963
 20
8.76648
 11
-29.0439
 21
8.65576
  0
LINE
  8
0
 10
-29.0439
 20
8.65576
 11
-28.9065
 21
8.52681
  0
LINE
  8
0
 10
-28.9065
 20
8.52681
 11
-28.7865
 21
8.38167
  0
LINE
  8
0
 10
-28.7865
 20
8.38167
 11
-28.6855
 21
8.22263
  0
LINE
  8
0
 10
-28.6855
 20
8.22263
 11
-28.6053
 21
8.05219
  0
LINE
  8
0
 10
-28.6053
 20
8.05219
 11
-28.5471
 21
7.87303
  0
LINE
  8
0
 10
-28.5471
 20
7.87303
 11
-28.5118
 21
7.68799
  0
LINE
  8
0
 10
-28.5118
 20
7.68799
 11
-28.5
 21
7.5
  0
LINE
  8
0
 10
-28.5
 20
7.5
 11
-28.5118
 21
7.312
  0
LINE
  8
0
 10
-28.5118
 20
7.312
 11
-28.5471
 21
7.12695
  0
LINE
  8
0
 10
-28.5471
 20
7.12695
 11
-28.6053
 21
6.9478
  0
LINE
  8
0
 10
-28.6053
 20
6.9478
 11
-28.6855
 21
6.77736
  0
LINE
  8
0
 10
-28.6855
 20
6.77736
 11
-28.7865
 21
6.61832
  0
LINE
  8
0
 10
-28.7865
 20
6.61832
 11
-28.9065
 21
6.47318
  0
LINE
  8
0
 10
-28.9065
 20
6.47318
 11
-29.0439
 21
6.34422
  0
LINE
  8
0
 10
-29.0439
 20
6.34422
 11
-29.1963
 21
6.23351
  0
LINE
  8
0
 10
-29.1963
 20
6.23351
 11
-29.3613
 21
6.14275
  0
LINE
  8
0
 10
-29.3613
 20
6.14275
 11
-29.5365
 21
6.07341
  0
LINE
  8
0
 10
-29.5365
 20
6.07341
 11
-29.7189
 21
6.02657
  0
LINE
  8
0
 10
-29.7189
 20
6.02657
 11
-29.9058
 21
6.00294
  0
LINE
  8
0
 10
-29.9058
 20
6.00294
 11
-30.0942
 21
6.00294
  0
LINE
  8
0
 10
-15.0534
 20
4.65167
 11
-15.1593
 21
4.66505
  0
LINE
  8
0
 10
-15.1593
 20
4.66505
 11
-15.2626
 21
4.69159
  0
LINE
  8
0
 10
-15.2626
 20
4.69159
 11
-15.3619
 21
4.7309
  0
LINE
  8
0
 10
-15.3619
 20
4.7309
 11
-15.4554
 21
4.78232
  0
LINE
  8
0
 10
-15.4554
 20
4.78232
 11
-15.5418
 21
4.84506
  0
LINE
  8
0
 10
-15.5418
 20
4.84506
 11
-15.6196
 21
4.91812
  0
LINE
  8
0
 10
-15.6196
 20
4.91812
 11
-15.6877
 21
5.00038
  0
LINE
  8
0
 10
-15.6877
 20
5.00038
 11
-15.7449
 21
5.0905
  0
LINE
  8
0
 10
-15.7449
 20
5.0905
 11
-15.7903
 21
5.18709
  0
LINE
  8
0
 10
-15.7903
 20
5.18709
 11
-15.8233
 21
5.2886
  0
LINE
  8
0
 10
-15.8233
 20
5.2886
 11
-15.8433
 21
5.39346
  0
LINE
  8
0
 10
-15.8433
 20
5.39346
 11
-15.85
 21
5.5
  0
LINE
  8
0
 10
-15.85
 20
5.5
 11
-15.8433
 21
5.60652
  0
LINE
  8
0
 10
-15.8433
 20
5.60652
 11
-15.8233
 21
5.71138
  0
LINE
  8
0
 10
-15.8233
 20
5.71138
 11
-15.7903
 21
5.8129
  0
LINE
  8
0
 10
-15.7903
 20
5.8129
 11
-15.7449
 21
5.90948
  0
LINE
  8
0
 10
-15.7449
 20
5.90948
 11
-15.6877
 21
5.9996
  0
LINE
  8
0
 10
-15.6877
 20
5.9996
 11
-15.6196
 21
6.08186
  0
LINE
  8
0
 10
-15.6196
 20
6.08186
 11
-15.5418
 21
6.15492
  0
LINE
  8
0
 10
-15.5418
 20
6.15492
 11
-15.4554
 21
6.21767
  0
LINE
  8
0
 10
-15.4554
 20
6.21767
 11
-15.3619
 21
6.26909
  0
LINE
  8
0
 10
-15.3619
 20
6.26909
 11
-15.2626
 21
6.3084
  0
LINE
  8
0
 10
-15.2626
 20
6.3084
 11
-15.1593
 21
6.33493
  0
LINE
  8
0
 10
-15.1593
 20
6.33493
 11
-15.0534
 21
6.34831
  0
LINE
  8
0
 10
-15.0534
 20
6.34831
 11
-14.9466
 21
6.34831
  0
LINE
  8
0
 10
-14.9466
 20
6.34831
 11
-14.8407
 21
6.33493
  0
LINE
  8
0
 10
-14.8407
 20
6.33493
 11
-14.7373
 21
6.3084
  0
LINE
  8
0
 10
-14.7373
 20
6.3084
 11
-14.6381
 21
6.26909
  0
LINE
  8
0
 10
-14.6381
 20
6.26909
 11
-14.5445
 21
6.21767
  0
LINE
  8
0
 10
-14.5445
 20
6.21767
 11
-14.4582
 21
6.15492
  0
LINE
  8
0
 10
-14.4582
 20
6.15492
 11
-14.3804
 21
6.08186
  0
LINE
  8
0
 10
-14.3804
 20
6.08186
 11
-14.3123
 21
5.9996
  0
LINE
  8
0
 10
-14.3123
 20
5.9996
 11
-14.2551
 21
5.90948
  0
LINE
  8
0
 10
-14.2551
 20
5.90948
 11
-14.2097
 21
5.8129
  0
LINE
  8
0
 10
-14.2097
 20
5.8129
 11
-14.1767
 21
5.71138
  0
LINE
  8
0
 10
-14.1767
 20
5.71138
 11
-14.1567
 21
5.60652
  0
LINE
  8
0
 10
-14.1567
 20
5.60652
 11
-14.15
 21
5.5
  0
LINE
  8
0
 10
-14.15
 20
5.5
 11
-14.1567
 21
5.39346
  0
LINE
  8
0
 10
-14.1567
 20
5.39346
 11
-14.1767
 21
5.2886
  0
LINE
  8
0
 10
-14.1767
 20
5.2886
 11
-14.2097
 21
5.18709
  0
LINE
  8
0
 10
-14.2097
 20
5.18709
 11
-14.2551
 21
5.0905
  0
LINE
  8
0
 10
-14.2551
 20
5.0905
 11
-14.3123
 21
5.00038
  0
LINE
  8
0
 10
-14.3123
 20
5.00038
 11
-14.3804
 21
4.91812
  0
LINE
  8
0
 10
-14.3804
 20
4.91812
 11
-14.4582
 21
4.84506
  0
LINE
  8
0
 10
-14.4582
 20
4.84506
 11
-14.5445
 21
4.78232
  0
LINE
  8
0
 10
-14.5445
 20
4.78232
 11
-14.6381
 21
4.7309
  0
LINE
  8
0
 10
-14.6381
 20
4.7309
 11
-14.7373
 21
4.69159
  0
LINE
  8
0
 10
-14.7373
 20
4.69159
 11
-14.8407
 21
4.66505
  0
LINE
  8
0
 10
-14.8407
 20
4.66505
 11
-14.9466
 21
4.65167
  0
LINE
  8
0
 10
-14.9466
 20
4.65167
 11
-15.0534
 21
4.65167
  0
LINE
  8
0
 10
14.9686
 20
5.00098
 11
14.9063
 21
5.00885
  0
LINE
  8
0
 10
14.9063
 20
5.00885
 11
14.8455
 21
5.02446
  0
LINE
  8
0
 10
14.8455
 20
5.02446
 11
14.7871
 21
5.04758
  0
LINE
  8
0
 10
14.7871
 20
5.04758
 11
14.7321
 21
5.07784
  0
LINE
  8
0
 10
14.7321
 20
5.07784
 11
14.6813
 21
5.11473
  0
LINE
  8
0
 10
14.6813
 20
5.11473
 11
14.6355
 21
5.15771
  0
LINE
  8
0
 10
14.6355
 20
5.15771
 11
14.5955
 21
5.2061
  0
LINE
  8
0
 10
14.5955
 20
5.2061
 11
14.5618
 21
5.25911
  0
LINE
  8
0
 10
14.5618
 20
5.25911
 11
14.5351
 21
5.31593
  0
LINE
  8
0
 10
14.5351
 20
5.31593
 11
14.5157
 21
5.37564
  0
LINE
  8
0
 10
14.5157
 20
5.37564
 11
14.5039
 21
5.43733
  0
LINE
  8
0
 10
14.5039
 20
5.43733
 11
14.5
 21
5.5
  0
LINE
  8
0
 10
14.5
 20
5.5
 11
14.5039
 21
5.56265
  0
LINE
  8
0
 10
14.5039
 20
5.56265
 11
14.5157
 21
5.62434
  0
LINE
  8
0
 10
14.5157
 20
5.62434
 11
14.5351
 21
5.68405
  0
LINE
  8
0
 10
14.5351
 20
5.68405
 11
14.5618
 21
5.74088
  0
LINE
  8
0
 10
14.5618
 20
5.74088
 11
14.5955
 21
5.79388
  0
LINE
  8
0
 10
14.5955
 20
5.79388
 11
14.6355
 21
5.84227
  0
LINE
  8
0
 10
14.6355
 20
5.84227
 11
14.6813
 21
5.88525
  0
LINE
  8
0
 10
14.6813
 20
5.88525
 11
14.7321
 21
5.92215
  0
LINE
  8
0
 10
14.7321
 20
5.92215
 11
14.7871
 21
5.95241
  0
LINE
  8
0
 10
14.7871
 20
5.95241
 11
14.8455
 21
5.97552
  0
LINE
  8
0
 10
14.8455
 20
5.97552
 11
14.9063
 21
5.99113
  0
LINE
  8
0
 10
14.9063
 20
5.99113
 11
14.9686
 21
5.99901
  0
LINE
  8
0
 10
14.9686
 20
5.99901
 11
15.0314
 21
5.99901
  0
LINE
  8
0
 10
15.0314
 20
5.99901
 11
15.0937
 21
5.99113
  0
LINE
  8
0
 10
15.0937
 20
5.99113
 11
15.1545
 21
5.97552
  0
LINE
  8
0
 10
15.1545
 20
5.97552
 11
15.2129
 21
5.95241
  0
LINE
  8
0
 10
15.2129
 20
5.95241
 11
15.2679
 21
5.92215
  0
LINE
  8
0
 10
15.2679
 20
5.92215
 11
15.3187
 21
5.88525
  0
LINE
  8
0
 10
15.3187
 20
5.88525
 11
15.3645
 21
5.84227
  0
LINE
  8
0
 10
15.3645
 20
5.84227
 11
15.4045
 21
5.79388
  0
LINE
  8
0
 10
15.4045
 20
5.79388
 11
15.4381
 21
5.74088
  0
LINE
  8
0
 10
15.4381
 20
5.74088
 11
15.4649
 21
5.68405
  0
LINE
  8
0
 10
15.4649
 20
5.68405
 11
15.4843
 21
5.62434
  0
LINE
  8
0
 10
15.4843
 20
5.62434
 11
15.496
 21
5.56265
  0
LINE
  8
0
 10
15.496
 20
5.56265
 11
15.5
 21
5.5
  0
LINE
  8
0
 10
15.5
 20
5.5
 11
15.496
 21
5.43733
  0
LINE
  8
0
 10
15.496
 20
5.43733
 11
15.4843
 21
5.37564
  0
LINE
  8
0
 10
15.4843
 20
5.37564
 11
15.4649
 21
5.31593
  0
LINE
  8
0
 10
15.4649
 20
5.31593
 11
15.4381
 21
5.25911
  0
LINE
  8
0
 10
15.4381
 20
5.25911
 11
15.4045
 21
5.2061
  0
LINE
  8
0
 10
15.4045
 20
5.2061
 11
15.3645
 21
5.15771
  0
LINE
  8
0
 10
15.3645
 20
5.15771
 11
15.3187
 21
5.11473
  0
LINE
  8
0
 10
15.3187
 20
5.11473
 11
15.2679
 21
5.07784
  0
LINE
  8
0
 10
15.2679
 20
5.07784
 11
15.2129
 21
5.04758
  0
LINE
  8
0
 10
15.2129
 20
5.04758
 11
15.1545
 21
5.02446
  0
LINE
  8
0
 10
15.1545
 20
5.02446
 11
15.0937
 21
5.00885
  0
LINE
  8
0
 10
15.0937
 20
5.00885
 11
15.0314
 21
5.00098
  0
LINE
  8
0
 10
15.0314
 20
5.00098
 11
14.9686
 21
5.00098
  0
LINE
  8
0
 10
22.4058
 20
1.50294
 11
22.2189
 21
1.52657
  0
LINE
  8
0
 10
22.2189
 20
1.52657
 11
22.0365
 21
1.57341
  0
LINE
  8
0
 10
22.0365
 20
1.57341
 11
21.8613
 21
1.64275
  0
LINE
  8
0
 10
21.8613
 20
1.64275
 11
21.6963
 21
1.73351
  0
LINE
  8
0
 10
21.6963
 20
1.73351
 11
21.5439
 21
1.84422
  0
LINE
  8
0
 10
21.5439
 20
1.84422
 11
21.4065
 21
1.97318
  0
LINE
  8
0
 10
21.4065
 20
1.97318
 11
21.2865
 21
2.11832
  0
LINE
  8
0
 10
21.2865
 20
2.11832
 11
21.1855
 21
2.27736
  0
LINE
  8
0
 10
21.1855
 20
2.27736
 11
21.1053
 21
2.4478
  0
LINE
  8
0
 10
21.1053
 20
2.4478
 11
21.0471
 21
2.62695
  0
LINE
  8
0
 10
21.0471
 20
2.62695
 11
21.0118
 21
2.812
  0
LINE
  8
0
 10
21.0118
 20
2.812
 11
21
 21
3
  0
LINE
  8
0
 10
21
 20
3
 11
21.0118
 21
3.18799
  0
LINE
  8
0
 10
21.0118
 20
3.18799
 11
21.0471
 21
3.37303
  0
LINE
  8
0
 10
21.0471
 20
3.37303
 11
21.1053
 21
3.55219
  0
LINE
  8
0
 10
21.1053
 20
3.55219
 11
21.1855
 21
3.72263
  0
LINE
  8
0
 10
21.1855
 20
3.72263
 11
21.2865
 21
3.88167
  0
LINE
  8
0
 10
21.2865
 20
3.88167
 11
21.4065
 21
4.02681
  0
LINE
  8
0
 10
21.4065
 20
4.02681
 11
21.5439
 21
4.15576
  0
LINE
  8
0
 10
21.5439
 20
4.15576
 11
21.6963
 21
4.26648
  0
LINE
  8
0
 10
21.6963
 20
4.26648
 11
21.8613
 21
4.35724
  0
LINE
  8
0
 10
21.8613
 20
4.35724
 11
22.0365
 21
4.42657
  0
LINE
  8
0
 10
22.0365
 20
4.42657
 11
22.2189
 21
4.47342
  0
LINE
  8
0
 10
22.2189
 20
4.47342
 11
22.4058
 21
4.49704
  0
LINE
  8
0
 10
22.4058
 20
4.49704
 11
22.5942
 21
4.49704
  0
LINE
  8
0
 10
22.5942
 20
4.49704
 11
22.7811
 21
4.47342
  0
LINE
  8
0
 10
22.7811
 20
4.47342
 11
22.9635
 21
4.42657
  0
LINE
  8
0
 10
22.9635
 20
4.42657
 11
23.1387
 21
4.35724
  0
LINE
  8
0
 10
23.1387
 20
4.35724
 11
23.3037
 21
4.26648
  0
LINE
  8
0
 10
23.3037
 20
4.26648
 11
23.4561
 21
4.15576
  0
LINE
  8
0
 10
23.4561
 20
4.15576
 11
23.5934
 21
4.02681
  0
LINE
  8
0
 10
23.5934
 20
4.02681
 11
23.7135
 21
3.88167
  0
LINE
  8
0
 10
23.7135
 20
3.88167
 11
23.8145
 21
3.72263
  0
LINE
  8
0
 10
23.8145
 20
3.72263
 11
23.8947
 21
3.55219
  0
LINE
  8
0
 10
23.8947
 20
3.55219
 11
23.9529
 21
3.37303
  0
LINE
  8
0
 10
23.9529
 20
3.37303
 11
23.9882
 21
3.18799
  0
LINE
  8
0
 10
23.9882
 20
3.18799
 11
24
 21
3
  0
LINE
  8
0
 10
24
 20
3
 11
23.9882
 21
2.812
  0
LINE
  8
0
 10
23.9882
 20
2.812
 11
23.9529
 21
2.62695
  0
LINE
  8
0
 10
23.9529
 20
2.62695
 11
23.8947
 21
2.4478
  0
LINE
  8
0
 10
23.8947
 20
2.4478
 11
23.8145
 21
2.27736
  0
LINE
  8
0
 10
23.8145
 20
2.27736
 11
23.7135
 21
2.11832
  0
LINE
  8
0
 10
23.7135
 20
2.11832
 11
23.5934
 21
1.97318
  0
LINE
  8
0
 10
23.5934
 20
1.97318
 11
23.4561
 21
1.84422
  0
LINE
  8
0
 10
23.4561
 20
1.84422
 11
23.3037
 21
1.73351
  0
LINE
  8
0
 10
23.3037
 20
1.73351
 11
23.1387
 21
1.64275
  0
LINE
  8
0
 10
23.1387
 20
1.64275
 11
22.9635
 21
1.57341
  0
LINE
  8
0
 10
22.9635
 20
1.57341
 11
22.7811
 21
1.52657
  0
LINE
  8
0
 10
22.7811
 20
1.52657
 11
22.5942
 21
1.50294
  0
LINE
  8
0
 10
22.5942
 20
1.50294
 11
22.4058
 21
1.50294
  0
LINE
  8
0
 10
29.8116
 20
-2.99408
 11
29.4379
 21
-2.94685
  0
LINE
  8
0
 10
29.4379
 20
-2.94685
 11
29.0729
 21
-2.85316
  0
LINE
  8
0
 10
29.0729
 20
-2.85316
 11
28.7227
 21
-2.71448
  0
LINE
  8
0
 10
28.7227
 20
-2.71448
 11
28.3925
 21
-2.53297
  0
LINE
  8
0
 10
28.3925
 20
-2.53297
 11
28.0877
 21
-2.31154
  0
LINE
  8
0
 10
28.0877
 20
-2.31154
 11
27.8131
 21
-2.05363
  0
LINE
  8
0
 10
27.8131
 20
-2.05363
 11
27.5729
 21
-1.76335
  0
LINE
  8
0
 10
27.5729
 20
-1.76335
 11
27.3711
 21
-1.44525
  0
LINE
  8
0
 10
27.3711
 20
-1.44525
 11
27.2107
 21
-1.10437
  0
LINE
  8
0
 10
27.2107
 20
-1.10437
 11
27.0942
 21
-0.746063
  0
LINE
  8
0
 10
27.0942
 20
-0.746063
 11
27.0237
 21
-0.375992
  0
LINE
  8
0
 10
27.0237
 20
-0.375992
 11
27
 21
0
  0
LINE
  8
0
 10
27
 20
0
 11
27.0237
 21
0.375992
  0
LINE
  8
0
 10
27.0237
 20
0.375992
 11
27.0942
 21
0.746063
  0
LINE
  8
0
 10
27.0942
 20
0.746063
 11
27.2107
 21
1.10437
  0
LINE
  8
0
 10
27.2107
 20
1.10437
 11
27.3711
 21
1.44525
  0
LINE
  8
0
 10
27.3711
 20
1.44525
 11
27.5729
 21
1.76335
  0
LINE
  8
0
 10
27.5729
 20
1.76335
 11
27.8131
 21
2.05363
  0
LINE
  8
0
 10
27.8131
 20
2.05363
 11
28.0877
 21
2.31154
  0
LINE
  8
0
 10
28.0877
 20
2.31154
 11
28.3925
 21
2.53297
  0
LINE
  8
0
 10
28.3925
 20
2.53297
 11
28.7227
 21
2.71448
  0
LINE
  8
0
 10
28.7227
 20
2.71448
 11
29.0729
 21
2.85316
  0
LINE
  8
0
 10
29.0729
 20
2.85316
 11
29.4379
 21
2.94685
  0
LINE
  8
0
 10
29.4379
 20
2.94685
 11
29.8116
 21
2.99408
  0
LINE
  8
0
 10
29.8116
 20
2.99408
 11
30.1884
 21
2.99408
  0
LINE
  8
0
 10
30.1884
 20
2.99408
 11
30.5621
 21
2.94685
  0
LINE
  8
0
 10
30.5621
 20
2.94685
 11
30.927
 21
2.85316
  0
LINE
  8
0
 10
30.927
 20
2.85316
 11
31.2773
 21
2.71448
  0
LINE
  8
0
 10
31.2773
 20
2.71448
 11
31.6075
 21
2.53297
  0
LINE
  8
0
 10
31.6075
 20
2.53297
 11
31.9123
 21
2.31154
  0
LINE
  8
0
 10
31.9123
 20
2.31154
 11
32.1869
 21
2.05363
  0
LINE
  8
0
 10
32.1869
 20
2.05363
 11
32.427
 21
1.76335
  0
LINE
  8
0
 10
32.427
 20
1.76335
 11
32.6289
 21
1.44525
  0
LINE
  8
0
 10
32.6289
 20
1.44525
 11
32.7893
 21
1.10437
  0
LINE
  8
0
 10
32.7893
 20
1.10437
 11
32.9057
 21
0.746063
  0
LINE
  8
0
 10
32.9057
 20
0.746063
 11
32.9763
 21
0.375992
  0
LINE
  8
0
 10
32.9763
 20
0.375992
 11
33
 21
0
  0
LINE
  8
0
 10
33
 20
0
 11
32.9763
 21
-0.375992
  0
LINE
  8
0
 10
32.9763
 20
-0.375992
 11
32.9057
 21
-0.746063
  0
LINE
  8
0
 10
32.9057
 20
-0.746063
 11
32.7893
 21
-1.10437
  0
LINE
  8
0
 10
32.7893
 20
-1.10437
 11
32.6289
 21
-1.44525
  0
LINE
  8
0
 10
32.6289
 20
-1.44525
 11
32.427
 21
-1.76335
  0
LINE
  8
0
 10
32.427
 20
-1.76335
 11
32.1869
 21
-2.05363
  0
LINE
  8
0
 10
32.1869
 20
-2.05363
 11
31.9123
 21
-2.31154
  0
LINE
  8
0
 10
31.9123
 20
-2.31154
 11
31.6075
 21
-2.53297
  0
LINE
  8
0
 10
31.6075
 20
-2.53297
 11
31.2773
 21
-2.71448
  0
LINE
  8
0
 10
31.2773
 20
-2.71448
 11
30.927
 21
-2.85316
  0
LINE
  8
0
 10
30.927
 20
-2.85316
 11
30.5621
 21
-2.94685
  0
LINE
  8
0
 10
30.5621
 20
-2.94685
 11
30.1884
 21
-2.99408
  0
LINE
  8
0
 10
30.1884
 20
-2.99408
 11
29.8116
 21
-2.99408
  0
LINE
  8
0
 10
-30.1884
 20
-2.99408
 11
-30.5621
 21
-2.94685
  0
LINE
  8
0
 10
-30.5621
 20
-2.94685
 11
-30.927
 21
-2.85316
  0
LINE
  8
0
 10
-30.927
 20
-2.85316
 11
-31.2773
 21
-2.71448
  0
LINE
  8
0
 10
-31.2773
 20
-2.71448
 11
-31.6075
 21
-2.53297
  0
LINE
  8
0
 10
-31.6075
 20
-2.53297
 11
-31.9123
 21
-2.31154
  0
LINE
  8
0
 10
-31.9123
 20
-2.31154
 11
-32.1869
 21
-2.05363
  0
LINE
  8
0
 10
-32.1869
 20
-2.05363
 11
-32.427
 21
-1.76335
  0
LINE
  8
0
 10
-32.427
 20
-1.76335
 11
-32.6289
 21
-1.44525
  0
LINE
  8
0
 10
-32.6289
 20
-1.44525
 11
-32.7893
 21
-1.10437
  0
LINE
  8
0
 10
-32.7893
 20
-1.10437
 11
-32.9057
 21
-0.746063
  0
LINE
  8
0
 10
-32.9057
 20
-0.746063
 11
-32.9763
 21
-0.375992
  0
LINE
  8
0
 10
-32.9763
 20
-0.375992
 11
-33
 21
0
  0
LINE
  8
0
 10
-33
 20
0
 11
-32.9763
 21
0.375992
  0
LINE
  8
0
 10
-32.9763
 20
0.375992
 11
-32.9057
 21
0.746063
  0
LINE
  8
0
 10
-32.9057
 20
0.746063
 11
-32.7893
 21
1.10437
  0
LINE
  8
0
 10
-32.7893
 20
1.10437
 11
-32.6289
 21
1.44525
  0
LINE
  8
0
 10
-32.6289
 20
1.44525
 11
-32.427
 21
1.76335
  0
LINE
  8
0
 10
-32.427
 20
1.76335
 11
-32.1869
 21
2.05363
  0
LINE
  8
0
 10
-32.1869
 20
2.05363
 11
-31.9123
 21
2.31154
  0
LINE
  8
0
 10
-31.9123
 20
2.31154
 11
-31.6075
 21
2.53297
  0
LINE
  8
0
 10
-31.6075
 20
2.53297
 11
-31.2773
 21
2.71448
  0
LINE
  8
0
 10
-31.2773
 20
2.71448
 11
-30.927
 21
2.85316
  0
LINE
  8
0
 10
-30.927
 20
2.85316
 11
-30.5621
 21
2.94685
  0
LINE
  8
0
 10
-30.5621
 20
2.94685
 11
-30.1884
 21
2.99408
  0
LINE
  8
0
 10
-30.1884
 20
2.99408
 11
-29.8116
 21
2.99408
  0
LINE
  8
0
 10
-29.8116
 20
2.99408
 11
-29.4379
 21
2.94685
  0
LINE
  8
0
 10
-29.4379
 20
2.94685
 11
-29.0729
 21
2.85316
  0
LINE
  8
0
 10
-29.0729
 20
2.85316
 11
-28.7227
 21
2.71448
  0
LINE
  8
0
 10
-28.7227
 20
2.71448
 11
-28.3925
 21
2.53297
  0
LINE
  8
0
 10
-28.3925
 20
2.53297
 11
-28.0877
 21
2.31154
  0
LINE
  8
0
 10
-28.0877
 20
2.31154
 11
-27.8131
 21
2.05363
  0
LINE
  8
0
 10
-27.8131
 20
2.05363
 11
-27.5729
 21
1.76335
  0
LINE
  8
0
 10
-27.5729
 20
1.76335
 11
-27.3711
 21
1.44525
  0
LINE
  8
0
 10
-27.3711
 20
1.44525
 11
-27.2107
 21
1.10437
  0
LINE
  8
0
 10
-27.2107
 20
1.10437
 11
-27.0942
 21
0.746063
  0
LINE
  8
0
 10
-27.0942
 20
0.746063
 11
-27.0237
 21
0.375992
  0
LINE
  8
0
 10
-27.0237
 20
0.375992
 11
-27
 21
0
  0
LINE
  8
0
 10
-27
 20
0
 11
-27.0237
 21
-0.375992
  0
LINE
  8
0
 10
-27.0237
 20
-0.375992
 11
-27.0942
 21
-0.746063
  0
LINE
  8
0
 10
-27.0942
 20
-0.746063
 11
-27.2107
 21
-1.10437
  0
LINE
  8
0
 10
-27.2107
 20
-1.10437
 11
-27.3711
 21
-1.44525
  0
LINE
  8
0
 10
-27.3711
 20
-1.44525
 11
-27.5729
 21
-1.76335
  0
LINE
  8
0
 10
-27.5729
 20
-1.76335
 11
-27.8131
 21
-2.05363
  0
LINE
  8
0
 10
-27.8131
 20
-2.05363
 11
-28.0877
 21
-2.31154
  0
LINE
  8
0
 10
-28.0877
 20
-2.31154
 11
-28.3925
 21
-2.53297
  0
LINE
  8
0
 10
-28.3925
 20
-2.53297
 11
-28.7227
 21
-2.71448
  0
LINE
  8
0
 10
-28.7227
 20
-2.71448
 11
-29.0729
 21
-2.85316
  0
LINE
  8
0
 10
-29.0729
 20
-2.85316
 11
-29.4379
 21
-2.94685
  0
LINE
  8
0
 10
-29.4379
 20
-2.94685
 11
-29.8116
 21
-2.99408
  0
LINE
  8
0
 10
-29.8116
 20
-2.99408
 11
-30.1884
 21
-2.99408
  0
LINE
  8
0
 10
22.4058
 20
-4.49704
 11
22.2189
 21
-4.47342
  0
LINE
  8
0
 10
22.2189
 20
-4.47342
 11
22.0365
 21
-4.42657
  0
LINE
  8
0
 10
22.0365
 20
-4.42657
 11
21.8613
 21
-4.35724
  0
LINE
  8
0
 10
21.8613
 20
-4.35724
 11
21.6963
 21
-4.26648
  0
LINE
  8
0
 10
21.6963
 20
-4.26648
 11
21.5439
 21
-4.15576
  0
LINE
  8
0
 10
21.5439
 20
-4.15576
 11
21.4065
 21
-4.02681
  0
LINE
  8
0
 10
21.4065
 20
-4.02681
 11
21.2865
 21
-3.88167
  0
LINE
  8
0
 10
21.2865
 20
-3.88167
 11
21.1855
 21
-3.72263
  0
LINE
  8
0
 10
21.1855
 20
-3.72263
 11
21.1053
 21
-3.55219
  0
LINE
  8
0
 10
21.1053
 20
-3.55219
 11
21.0471
 21
-3.37303
  0
LINE
  8
0
 10
21.0471
 20
-3.37303
 11
21.0118
 21
-3.18799
  0
LINE
  8
0
 10
21.0118
 20
-3.18799
 11
21
 21
-3
  0
LINE
  8
0
 10
21
 20
-3
 11
21.0118
 21
-2.812
  0
LINE
  8
0
 10
21.0118
 20
-2.812
 11
21.0471
 21
-2.62695
  0
LINE
  8
0
 10
21.0471
 20
-2.62695
 11
21.1053
 21
-2.4478
  0
LINE
  8
0
 10
21.1053
 20
-2.4478
 11
21.1855
 21
-2.27736
  0
LINE
  8
0
 10
21.1855
 20
-2.27736
 11
21.2865
 21
-2.11832
  0
LINE
  8
0
 10
21.2865
 20
-2.11832
 11
21.4065
 21
-1.97318
  0
LINE
  8
0
 10
21.4065
 20
-1.97318
 11
21.5439
 21
-1.84422
  0
LINE
  8
0
 10
21.5439
 20
-1.84422
 11
21.6963
 21
-1.73351
  0
LINE
  8
0
 10
21.6963
 20
-1.73351
 11
21.8613
 21
-1.64275
  0
LINE
  8
0
 10
21.8613
 20
-1.64275
 11
22.0365
 21
-1.57341
  0
LINE
  8
0
 10
22.0365
 20
-1.57341
 11
22.2189
 21
-1.52657
  0
LINE
  8
0
 10
22.2189
 20
-1.52657
 11
22.4058
 21
-1.50294
  0
LINE
  8
0
 10
22.4058
 20
-1.50294
 11
22.5942
 21
-1.50294
  0
LINE
  8
0
 10
22.5942
 20
-1.50294
 11
22.7811
 21
-1.52657
  0
LINE
  8
0
 10
22.7811
 20
-1.52657
 11
22.9635
 21
-1.57341
  0
LINE
  8
0
 10
22.9635
 20
-1.57341
 11
23.1387
 21
-1.64275
  0
LINE
  8
0
 10
23.1387
 20
-1.64275
 11
23.3037
 21
-1.73351
  0
LINE
  8
0
 10
23.3037
 20
-1.73351
 11
23.4561
 21
-1.84422
  0
LINE
  8
0
 10
23.4561
 20
-1.84422
 11
23.5934
 21
-1.97318
  0
LINE
  8
0
 10
23.5934
 20
-1.97318
 11
23.7135
 21
-2.11832
  0
LINE
  8
0
 10
23.7135
 20
-2.11832
 11
23.8145
 21
-2.27736
  0
LINE
  8
0
 10
23.8145
 20
-2.27736
 11
23.8947
 21
-2.4478
  0
LINE
  8
0
 10
23.8947
 20
-2.4478
 11
23.9529
 21
-2.62695
  0
LINE
  8
0
 10
23.9529
 20
-2.62695
 11
23.9882
 21
-2.812
  0
LINE
  8
0
 10
23.9882
 20
-2.812
 11
24
 21
-3
  0
LINE
  8
0
 10
24
 20
-3
 11
23.9882
 21
-3.18799
  0
LINE
  8
0
 10
23.9882
 20
-3.18799
 11
23.9529
 21
-3.37303
  0
LINE
  8
0
 10
23.9529
 20
-3.37303
 11
23.8947
 21
-3.55219
  0
LINE
  8
0
 10
23.8947
 20
-3.55219
 11
23.8145
 21
-3.72263
  0
LINE
  8
0
 10
23.8145
 20
-3.72263
 11
23.7135
 21
-3.88167
  0
LINE
  8
0
 10
23.7135
 20
-3.88167
 11
23.5934
 21
-4.02681
  0
LINE
  8
0
 10
23.5934
 20
-4.02681
 11
23.4561
 21
-4.15576
  0
LINE
  8
0
 10
23.4561
 20
-4.15576
 11
23.3037
 21
-4.26648
  0
LINE
  8
0
 10
23.3037
 20
-4.26648
 11
23.1387
 21
-4.35724
  0
LINE
  8
0
 10
23.1387
 20
-4.35724
 11
22.9635
 21
-4.42657
  0
LINE
  8
0
 10
22.9635
 20
-4.42657
 11
22.7811
 21
-4.47342
  0
LINE
  8
0
 10
22.7811
 20
-4.47342
 11
22.5942
 21
-4.49704
  0
LINE
  8
0
 10
22.5942
 20
-4.49704
 11
22.4058
 21
-4.49704
  0
LINE
  8
0
 10
29.9058
 20
-8.99704
 11
29.7189
 21
-8.97342
  0
LINE
  8
0
 10
29.7189
 20
-8.97342
 11
29.5365
 21
-8.92657
  0
LINE
  8
0
 10
29.5365
 20
-8.92657
 11
29.3613
 21
-8.85724
  0
LINE
  8
0
 10
29.3613
 20
-8.85724
 11
29.1963
 21
-8.76648
  0
LINE
  8
0
 10
29.1963
 20
-8.76648
 11
29.0439
 21
-8.65576
  0
LINE
  8
0
 10
29.0439
 20
-8.65576
 11
28.9065
 21
-8.52681
  0
LINE
  8
0
 10
28.9065
 20
-8.52681
 11
28.7865
 21
-8.38167
  0
LINE
  8
0
 10
28.7865
 20
-8.38167
 11
28.6855
 21
-8.22263
  0
LINE
  8
0
 10
28.6855
 20
-8.22263
 11
28.6053
 21
-8.05219
  0
LINE
  8
0
 10
28.6053
 20
-8.05219
 11
28.5471
 21
-7.87303
  0
LINE
  8
0
 10
28.5471
 20
-7.87303
 11
28.5118
 21
-7.68799
  0
LINE
  8
0
 10
28.5118
 20
-7.68799
 11
28.5
 21
-7.5
  0
LINE
  8
0
 10
28.5
 20
-7.5
 11
28.5118
 21
-7.312
  0
LINE
  8
0
 10
28.5118
 20
-7.312
 11
28.5471
 21
-7.12695
  0
LINE
  8
0
 10
28.5471
 20
-7.12695
 11
28.6053
 21
-6.9478
  0
LINE
  8
0
 10
28.6053
 20
-6.9478
 11
28.6855
 21
-6.77736
  0
LINE
  8
0
 10
28.6855
 20
-6.77736
 11
28.7865
 21
-6.61832
  0
LINE
  8
0
 10
28.7865
 20
-6.61832
 11
28.9065
 21
-6.47318
  0
LINE
  8
0
 10
28.9065
 20
-6.47318
 11
29.0439
 21
-6.34422
  0
LINE
  8
0
 10
29.0439
 20
-6.34422
 11
29.1963
 21
-6.23351
  0
LINE
  8
0
 10
29.1963
 20
-6.23351
 11
29.3613
 21
-6.14275
  0
LINE
  8
0
 10
29.3613
 20
-6.14275
 11
29.5365
 21
-6.07341
  0
LINE
  8
0
 10
29.5365
 20
-6.07341
 11
29.7189
 21
-6.02657
  0
LINE
  8
0
 10
29.7189
 20
-6.02657
 11
29.9058
 21
-6.00294
  0
LINE
  8
0
 10
29.9058
 20
-6.00294
 11
30.0942
 21
-6.00294
  0
LINE
  8
0
 10
30.0942
 20
-6.00294
 11
30.2811
 21
-6.02657
  0
LINE
  8
0
 10
30.2811
 20
-6.02657
 11
30.4635
 21
-6.07341
  0
LINE
  8
0
 10
30.4635
 20
-6.07341
 11
30.6387
 21
-6.14275
  0
LINE
  8
0
 10
30.6387
 20
-6.14275
 11
30.8037
 21
-6.23351
  0
LINE
  8
0
 10
30.8037
 20
-6.23351
 11
30.9561
 21
-6.34422
  0
LINE
  8
0
 10
30.9561
 20
-6.34422
 11
31.0934
 21
-6.47318
  0
LINE
  8
0
 10
31.0934
 20
-6.47318
 11
31.2135
 21
-6.61832
  0
LINE
  8
0
 10
31.2135
 20
-6.61832
 11
31.3145
 21
-6.77736
  0
LINE
  8
0
 10
31.3145
 20
-6.77736
 11
31.3947
 21
-6.9478
  0
LINE
  8
0
 10
31.3947
 20
-6.9478
 11
31.4529
 21
-7.12695
  0
LINE
  8
0
 10
31.4529
 20
-7.12695
 11
31.4882
 21
-7.312
  0
LINE
  8
0
 10
31.4882
 20
-7.312
 11
31.5
 21
-7.5
  0
LINE
  8
0
 10
31.5
 20
-7.5
 11
31.4882
 21
-7.68799
  0
LINE
  8
0
 10
31.4882
 20
-7.68799
 11
31.4529
 21
-7.87303
  0
LINE
  8
0
 10
31.4529
 20
-7.87303
 11
31.3947
 21
-8.05219
  0
LINE
  8
0
 10
31.3947
 20
-8.05219
 11
31.3145
 21
-8.22263
  0
LINE
  8
0
 10
31.3145
 20
-8.22263
 11
31.2135
 21
-8.38167
  0
LINE
  8
0
 10
31.2135
 20
-8.38167
 11
31.0934
 21
-8.52681
  0
LINE
  8
0
 10
31.0934
 20
-8.52681
 11
30.9561
 21
-8.65576
  0
LINE
  8
0
 10
30.9561
 20
-8.65576
 11
30.8037
 21
-8.76648
  0
LINE
  8
0
 10
30.8037
 20
-8.76648
 11
30.6387
 21
-8.85724
  0
LINE
  8
0
 10
30.6387
 20
-8.85724
 11
30.4635
 21
-8.92657
  0
LINE
  8
0
 10
30.4635
 20
-8.92657
 11
30.2811
 21
-8.97342
  0
LINE
  8
0
 10
30.2811
 20
-8.97342
 11
30.0942
 21
-8.99704
  0
LINE
  8
0
 10
30.0942
 20
-8.99704
 11
29.9058
 21
-8.99704
  0
LINE
  8
0
 10
-30.0942
 20
-8.99704
 11
-30.2811
 21
-8.97342
  0
LINE
  8
0
 10
-30.2811
 20
-8.97342
 11
-30.4635
 21
-8.92657
  0
LINE
  8
0
 10
-30.4635
 20
-8.92657
 11
-30.6387
 21
-8.85724
  0
LINE
  8
0
 10
-30.6387
 20
-8.85724
 11
-30.8037
 21
-8.76648
  0
LINE
  8
0
 10
-30.8037
 20
-8.76648
 11
-30.9561
 21
-8.65576
  0
LINE
  8
0
 10
-30.9561
 20
-8.65576
 11
-31.0934
 21
-8.52681
  0
LINE
  8
0
 10
-31.0934
 20
-8.52681
 11
-31.2135
 21
-8.38167
  0
LINE
  8
0
 10
-31.2135
 20
-8.38167
 11
-31.3145
 21
-8.22263
  0
LINE
  8
0
 10
-31.3145
 20
-8.22263
 11
-31.3947
 21
-8.05219
  0
LINE
  8
0
 10
-31.3947
 20
-8.05219
 11
-31.4529
 21
-7.87303
  0
LINE
  8
0
 10
-31.4529
 20
-7.87303
 11
-31.4882
 21
-7.68799
  0
LINE
  8
0
 10
-31.4882
 20
-7.68799
 11
-31.5
 21
-7.5
  0
LINE
  8
0
 10
-31.5
 20
-7.5
 11
-31.4882
 21
-7.312
  0
LINE
  8
0
 10
-31.4882
 20
-7.312
 11
-31.4529
 21
-7.12695
  0
LINE
  8
0
 10
-31.4529
 20
-7.12695
 11
-31.3947
 21
-6.9478
  0
LINE
  8
0
 10
-31.3947
 20
-6.9478
 11
-31.3145
 21
-6.77736
  0
LINE
  8
0
 10
-31.3145
 20
-6.77736
 11
-31.2135
 21
-6.61832
  0
LINE
  8
0
 10
-31.2135
 20
-6.61832
 11
-31.0934
 21
-6.47318
  0
LINE
  8
0
 10
-31.0934
 20
-6.47318
 11
-30.9561
 21
-6.34422
  0
LINE
  8
0
 10
-30.9561
 20
-6.34422
 11
-30.8037
 21
-6.23351
  0
LINE
  8
0
 10
-30.8037
 20
-6.23351
 11
-30.6387
 21
-6.14275
  0
LINE
  8
0
 10
-30.6387
 20
-6.14275
 11
-30.4635
 21
-6.07341
  0
LINE
  8
0
 10
-30.4635
 20
-6.07341
 11
-30.2811
 21
-6.02657
  0
LINE
  8
0
 10
-30.2811
 20
-6.02657
 11
-30.0942
 21
-6.00294
  0
LINE
  8
0
 10
-30.0942
 20
-6.00294
 11
-29.9058
 21
-6.00294
  0
LINE
  8
0
 10
-29.9058
 20
-6.00294
 11
-29.7189
 21
-6.02657
  0
LINE
  8
0
 10
-29.7189
 20
-6.02657
 11
-29.5365
 21
-6.07341
  0
LINE
  8
0
 10
-29.5365
 20
-6.07341
 11
-29.3613
 21
-6.14275
  0
LINE
  8
0
 10
-29.3613
 20
-6.14275
 11
-29.1963
 21
-6.23351
  0
LINE
  8
0
 10
-29.1963
 20
-6.23351
 11
-29.0439
 21
-6.34422
  0
LINE
  8
0
 10
-29.0439
 20
-6.34422
 11
-28.9065
 21
-6.47318
  0
LINE
  8
0
 10
-28.9065
 20
-6.47318
 11
-28.7865
 21
-6.61832
  0
LINE
  8
0
 10
-28.7865
 20
-6.61832
 11
-28.6855
 21
-6.77736
  0
LINE
  8
0
 10
-28.6855
 20
-6.77736
 11
-28.6053
 21
-6.9478
  0
LINE
  8
0
 10
-28.6053
 20
-6.9478
 11
-28.5471
 21
-7.12695
  0
LINE
  8
0
 10
-28.5471
 20
-7.12695
 11
-28.5118
 21
-7.312
  0
LINE
  8
0
 10
-28.5118
 20
-7.312
 11
-28.5
 21
-7.5
  0
LINE
  8
0
 10
-28.5
 20
-7.5
 11
-28.5118
 21
-7.68799
  0
LINE
  8
0
 10
-28.5118
 20
-7.68799
 11
-28.5471
 21
-7.87303
  0
LINE
  8
0
 10
-28.5471
 20
-7.87303
 11
-28.6053
 21
-8.05219
  0
LINE
  8
0
 10
-28.6053
 20
-8.05219
 11
-28.6855
 21
-8.22263
  0
LINE
  8
0
 10
-28.6855
 20
-8.22263
 11
-28.7865
 21
-8.38167
  0
LINE
  8
0
 10
-28.7865
 20
-8.38167
 11
-28.9065
 21
-8.52681
  0
LINE
  8
0
 10
-28.9065
 20
-8.52681
 11
-29.0439
 21
-8.65576
  0
LINE
  8
0
 10
-29.0439
 20
-8.65576
 11
-29.1963
 21
-8.76648
  0
LINE
  8
0
 10
-29.1963
 20
-8.76648
 11
-29.3613
 21
-8.85724
  0
LINE
  8
0
 10
-29.3613
 20
-8.85724
 11
-29.5365
 21
-8.92657
  0
LINE
  8
0
 10
-29.5365
 20
-8.92657
 11
-29.7189
 21
-8.97342
  0
LINE
  8
0
 10
-29.7189
 20
-8.97342
 11
-29.9058
 21
-8.99704
  0
LINE
  8
0
 10
-29.9058
 20
-8.99704
 11
-30.0942
 21
-8.99704
  0
LINE
  8
0
 10
14.9466
 20
-7.84831
 11
14.8407
 21
-7.83493
  0
LINE
  8
0
 10
14.8407
 20
-7.83493
 11
14.7373
 21
-7.8084
  0
LINE
  8
0
 10
14.7373
 20
-7.8084
 11
14.6381
 21
-7.76909
  0
LINE
  8
0
 10
14.6381
 20
-7.76909
 11
14.5445
 21
-7.71767
  0
LINE
  8
0
 10
14.5445
 20
-7.71767
 11
14.4582
 21
-7.65492
  0
LINE
  8
0
 10
14.4582
 20
-7.65492
 11
14.3804
 21
-7.58186
  0
LINE
  8
0
 10
14.3804
 20
-7.58186
 11
14.3123
 21
-7.4996
  0
LINE
  8
0
 10
14.3123
 20
-7.4996
 11
14.2551
 21
-7.40948
  0
LINE
  8
0
 10
14.2551
 20
-7.40948
 11
14.2097
 21
-7.3129
  0
LINE
  8
0
 10
14.2097
 20
-7.3129
 11
14.1767
 21
-7.21138
  0
LINE
  8
0
 10
14.1767
 20
-7.21138
 11
14.1567
 21
-7.10652
  0
LINE
  8
0
 10
14.1567
 20
-7.10652
 11
14.15
 21
-7
  0
LINE
  8
0
 10
14.15
 20
-7
 11
14.1567
 21
-6.89346
  0
LINE
  8
0
 10
14.1567
 20
-6.89346
 11
14.1767
 21
-6.7886
  0
LINE
  8
0
 10
14.1767
 20
-6.7886
 11
14.2097
 21
-6.68709
  0
LINE
  8
0
 10
14.2097
 20
-6.68709
 11
14.2551
 21
-6.5905
  0
LINE
  8
0
 10
14.2551
 20
-6.5905
 11
14.3123
 21
-6.50038
  0
LINE
  8
0
 10
14.3123
 20
-6.50038
 11
14.3804
 21
-6.41812
  0
LINE
  8
0
 10
14.3804
 20
-6.41812
 11
14.4582
 21
-6.34506
  0
LINE
  8
0
 10
14.4582
 20
-6.34506
 11
14.5445
 21
-6.28232
  0
LINE
  8
0
 10
14.5445
 20
-6.28232
 11
14.6381
 21
-6.2309
  0
LINE
  8
0
 10
14.6381
 20
-6.2309
 11
14.7373
 21
-6.19159
  0
LINE
  8
0
 10
14.7373
 20
-6.19159
 11
14.8407
 21
-6.16505
  0
LINE
  8
0
 10
14.8407
 20
-6.16505
 11
14.9466
 21
-6.15167
  0
LINE
  8
0
 10
14.9466
 20
-6.15167
 11
15.0534
 21
-6.15167
  0
LINE
  8
0
 10
15.0534
 20
-6.15167
 11
15.1593
 21
-6.16505
  0
LINE
  8
0
 10
15.1593
 20
-6.16505
 11
15.2626
 21
-6.19159
  0
LINE
  8
0
 10
15.2626
 20
-6.19159
 11
15.3619
 21
-6.2309
  0
LINE
  8
0
 10
15.3619
 20
-6.2309
 11
15.4554
 21
-6.28232
  0
LINE
  8
0
 10
15.4554
 20
-6.28232
 11
15.5418
 21
-6.34506
  0
LINE
  8
0
 10
15.5418
 20
-6.34506
 11
15.6196
 21
-6.41812
  0
LINE
  8
0
 10
15.6196
 20
-6.41812
 11
15.6877
 21
-6.50038
  0
LINE
  8
0
 10
15.6877
 20
-6.50038
 11
15.7449
 21
-6.5905
  0
LINE
  8
0
 10
15.7449
 20
-6.5905
 11
15.7903
 21
-6.68709
  0
LINE
  8
0
 10
15.7903
 20
-6.68709
 11
15.8233
 21
-6.7886
  0
LINE
  8
0
 10
15.8233
 20
-6.7886
 11
15.8433
 21
-6.89346
  0
LINE
  8
0
 10
15.8433
 20
-6.89346
 11
15.85
 21
-7
  0
LINE
  8
0
 10
15.85
 20
-7
 11
15.8433
 21
-7.10652
  0
LINE
  8
0
 10
15.8433
 20
-7.10652
 11
15.8233
 21
-7.21138
  0
LINE
  8
0
 10
15.8233
 20
-7.21138
 11
15.7903
 21
-7.3129
  0
LINE
  8
0
 10
15.7903
 20
-7.3129
 11
15.7449
 21
-7.40948
  0
LINE
  8
0
 10
15.7449
 20
-7.40948
 11
15.6877
 21
-7.4996
  0
LINE
  8
0
 10
15.6877
 20
-7.4996
 11
15.6196
 21
-7.58186
  0
LINE
  8
0
 10
15.6196
 20
-7.58186
 11
15.5418
 21
-7.65492
  0
LINE
  8
0
 10
15.5418
 20
-7.65492
 11
15.4554
 21
-7.71767
  0
LINE
  8
0
 10
15.4554
 20
-7.71767
 11
15.3619
 21
-7.76909
  0
LINE
  8
0
 10
15.3619
 20
-7.76909
 11
15.2626
 21
-7.8084
  0
LINE
  8
0
 10
15.2626
 20
-7.8084
 11
15.1593
 21
-7.83493
  0
LINE
  8
0
 10
15.1593
 20
-7.83493
 11
15.0534
 21
-7.84831
  0
LINE
  8
0
 10
15.0534
 20
-7.84831
 11
14.9466
 21
-7.84831
  0
LINE
  8
0
 10
-15.0314
 20
-7.49901
 11
-15.0937
 21
-7.49113
  0
LINE
  8
0
 10
-15.0937
 20
-7.49113
 11
-15.1545
 21
-7.47552
  0
LINE
  8
0
 10
-15.1545
 20
-7.47552
 11
-15.2129
 21
-7.45241
  0
LINE
  8
0
 10
-15.2129
 20
-7.45241
 11
-15.2679
 21
-7.42215
  0
LINE
  8
0
 10
-15.2679
 20
-7.42215
 11
-15.3187
 21
-7.38525
  0
LINE
  8
0
 10
-15.3187
 20
-7.38525
 11
-15.3645
 21
-7.34227
  0
LINE
  8
0
 10
-15.3645
 20
-7.34227
 11
-15.4045
 21
-7.29388
  0
LINE
  8
0
 10
-15.4045
 20
-7.29388
 11
-15.4381
 21
-7.24088
  0
LINE
  8
0
 10
-15.4381
 20
-7.24088
 11
-15.4649
 21
-7.18405
  0
LINE
  8
0
 10
-15.4649
 20
-7.18405
 11
-15.4843
 21
-7.12434
  0
LINE
  8
0
 10
-15.4843
 20
-7.12434
 11
-15.496
 21
-7.06265
  0
LINE
  8
0
 10
-15.496
 20
-7.06265
 11
-15.5
 21
-7
  0
LINE
  8
0
 10
-15.5
 20
-7
 11
-15.496
 21
-6.93733
  0
LINE
  8
0
 10
-15.496
 20
-6.93733
 11
-15.4843
 21
-6.87564
  0
LINE
  8
0
 10
-15.4843
 20
-6.87564
 11
-15.4649
 21
-6.81593
  0
LINE
  8
0
 10
-15.4649
 20
-6.81593
 11
-15.4381
 21
-6.75911
  0
LINE
  8
0
 10
-15.4381
 20
-6.75911
 11
-15.4045
 21
-6.7061
  0
LINE
  8
0
 10
-15.4045
 20
-6.7061
 11
-15.3645
 21
-6.65771
  0
LINE
  8
0
 10
-15.3645
 20
-6.65771
 11
-15.3187
 21
-6.61473
  0
LINE
  8
0
 10
-15.3187
 20
-6.61473
 11
-15.2679
 21
-6.57784
  0
LINE
  8
0
 10
-15.2679
 20
-6.57784
 11
-15.2129
 21
-6.54758
  0
LINE
  8
0
 10
-15.2129
 20
-6.54758
 11
-15.1545
 21
-6.52446
  0
LINE
  8
0
 10
-15.1545
 20
-6.52446
 11
-15.0937
 21
-6.50885
  0
LINE
  8
0
 10
-15.0937
 20
-6.50885
 11
-15.0314
 21
-6.50098
  0
LINE
  8
0
 10
-15.0314
 20
-6.50098
 11
-14.9686
 21
-6.50098
  0
LINE
  8
0
 10
-14.9686
 20
-6.50098
 11
-14.9063
 21
-6.50885
  0
LINE
  8
0
 10
-14.9063
 20
-6.50885
 11
-14.8455
 21
-6.52446
  0
LINE
  8
0
 10
-14.8455
 20
-6.52446
 11
-14.7871
 21
-6.54758
  0
LINE
  8
0
 10
-14.7871
 20
-6.54758
 11
-14.7321
 21
-6.57784
  0
LINE
  8
0
 10
-14.7321
 20
-6.57784
 11
-14.6813
 21
-6.61473
  0
LINE
  8
0
 10
-14.6813
 20
-6.61473
 11
-14.6355
 21
-6.65771
  0
LINE
  8
0
 10
-14.6355
 20
-6.65771
 11
-14.5955
 21
-6.7061
  0
LINE
  8
0
 10
-14.5955
 20
-6.7061
 11
-14.5618
 21
-6.75911
  0
LINE
  8
0
 10
-14.5618
 20
-6.75911
 11
-14.5351
 21
-6.81593
  0
LINE
  8
0
 10
-14.5351
 20
-6.81593
 11
-14.5157
 21
-6.87564
  0
LINE
  8
0
 10
-14.5157
 20
-6.87564
 11
-14.5039
 21
-6.93733
  0
LINE
  8
0
 10
-14.5039
 20
-6.93733
 11
-14.5
 21
-7
  0
LINE
  8
0
 10
-14.5
 20
-7
 11
-14.5039
 21
-7.06265
  0
LINE
  8
0
 10
-14.5039
 20
-7.06265
 11
-14.5157
 21
-7.12434
  0
LINE
  8
0
 10
-14.5157
 20
-7.12434
 11
-14.5351
 21
-7.18405
  0
LINE
  8
0
 10
-14.5351
 20
-7.18405
 11
-14.5618
 21
-7.24088
  0
LINE
  8
0
 10
-14.5618
 20
-7.24088
 11
-14.5955
 21
-7.29388
  0
LINE
  8
0
 10
-14.5955
 20
-7.29388
 11
-14.6355
 21
-7.34227
  0
LINE
  8
0
 10
-14.6355
 20
-7.34227
 11
-14.6813
 21
-7.38525
  0
LINE
  8
0
 10
-14.6813
 20
-7.38525
 11
-14.7321
 21
-7.42215
  0
LINE
  8
0
 10
-14.7321
 20
-7.42215
 11
-14.7871
 21
-7.45241
  0
LINE
  8
0
 10
-14.7871
 20
-7.45241
 11
-14.8455
 21
-7.47552
  0
LINE
  8
0
 10
-14.8455
 20
-7.47552
 11
-14.9063
 21
-7.49113
  0
LINE
  8
0
 10
-14.9063
 20
-7.49113
 11
-14.9686
 21
-7.49901
  0
LINE
  8
0
 10
-14.9686
 20
-7.49901
 11
-15.0314
 21
-7.49901
  0
LINE
  8
0
 10
-30.1884
 20
-17.9941
 11
-30.5621
 21
-17.9469
  0
LINE
  8
0
 10
-30.5621
 20
-17.9469
 11
-30.927
 21
-17.8532
  0
LINE
  8
0
 10
-30.927
 20
-17.8532
 11
-31.2773
 21
-17.7145
  0
LINE
  8
0
 10
-31.2773
 20
-17.7145
 11
-31.6075
 21
-17.533
  0
LINE
  8
0
 10
-31.6075
 20
-17.533
 11
-31.9123
 21
-17.3115
  0
LINE
  8
0
 10
-31.9123
 20
-17.3115
 11
-32.1869
 21
-17.0536
  0
LINE
  8
0
 10
-32.1869
 20
-17.0536
 11
-32.427
 21
-16.7634
  0
LINE
  8
0
 10
-32.427
 20
-16.7634
 11
-32.6289
 21
-16.4453
  0
LINE
  8
0
 10
-32.6289
 20
-16.4453
 11
-32.7893
 21
-16.1044
  0
LINE
  8
0
 10
-32.7893
 20
-16.1044
 11
-32.9057
 21
-15.7461
  0
LINE
  8
0
 10
-32.9057
 20
-15.7461
 11
-32.9763
 21
-15.376
  0
LINE
  8
0
 10
-32.9763
 20
-15.376
 11
-33
 21
-15
  0
LINE
  8
0
 10
-33
 20
-15
 11
-32.9763
 21
-14.624
  0
LINE
  8
0
 10
-32.9763
 20
-14.624
 11
-32.9057
 21
-14.2539
  0
LINE
  8
0
 10
-32.9057
 20
-14.2539
 11
-32.7893
 21
-13.8956
  0
LINE
  8
0
 10
-32.7893
 20
-13.8956
 11
-32.6289
 21
-13.5547
  0
LINE
  8
0
 10
-32.6289
 20
-13.5547
 11
-32.427
 21
-13.2366
  0
LINE
  8
0
 10
-32.427
 20
-13.2366
 11
-32.1869
 21
-12.9464
  0
LINE
  8
0
 10
-32.1869
 20
-12.9464
 11
-31.9123
 21
-12.6884
  0
LINE
  8
0
 10
-31.9123
 20
-12.6884
 11
-31.6075
 21
-12.467
  0
LINE
  8
0
 10
-31.6075
 20
-12.467
 11
-31.2773
 21
-12.2855
  0
LINE
  8
0
 10
-31.2773
 20
-12.2855
 11
-30.927
 21
-12.1468
  0
LINE
  8
0
 10
-30.927
 20
-12.1468
 11
-30.5621
 21
-12.0531
  0
LINE
  8
0
 10
-30.5621
 20
-12.0531
 11
-30.1884
 21
-12.0059
  0
LINE
  8
0
 10
-30.1884
 20
-12.0059
 11
-29.8116
 21
-12.0059
  0
LINE
  8
0
 10
-29.8116
 20
-12.0059
 11
-29.4379
 21
-12.0531
  0
LINE
  8
0
 10
-29.4379
 20
-12.0531
 11
-29.0729
 21
-12.1468
  0
LINE
  8
0
 10
-29.0729
 20
-12.1468
 11
-28.7227
 21
-12.2855
  0
LINE
  8
0
 10
-28.7227
 20
-12.2855
 11
-28.3925
 21
-12.467
  0
LINE
  8
0
 10
-28.3925
 20
-12.467
 11
-28.0877
 21
-12.6884
  0
LINE
  8
0
 10
-28.0877
 20
-12.6884
 11
-27.8131
 21
-12.9464
  0
LINE
  8
0
 10
-27.8131
 20
-12.9464
 11
-27.5729
 21
-13.2366
  0
LINE
  8
0
 10
-27.5729
 20
-13.2366
 11
-27.3711
 21
-13.5547
  0
LINE
  8
0
 10
-27.3711
 20
-13.5547
 11
-27.2107
 21
-13.8956
  0
LINE
  8
0
 10
-27.2107
 20
-13.8956
 11
-27.0942
 21
-14.2539
  0
LINE
  8
0
 10
-27.0942
 20
-14.2539
 11
-27.0237
 21
-14.624
  0
LINE
  8
0
 10
-27.0237
 20
-14.624
 11
-27
 21
-15
  0
LINE
  8
0
 10
-27
 20
-15
 11
-27.0237
 21
-15.376
  0
LINE
  8
0
 10
-27.0237
 20
-15.376
 11
-27.0942
 21
-15.7461
  0
LINE
  8
0
 10
-27.0942
 20
-15.7461
 11
-27.2107
 21
-16.1044
  0
LINE
  8
0
 10
-27.2107
 20
-16.1044
 11
-27.3711
 21
-16.4453
  0
LINE
  8
0
 10
-27.3711
 20
-16.4453
 11
-27.5729
 21
-16.7634
  0
LINE
  8
0
 10
-27.5729
 20
-16.7634
 11
-27.8131
 21
-17.0536
  0
LINE
  8
0
 10
-27.8131
 20
-17.0536
 11
-28.0877
 21
-17.3115
  0
LINE
  8
0
 10
-28.0877
 20
-17.3115
 11
-28.3925
 21
-17.533
  0
LINE
  8
0
 10
-28.3925
 20
-17.533
 11
-28.7227
 21
-17.7145
  0
LINE
  8
0
 10
-28.7227
 20
-17.7145
 11
-29.0729
 21
-17.8532
  0
LINE
  8
0
 10
-29.0729
 20
-17.8532
 11
-29.4379
 21
-17.9469
  0
LINE
  8
0
 10
-29.4379
 20
-17.9469
 11
-29.8116
 21
-17.9941
  0
LINE
  8
0
 10
-29.8116
 20
-17.9941
 11
-30.1884
 21
-17.9941
  0
LINE
  8
0
 10
-0.18837
 20
-17.9941
 11
-0.562134
 21
-17.9469
  0
LINE
  8
0
 10
-0.562134
 20
-17.9469
 11
-0.927048
 21
-17.8532
  0
LINE
  8
0
 10
-0.927048
 20
-17.8532
 11
-1.27733
 21
-17.7145
  0
LINE
  8
0
 10
-1.27733
 20
-17.7145
 11
-1.60747
 21
-17.533
  0
LINE
  8
0
 10
-1.60747
 20
-17.533
 11
-1.91226
 21
-17.3115
  0
LINE
  8
0
 10
-1.91226
 20
-17.3115
 11
-2.1869
 21
-17.0536
  0
LINE
  8
0
 10
-2.1869
 20
-17.0536
 11
-2.42705
 21
-16.7634
  0
LINE
  8
0
 10
-2.42705
 20
-16.7634
 11
-2.62891
 21
-16.4453
  0
LINE
  8
0
 10
-2.62891
 20
-16.4453
 11
-2.78932
 21
-16.1044
  0
LINE
  8
0
 10
-2.78932
 20
-16.1044
 11
-2.90575
 21
-15.7461
  0
LINE
  8
0
 10
-2.90575
 20
-15.7461
 11
-2.97633
 21
-15.376
  0
LINE
  8
0
 10
-2.97633
 20
-15.376
 11
-3
 21
-15
  0
LINE
  8
0
 10
-3
 20
-15
 11
-2.97633
 21
-14.624
  0
LINE
  8
0
 10
-2.97633
 20
-14.624
 11
-2.90575
 21
-14.2539
  0
LINE
  8
0
 10
-2.90575
 20
-14.2539
 11
-2.78932
 21
-13.8956
  0
LINE
  8
0
 10
-2.78932
 20
-13.8956
 11
-2.62891
 21
-13.5547
  0
LINE
  8
0
 10
-2.62891
 20
-13.5547
 11
-2.42705
 21
-13.2366
  0
LINE
  8
0
 10
-2.42705
 20
-13.2366
 11
-2.1869
 21
-12.9464
  0
LINE
  8
0
 10
-2.1869
 20
-12.9464
 11
-1.91226
 21
-12.6884
  0
LINE
  8
0
 10
-1.91226
 20
-12.6884
 11
-1.60747
 21
-12.467
  0
LINE
  8
0
 10
-1.60747
 20
-12.467
 11
-1.27733
 21
-12.2855
  0
LINE
  8
0
 10
-1.27733
 20
-12.2855
 11
-0.927048
 21
-12.1468
  0
LINE
  8
0
 10
-0.927048
 20
-12.1468
 11
-0.562134
 21
-12.0531
  0
LINE
  8
0
 10
-0.562134
 20
-12.0531
 11
-0.18837
 21
-12.0059
  0
LINE
  8
0
 10
-0.18837
 20
-12.0059
 11
0.18837
 21
-12.0059
  0
LINE
  8
0
 10
0.18837
 20
-12.0059
 11
0.562134
 21
-12.0531
  0
LINE
  8
0
 10
0.562134
 20
-12.0531
 11
0.927048
 21
-12.1468
  0
LINE
  8
0
 10
0.927048
 20
-12.1468
 11
1.27733
 21
-12.2855
  0
LINE
  8
0
 10
1.27733
 20
-12.2855
 11
1.60747
 21
-12.467
  0
LINE
  8
0
 10
1.60747
 20
-12.467
 11
1.91226
 21
-12.6884
  0
LINE
  8
0
 10
1.91226
 20
-12.6884
 11
2.1869
 21
-12.9464
  0
LINE
  8
0
 10
2.1869
 20
-12.9464
 11
2.42705
 21
-13.2366
  0
LINE
  8
0
 10
2.42705
 20
-13.2366
 11
2.62891
 21
-13.5547
  0
LINE
  8
0
 10
2.62891
 20
-13.5547
 11
2.78932
 21
-13.8956
  0
LINE
  8
0
 10
2.78932
 20
-13.8956
 11
2.90575
 21
-14.2539
  0
LINE
  8
0
 10
2.90575
 20
-14.2539
 11
2.97633
 21
-14.624
  0
LINE
  8
0
 10
2.97633
 20
-14.624
 11
3
 21
-15
  0
LINE
  8
0
 10
3
 20
-15
 11
2.97633
 21
-15.376
  0
LINE
  8
0
 10
2.97633
 20
-15.376
 11
2.90575
 21
-15.7461
  0
LINE
  8
0
 10
2.90575
 20
-15.7461
 11
2.78932
 21
-16.1044
  0
LINE
  8
0
 10
2.78932
 20
-16.1044
 11
2.62891
 21
-16.4453
  0
LINE
  8
0
 10
2.62891
 20
-16.4453
 11
2.42705
 21
-16.7634
  0
LINE
  8
0
 10
2.42705
 20
-16.7634
 11
2.1869
 21
-17.0536
  0
LINE
  8
0
 10
2.1869
 20
-17.0536
 11
1.91226
 21
-17.3115
  0
LINE
  8
0
 10
1.91226
 20
-17.3115
 11
1.60747
 21
-17.533
  0
LINE
  8
0
 10
1.60747
 20
-17.533
 11
1.27733
 21
-17.7145
  0
LINE
  8
0
 10
1.27733
 20
-17.7145
 11
0.927048
 21
-17.8532
  0
LINE
  8
0
 10
0.927048
 20
-17.8532
 11
0.562134
 21
-17.9469
  0
LINE
  8
0
 10
0.562134
 20
-17.9469
 11
0.18837
 21
-17.9941
  0
LINE
  8
0
 10
0.18837
 20
-17.9941
 11
-0.18837
 21
-17.9941
  0
LINE
  8
0
 10
-15.1884
 20
-17.9941
 11
-15.5621
 21
-17.9469
  0
LINE
  8
0
 10
-15.5621
 20
-17.9469
 11
-15.927
 21
-17.8532
  0
LINE
  8
0
 10
-15.927
 20
-17.8532
 11
-16.2773
 21
-17.7145
  0
LINE
  8
0
 10
-16.2773
 20
-17.7145
 11
-16.6075
 21
-17.533
  0
LINE
  8
0
 10
-16.6075
 20
-17.533
 11
-16.9123
 21
-17.3115
  0
LINE
  8
0
 10
-16.9123
 20
-17.3115
 11
-17.1869
 21
-17.0536
  0
LINE
  8
0
 10
-17.1869
 20
-17.0536
 11
-17.427
 21
-16.7634
  0
LINE
  8
0
 10
-17.427
 20
-16.7634
 11
-17.6289
 21
-16.4453
  0
LINE
  8
0
 10
-17.6289
 20
-16.4453
 11
-17.7893
 21
-16.1044
  0
LINE
  8
0
 10
-17.7893
 20
-16.1044
 11
-17.9057
 21
-15.7461
  0
LINE
  8
0
 10
-17.9057
 20
-15.7461
 11
-17.9763
 21
-15.376
  0
LINE
  8
0
 10
-17.9763
 20
-15.376
 11
-18
 21
-15
  0
LINE
  8
0
 10
-18
 20
-15
 11
-17.9763
 21
-14.624
  0
LINE
  8
0
 10
-17.9763
 20
-14.624
 11
-17.9057
 21
-14.2539
  0
LINE
  8
0
 10
-17.9057
 20
-14.2539
 11
-17.7893
 21
-13.8956
  0
LINE
  8
0
 10
-17.7893
 20
-13.8956
 11
-17.6289
 21
-13.5547
  0
LINE
  8
0
 10
-17.6289
 20
-13.5547
 11
-17.427
 21
-13.2366
  0
LINE
  8
0
 10
-17.427
 20
-13.2366
 11
-17.1869
 21
-12.9464
  0
LINE
  8
0
 10
-17.1869
 20
-12.9464
 11
-16.9123
 21
-12.6884
  0
LINE
  8
0
 10
-16.9123
 20
-12.6884
 11
-16.6075
 21
-12.467
  0
LINE
  8
0
 10
-16.6075
 20
-12.467
 11
-16.2773
 21
-12.2855
  0
LINE
  8
0
 10
-16.2773
 20
-12.2855
 11
-15.927
 21
-12.1468
  0
LINE
  8
0
 10
-15.927
 20
-12.1468
 11
-15.5621
 21
-12.0531
  0
LINE
  8
0
 10
-15.5621
 20
-12.0531
 11
-15.1884
 21
-12.0059
  0
LINE
  8
0
 10
-15.1884
 20
-12.0059
 11
-14.8116
 21
-12.0059
  0
LINE
  8
0
 10
-14.8116
 20
-12.0059
 11
-14.4379
 21
-12.0531
  0
LINE
  8
0
 10
-14.4379
 20
-12.0531
 11
-14.0729
 21
-12.1468
  0
LINE
  8
0
 10
-14.0729
 20
-12.1468
 11
-13.7227
 21
-12.2855
  0
LINE
  8
0
 10
-13.7227
 20
-12.2855
 11
-13.3925
 21
-12.467
  0
LINE
  8
0
 10
-13.3925
 20
-12.467
 11
-13.0877
 21
-12.6884
  0
LINE
  8
0
 10
-13.0877
 20
-12.6884
 11
-12.8131
 21
-12.9464
  0
LINE
  8
0
 10
-12.8131
 20
-12.9464
 11
-12.5729
 21
-13.2366
  0
LINE
  8
0
 10
-12.5729
 20
-13.2366
 11
-12.3711
 21
-13.5547
  0
LINE
  8
0
 10
-12.3711
 20
-13.5547
 11
-12.2107
 21
-13.8956
  0
LINE
  8
0
 10
-12.2107
 20
-13.8956
 11
-12.0942
 21
-14.2539
  0
LINE
  8
0
 10
-12.0942
 20
-14.2539
 11
-12.0237
 21
-14.624
  0
LINE
  8
0
 10
-12.0237
 20
-14.624
 11
-12
 21
-15
  0
LINE
  8
0
 10
-12
 20
-15
 11
-12.0237
 21
-15.376
  0
LINE
  8
0
 10
-12.0237
 20
-15.376
 11
-12.0942
 21
-15.7461
  0
LINE
  8
0
 10
-12.0942
 20
-15.7461
 11
-12.2107
 21
-16.1044
  0
LINE
  8
0
 10
-12.2107
 20
-16.1044
 11
-12.3711
 21
-16.4453
  0
LINE
  8
0
 10
-12.3711
 20
-16.4453
 11
-12.5729
 21
-16.7634
  0
LINE
  8
0
 10
-12.5729
 20
-16.7634
 11
-12.8131
 21
-17.0536
  0
LINE
  8
0
 10
-12.8131
 20
-17.0536
 11
-13.0877
 21
-17.3115
  0
LINE
  8
0
 10
-13.0877
 20
-17.3115
 11
-13.3925
 21
-17.533
  0
LINE
  8
0
 10
-13.3925
 20
-17.533
 11
-13.7227
 21
-17.7145
  0
LINE
  8
0
 10
-13.7227
 20
-17.7145
 11
-14.0729
 21
-17.8532
  0
LINE
  8
0
 10
-14.0729
 20
-17.8532
 11
-14.4379
 21
-17.9469
  0
LINE
  8
0
 10
-14.4379
 20
-17.9469
 11
-14.8116
 21
-17.9941
  0
LINE
  8
0
 10
-14.8116
 20
-17.9941
 11
-15.1884
 21
-17.9941
  0
LINE
  8
0
 10
14.8116
 20
-17.9941
 11
14.4379
 21
-17.9469
  0
LINE
  8
0
 10
14.4379
 20
-17.9469
 11
14.0729
 21
-17.8532
  0
LINE
  8
0
 10
14.0729
 20
-17.8532
 11
13.7227
 21
-17.7145
  0
LINE
  8
0
 10
13.7227
 20
-17.7145
 11
13.3925
 21
-17.533
  0
LINE
  8
0
 10
13.3925
 20
-17.533
 11
13.0877
 21
-17.3115
  0
LINE
  8
0
 10
13.0877
 20
-17.3115
 11
12.8131
 21
-17.0536
  0
LINE
  8
0
 10
12.8131
 20
-17.0536
 11
12.5729
 21
-16.7634
  0
LINE
  8
0
 10
12.5729
 20
-16.7634
 11
12.3711
 21
-16.4453
  0
LINE
  8
0
 10
12.3711
 20
-16.4453
 11
12.2107
 21
-16.1044
  0
LINE
  8
0
 10
12.2107
 20
-16.1044
 11
12.0942
 21
-15.7461
  0
LINE
  8
0
 10
12.0942
 20
-15.7461
 11
12.0237
 21
-15.376
  0
LINE
  8
0
 10
12.0237
 20
-15.376
 11
12
 21
-15
  0
LINE
  8
0
 10
12
 20
-15
 11
12.0237
 21
-14.624
  0
LINE
  8
0
 10
12.0237
 20
-14.624
 11
12.0942
 21
-14.2539
  0
LINE
  8
0
 10
12.0942
 20
-14.2539
 11
12.2107
 21
-13.8956
  0
LINE
  8
0
 10
12.2107
 20
-13.8956
 11
12.3711
 21
-13.5547
  0
LINE
  8
0
 10
12.3711
 20
-13.5547
 11
12.5729
 21
-13.2366
  0
LINE
  8
0
 10
12.5729
 20
-13.2366
 11
12.8131
 21
-12.9464
  0
LINE
  8
0
 10
12.8131
 20
-12.9464
 11
13.0877
 21
-12.6884
  0
LINE
  8
0
 10
13.0877
 20
-12.6884
 11
13.3925
 21
-12.467
  0
LINE
  8
0
 10
13.3925
 20
-12.467
 11
13.7227
 21
-12.2855
  0
LINE
  8
0
 10
13.7227
 20
-12.2855
 11
14.0729
 21
-12.1468
  0
LINE
  8
0
 10
14.0729
 20
-12.1468
 11
14.4379
 21
-12.0531
  0
LINE
  8
0
 10
14.4379
 20
-12.0531
 11
14.8116
 21
-12.0059
  0
LINE
  8
0
 10
14.8116
 20
-12.0059
 11
15.1884
 21
-12.0059
  0
LINE
  8
0
 10
15.1884
 20
-12.0059
 11
15.5621
 21
-12.0531
  0
LINE
  8
0
 10
15.5621
 20
-12.0531
 11
15.927
 21
-12.1468
  0
LINE
  8
0
 10
15.927
 20
-12.1468
 11
16.2773
 21
-12.2855
  0
LINE
  8
0
 10
16.2773
 20
-12.2855
 11
16.6075
 21
-12.467
  0
LINE
  8
0
 10
16.6075
 20
-12.467
 11
16.9123
 21
-12.6884
  0
LINE
  8
0
 10
16.9123
 20
-12.6884
 11
17.1869
 21
-12.9464
  0
LINE
  8
0
 10
17.1869
 20
-12.9464
 11
17.427
 21
-13.2366
  0
LINE
  8
0
 10
17.427
 20
-13.2366
 11
17.6289
 21
-13.5547
  0
LINE
  8
0
 10
17.6289
 20
-13.5547
 11
17.7893
 21
-13.8956
  0
LINE
  8
0
 10
17.7893
 20
-13.8956
 11
17.9057
 21
-14.2539
  0
LINE
  8
0
 10
17.9057
 20
-14.2539
 11
17.9763
 21
-14.624
  0
LINE
  8
0
 10
17.9763
 20
-14.624
 11
18
 21
-15
  0
LINE
  8
0
 10
18
 20
-15
 11
17.9763
 21
-15.376
  0
LINE
  8
0
 10
17.9763
 20
-15.376
 11
17.9057
 21
-15.7461
  0
LINE
  8
0
 10
17.9057
 20
-15.7461
 11
17.7893
 21
-16.1044
  0
LINE
  8
0
 10
17.7893
 20
-16.1044
 11
17.6289
 21
-16.4453
  0
LINE
  8
0
 10
17.6289
 20
-16.4453
 11
17.427
 21
-16.7634
  0
LINE
  8
0
 10
17.427
 20
-16.7634
 11
17.1869
 21
-17.0536
  0
LINE
  8
0
 10
17.1869
 20
-17.0536
 11
16.9123
 21
-17.3115
  0
LINE
  8
0
 10
16.9123
 20
-17.3115
 11
16.6075
 21
-17.533
  0
LINE
  8
0
 10
16.6075
 20
-17.533
 11
16.2773
 21
-17.7145
  0
LINE
  8
0
 10
16.2773
 20
-17.7145
 11
15.927
 21
-17.8532
  0
LINE
  8
0
 10
15.927
 20
-17.8532
 11
15.5621
 21
-17.9469
  0
LINE
  8
0
 10
15.5621
 20
-17.9469
 11
15.1884
 21
-17.9941
  0
LINE
  8
0
 10
15.1884
 20
-17.9941
 11
14.8116
 21
-17.9941
  0
LINE
  8
0
 10
29.8116
 20
-17.9941
 11
29.4379
 21
-17.9469
  0
LINE
  8
0
 10
29.4379
 20
-17.9469
 11
29.0729
 21
-17.8532
  0
LINE
  8
0
 10
29.0729
 20
-17.8532
 11
28.7227
 21
-17.7145
  0
LINE
  8
0
 10
28.7227
 20
-17.7145
 11
28.3925
 21
-17.533
  0
LINE
  8
0
 10
28.3925
 20
-17.533
 11
28.0877
 21
-17.3115
  0
LINE
  8
0
 10
28.0877
 20
-17.3115
 11
27.8131
 21
-17.0536
  0
LINE
  8
0
 10
27.8131
 20
-17.0536
 11
27.5729
 21
-16.7634
  0
LINE
  8
0
 10
27.5729
 20
-16.7634
 11
27.3711
 21
-16.4453
  0
LINE
  8
0
 10
27.3711
 20
-16.4453
 11
27.2107
 21
-16.1044
  0
LINE
  8
0
 10
27.2107
 20
-16.1044
 11
27.0942
 21
-15.7461
  0
LINE
  8
0
 10
27.0942
 20
-15.7461
 11
27.0237
 21
-15.376
  0
LINE
  8
0
 10
27.0237
 20
-15.376
 11
27
 21
-15
  0
LINE
  8
0
 10
27
 20
-15
 11
27.0237
 21
-14.624
  0
LINE
  8
0
 10
27.0237
 20
-14.624
 11
27.0942
 21
-14.2539
  0
LINE
  8
0
 10
27.0942
 20
-14.2539
 11
27.2107
 21
-13.8956
  0
LINE
  8
0
 10
27.2107
 20
-13.8956
 11
27.3711
 21
-13.5547
  0
LINE
  8
0
 10
27.3711
 20
-13.5547
 11
27.5729
 21
-13.2366
  0
LINE
  8
0
 10
27.5729
 20
-13.2366
 11
27.8131
 21
-12.9464
  0
LINE
  8
0
 10
27.8131
 20
-12.9464
 11
28.0877
 21
-12.6884
  0
LINE
  8
0
 10
28.0877
 20
-12.6884
 11
28.3925
 21
-12.467
  0
LINE
  8
0
 10
28.3925
 20
-12.467
 11
28.7227
 21
-12.2855
  0
LINE
  8
0
 10
28.7227
 20
-12.2855
 11
29.0729
 21
-12.1468
  0
LINE
  8
0
 10
29.0729
 20
-12.1468
 11
29.4379
 21
-12.0531
  0
LINE
  8
0
 10
29.4379
 20
-12.0531
 11
29.8116
 21
-12.0059
  0
LINE
  8
0
 10
29.8116
 20
-12.0059
 11
30.1884
 21
-12.0059
  0
LINE
  8
0
 10
30.1884
 20
-12.0059
 11
30.5621
 21
-12.0531
  0
LINE
  8
0
 10
30.5621
 20
-12.0531
 11
30.927
 21
-12.1468
  0
LINE
  8
0
 10
30.927
 20
-12.1468
 11
31.2773
 21
-12.2855
  0
LINE
  8
0
 10
31.2773
 20
-12.2855
 11
31.6075
 21
-12.467
  0
LINE
  8
0
 10
31.6075
 20
-12.467
 11
31.9123
 21
-12.6884
  0
LINE
  8
0
 10
31.9123
 20
-12.6884
 11
32.1869
 21
-12.9464
  0
LINE
  8
0
 10
32.1869
 20
-12.9464
 11
32.427
 21
-13.2366
  0
LINE
  8
0
 10
32.427
 20
-13.2366
 11
32.6289
 21
-13.5547
  0
LINE
  8
0
 10
32.6289
 20
-13.5547
 11
32.7893
 21
-13.8956
  0
LINE
  8
0
 10
32.7893
 20
-13.8956
 11
32.9057
 21
-14.2539
  0
LINE
  8
0
 10
32.9057
 20
-14.2539
 11
32.9763
 21
-14.624
  0
LINE
  8
0
 10
32.9763
 20
-14.624
 11
33
 21
-15
  0
LINE
  8
0
 10
33
 20
-15
 11
32.9763
 21
-15.376
  0
LINE
  8
0
 10
32.9763
 20
-15.376
 11
32.9057
 21
-15.7461
  0
LINE
  8
0
 10
32.9057
 20
-15.7461
 11
32.7893
 21
-16.1044
  0
LINE
  8
0
 10
32.7893
 20
-16.1044
 11
32.6289
 21
-16.4453
  0
LINE
  8
0
 10
32.6289
 20
-16.4453
 11
32.427
 21
-16.7634
  0
LINE
  8
0
 10
32.427
 20
-16.7634
 11
32.1869
 21
-17.0536
  0
LINE
  8
0
 10
32.1869
 20
-17.0536
 11
31.9123
 21
-17.3115
  0
LINE
  8
0
 10
31.9123
 20
-17.3115
 11
31.6075
 21
-17.533
  0
LINE
  8
0
 10
31.6075
 20
-17.533
 11
31.2773
 21
-17.7145
  0
LINE
  8
0
 10
31.2773
 20
-17.7145
 11
30.927
 21
-17.8532
  0
LINE
  8
0
 10
30.927
 20
-17.8532
 11
30.5621
 21
-17.9469
  0
LINE
  8
0
 10
30.5621
 20
-17.9469
 11
30.1884
 21
-17.9941
  0
LINE
  8
0
 10
30.1884
 20
-17.9941
 11
29.8116
 21
-17.9941
  0
LINE
  8
0
 10
5.91325
 20
-17.7483
 11
4.32651
 21
-15
  0
LINE
  8
0
 10
4.32651
 20
-15
 11
5.91325
 21
-12.2517
  0
LINE
  8
0
 10
5.91325
 20
-12.2517
 11
9.08675
 21
-12.2517
  0
LINE
  8
0
 10
9.08675
 20
-12.2517
 11
10.6735
 21
-15
  0
LINE
  8
0
 10
10.6735
 20
-15
 11
9.08675
 21
-17.7483
  0
LINE
  8
0
 10
9.08675
 20
-17.7483
 11
5.91325
 21
-17.7483
  0
LINE
  8
0
 10
-9.08675
 20
-17.7483
 11
-10.6735
 21
-15
  0
LINE
  8
0
 10
-10.6735
 20
-15
 11
-9.08675
 21
-12.2517
  0
LINE
  8
0
 10
-9.08675
 20
-12.2517
 11
-5.91325
 21
-12.2517
  0
LINE
  8
0
 10
-5.91325
 20
-12.2517
 11
-4.32651
 21
-15
  0
LINE
  8
0
 10
-4.32651
 20
-15
 11
-5.91325
 21
-17.7483
  0
LINE
  8
0
 10
-5.91325
 20
-17.7483
 11
-9.08675
 21
-17.7483
  0
LINE
  8
0
 10
-22.5942
 20
-16.497
 11
-22.7811
 21
-16.4734
  0
LINE
  8
0
 10
-22.7811
 20
-16.4734
 11
-22.9635
 21
-16.4266
  0
LINE
  8
0
 10
-22.9635
 20
-16.4266
 11
-23.1387
 21
-16.3572
  0
LINE
  8
0
 10
-23.1387
 20
-16.3572
 11
-23.3037
 21
-16.2665
  0
LINE
  8
0
 10
-23.3037
 20
-16.2665
 11
-23.4561
 21
-16.1558
  0
LINE
  8
0
 10
-23.4561
 20
-16.1558
 11
-23.5934
 21
-16.0268
  0
LINE
  8
0
 10
-23.5934
 20
-16.0268
 11
-23.7135
 21
-15.8817
  0
LINE
  8
0
 10
-23.7135
 20
-15.8817
 11
-23.8145
 21
-15.7226
  0
LINE
  8
0
 10
-23.8145
 20
-15.7226
 11
-23.8947
 21
-15.5522
  0
LINE
  8
0
 10
-23.8947
 20
-15.5522
 11
-23.9529
 21
-15.373
  0
LINE
  8
0
 10
-23.9529
 20
-15.373
 11
-23.9882
 21
-15.188
  0
LINE
  8
0
 10
-23.9882
 20
-15.188
 11
-24
 21
-15
  0
LINE
  8
0
 10
-24
 20
-15
 11
-23.9882
 21
-14.812
  0
LINE
  8
0
 10
-23.9882
 20
-14.812
 11
-23.9529
 21
-14.627
  0
LINE
  8
0
 10
-23.9529
 20
-14.627
 11
-23.8947
 21
-14.4478
  0
LINE
  8
0
 10
-23.8947
 20
-14.4478
 11
-23.8145
 21
-14.2774
  0
LINE
  8
0
 10
-23.8145
 20
-14.2774
 11
-23.7135
 21
-14.1183
  0
LINE
  8
0
 10
-23.7135
 20
-14.1183
 11
-23.5934
 21
-13.9732
  0
LINE
  8
0
 10
-23.5934
 20
-13.9732
 11
-23.4561
 21
-13.8442
  0
LINE
  8
0
 10
-23.4561
 20
-13.8442
 11
-23.3037
 21
-13.7335
  0
LINE
  8
0
 10
-23.3037
 20
-13.7335
 11
-23.1387
 21
-13.6427
  0
LINE
  8
0
 10
-23.1387
 20
-13.6427
 11
-22.9635
 21
-13.5734
  0
LINE
  8
0
 10
-22.9635
 20
-13.5734
 11
-22.7811
 21
-13.5266
  0
LINE
  8
0
 10
-22.7811
 20
-13.5266
 11
-22.5942
 21
-13.5029
  0
LINE
  8
0
 10
-22.5942
 20
-13.5029
 11
-22.4058
 21
-13.5029
  0
LINE
  8
0
 10
-22.4058
 20
-13.5029
 11
-22.2189
 21
-13.5266
  0
LINE
  8
0
 10
-22.2189
 20
-13.5266
 11
-22.0365
 21
-13.5734
  0
LINE
  8
0
 10
-22.0365
 20
-13.5734
 11
-21.8613
 21
-13.6427
  0
LINE
  8
0
 10
-21.8613
 20
-13.6427
 11
-21.6963
 21
-13.7335
  0
LINE
  8
0
 10
-21.6963
 20
-13.7335
 11
-21.5439
 21
-13.8442
  0
LINE
  8
0
 10
-21.5439
 20
-13.8442
 11
-21.4065
 21
-13.9732
  0
LINE
  8
0
 10
-21.4065
 20
-13.9732
 11
-21.2865
 21
-14.1183
  0
LINE
  8
0
 10
-21.2865
 20
-14.1183
 11
-21.1855
 21
-14.2774
  0
LINE
  8
0
 10
-21.1855
 20
-14.2774
 11
-21.1053
 21
-14.4478
  0
LINE
  8
0
 10
-21.1053
 20
-14.4478
 11
-21.0471
 21
-14.627
  0
LINE
  8
0
 10
-21.0471
 20
-14.627
 11
-21.0118
 21
-14.812
  0
LINE
  8
0
 10
-21.0118
 20
-14.812
 11
-21
 21
-15
  0
LINE
  8
0
 10
-21
 20
-15
 11
-21.0118
 21
-15.188
  0
LINE
  8
0
 10
-21.0118
 20
-15.188
 11
-21.0471
 21
-15.373
  0
LINE
  8
0
 10
-21.0471
 20
-15.373
 11
-21.1053
 21
-15.5522
  0
LINE
  8
0
 10
-21.1053
 20
-15.5522
 11
-21.1855
 21
-15.7226
  0
LINE
  8
0
 10
-21.1855
 20
-15.7226
 11
-21.2865
 21
-15.8817
  0
LINE
  8
0
 10
-21.2865
 20
-15.8817
 11
-21.4065
 21
-16.0268
  0
LINE
  8
0
 10
-21.4065
 20
-16.0268
 11
-21.5439
 21
-16.1558
  0
LINE
  8
0
 10
-21.5439
 20
-16.1558
 11
-21.6963
 21
-16.2665
  0
LINE
  8
0
 10
-21.6963
 20
-16.2665
 11
-21.8613
 21
-16.3572
  0
LINE
  8
0
 10
-21.8613
 20
-16.3572
 11
-22.0365
 21
-16.4266
  0
LINE
  8
0
 10
-22.0365
 20
-16.4266
 11
-22.2189
 21
-16.4734
  0
LINE
  8
0
 10
-22.2189
 20
-16.4734
 11
-22.4058
 21
-16.497
  0
LINE
  8
0
 10
-22.4058
 20
-16.497
 11
-22.5942
 21
-16.497
  0
LINE
  8
0
 10
22.4058
 20
-16.497
 11
22.2189
 21
-16.4734
  0
LINE
  8
0
 10
22.2189
 20
-16.4734
 11
22.0365
 21
-16.4266
  0
LINE
  8
0
 10
22.0365
 20
-16.4266
 11
21.8613
 21
-16.3572
  0
LINE
  8
0
 10
21.8613
 20
-16.3572
 11
21.6963
 21
-16.2665
  0
LINE
  8
0
 10
21.6963
 20
-16.2665
 11
21.5439
 21
-16.1558
  0
LINE
  8
0
 10
21.5439
 20
-16.1558
 11
21.4065
 21
-16.0268
  0
LINE
  8
0
 10
21.4065
 20
-16.0268
 11
21.2865
 21
-15.8817
  0
LINE
  8
0
 10
21.2865
 20
-15.8817
 11
21.1855
 21
-15.7226
  0
LINE
  8
0
 10
21.1855
 20
-15.7226
 11
21.1053
 21
-15.5522
  0
LINE
  8
0
 10
21.1053
 20
-15.5522
 11
21.0471
 21
-15.373
  0
LINE
  8
0
 10
21.0471
 20
-15.373
 11
21.0118
 21
-15.188
  0
LINE
  8
0
 10
21.0118
 20
-15.188
 11
21
 21
-15
  0
LINE
  8
0
 10
21
 20
-15
 11
21.0118
 21
-14.812
  0
LINE
  8
0
 10
21.0118
 20
-14.812
 11
21.0471
 21
-14.627
  0
LINE
  8
0
 10
21.0471
 20
-14.627
 11
21.1053
 21
-14.4478
  0
LINE
  8
0
 10
21.1053
 20
-14.4478
 11
21.1855
 21
-14.2774
  0
LINE
  8
0
 10
21.1855
 20
-14.2774
 11
21.2865
 21
-14.1183
  0
LINE
  8
0
 10
21.2865
 20
-14.1183
 11
21.4065
 21
-13.9732
  0
LINE
  8
0
 10
21.4065
 20
-13.9732
 11
21.5439
 21
-13.8442
  0
LINE
  8
0
 10
21.5439
 20
-13.8442
 11
21.6963
 21
-13.7335
  0
LINE
  8
0
 10
21.6963
 20
-13.7335
 11
21.8613
 21
-13.6427
  0
LINE
  8
0
 10
21.8613
 20
-13.6427
 11
22.0365
 21
-13.5734
  0
LINE
  8
0
 10
22.0365
 20
-13.5734
 11
22.2189
 21
-13.5266
  0
LINE
  8
0
 10
22.2189
 20
-13.5266
 11
22.4058
 21
-13.5029
  0
LINE
  8
0
 10
22.4058
 20
-13.5029
 11
22.5942
 21
-13.5029
  0
LINE
  8
0
 10
22.5942
 20
-13.5029
 11
22.7811
 21
-13.5266
  0
LINE
  8
0
 10
22.7811
 20
-13.5266
 11
22.9635
 21
-13.5734
  0
LINE
  8
0
 10
22.9635
 20
-13.5734
 11
23.1387
 21
-13.6427
  0
LINE
  8
0
 10
23.1387
 20
-13.6427
 11
23.3037
 21
-13.7335
  0
LINE
  8
0
 10
23.3037
 20
-13.7335
 11
23.4561
 21
-13.8442
  0
LINE
  8
0
 10
23.4561
 20
-13.8442
 11
23.5934
 21
-13.9732
  0
LINE
  8
0
 10
23.5934
 20
-13.9732
 11
23.7135
 21
-14.1183
  0
LINE
  8
0
 10
23.7135
 20
-14.1183
 11
23.8145
 21
-14.2774
  0
LINE
  8
0
 10
23.8145
 20
-14.2774
 11
23.8947
 21
-14.4478
  0
LINE
  8
0
 10
23.8947
 20
-14.4478
 11
23.9529
 21
-14.627
  0
LINE
  8
0
 10
23.9529
 20
-14.627
 11
23.9882
 21
-14.812
  0
LINE
  8
0
 10
23.9882
 20
-14.812
 11
24
 21
-15
  0
LINE
  8
0
 10
24
 20
-15
 11
23.9882
 21
-15.188
  0
LINE
  8
0
 10
23.9882
 20
-15.188
 11
23.9529
 21
-15.373
  0
LINE
  8
0
 10
23.9529
 20
-15.373
 11
23.8947
 21
-15.5522
  0
LINE
  8
0
 10
23.8947
 20
-15.5522
 11
23.8145
 21
-15.7226
  0
LINE
  8
0
 10
23.8145
 20
-15.7226
 11
23.7135
 21
-15.8817
  0
LINE
  8
0
 10
23.7135
 20
-15.8817
 11
23.5934
 21
-16.0268
  0
LINE
  8
0
 10
23.5934
 20
-16.0268
 11
23.4561
 21
-16.1558
  0
LINE
  8
0
 10
23.4561
 20
-16.1558
 11
23.3037
 21
-16.2665
  0
LINE
  8
0
 10
23.3037
 20
-16.2665
 11
23.1387
 21
-16.3572
  0
LINE
  8
0
 10
23.1387
 20
-16.3572
 11
22.9635
 21
-16.4266
  0
LINE
  8
0
 10
22.9635
 20
-16.4266
 11
22.7811
 21
-16.4734
  0
LINE
  8
0
 10
22.7811
 20
-16.4734
 11
22.5942
 21
-16.497
  0
LINE
  8
0
 10
22.5942
 20
-16.497
 11
22.4058
 21
-16.497
  0
ENDSEC
  0
SECTION
  2
OBJECTS
  0
DICTIONARY
  0
ENDSEC
  0
EOF
