  0
SECTION
  2
BLOCKS
  0
ENDSEC
  0
SECTION
  2
ENTITIES
  0
LINE
  8
0
 10
25.4369
 20
-21.9114
 11
26.0451
 21
-21.7553
  0
LINE
  8
0
 10
26.0451
 20
-21.7553
 11
26.6289
 21
-21.5241
  0
LINE
  8
0
 10
26.6289
 20
-21.5241
 11
27.1791
 21
-21.2216
  0
LINE
  8
0
 10
27.1791
 20
-21.2216
 11
27.6871
 21
-20.8526
  0
LINE
  8
0
 10
27.6871
 20
-20.8526
 11
28.1448
 21
-20.4227
  0
LINE
  8
0
 10
28.1448
 20
-20.4227
 11
28.5451
 21
-19.9389
  0
LINE
  8
0
 10
28.5451
 20
-19.9389
 11
28.8815
 21
-19.4088
  0
LINE
  8
0
 10
28.8815
 20
-19.4088
 11
29.1489
 21
-18.8406
  0
LINE
  8
0
 10
29.1489
 20
-18.8406
 11
29.3429
 21
-18.2434
  0
LINE
  8
0
 10
29.3429
 20
-18.2434
 11
29.4606
 21
-17.6267
  0
LINE
  8
0
 10
29.4606
 20
-17.6267
 11
29.5
 21
-17
  0
LINE
  8
0
 10
29.5
 20
-17
 11
29.5
 21
17
  0
LINE
  8
0
 10
29.5
 20
17
 11
29.4606
 21
17.6267
  0
LINE
  8
0
 10
29.4606
 20
17.6267
 11
29.3429
 21
18.2434
  0
LINE
  8
0
 10
29.3429
 20
18.2434
 11
29.1489
 21
18.8406
  0
LINE
  8
0
 10
29.1489
 20
18.8406
 11
28.8815
 21
19.4088
  0
LINE
  8
0
 10
28.8815
 20
19.4088
 11
28.5451
 21
19.9389
  0
LINE
  8
0
 10
28.5451
 20
19.9389
 11
28.1448
 21
20.4227
  0
LINE
  8
0
 10
28.1448
 20
20.4227
 11
27.6871
 21
20.8526
  0
LINE
  8
0
 10
27.6871
 20
20.8526
 11
27.1791
 21
21.2216
  0
LINE
  8
0
 10
27.1791
 20
21.2216
 11
26.6289
 21
21.5241
  0
LINE
  8
0
 10
26.6289
 20
21.5241
 11
26.0451
 21
21.7553
  0
LINE
  8
0
 10
26.0451
 20
21.7553
 11
25.4369
 21
21.9114
  0
LINE
  8
0
 10
25.4369
 20
21.9114
 11
24.8139
 21
21.9901
  0
LINE
  8
0
 10
24.8139
 20
21.9901
 11
-24.8139
 21
21.9901
  0
LINE
  8
0
 10
-24.8139
 20
21.9901
 11
-25.4369
 21
21.9114
  0
LINE
  8
0
 10
-25.4369
 20
21.9114
 11
-26.0451
 21
21.7553
  0
LINE
  8
0
 10
-26.0451
 20
21.7553
 11
-26.6289
 21
21.5241
  0
LINE
  8
0
 10
-26.6289
 20
21.5241
 11
-27.1791
 21
21.2216
  0
LINE
  8
0
 10
-27.1791
 20
21.2216
 11
-27.6871
 21
20.8526
  0
LINE
  8
0
 10
-27.6871
 20
20.8526
 11
-28.1448
 21
20.4227
  0
LINE
  8
0
 10
-28.1448
 20
20.4227
 11
-28.5451
 21
19.9389
  0
LINE
  8
0
 10
-28.5451
 20
19.9389
 11
-28.8815
 21
19.4088
  0
LINE
  8
0
 10
-28.8815
 20
19.4088
 11
-29.1489
 21
18.8406
  0
LINE
  8
0
 10
-29.1489
 20
18.8406
 11
-29.3429
 21
18.2434
  0
LINE
  8
0
 10
-29.3429
 20
18.2434
 11
-29.4606
 21
17.6267
  0
LINE
  8
0
 10
-29.4606
 20
17.6267
 11
-29.5
 21
17
  0
LINE
  8
0
 10
-29.5
 20
17
 11
-29.5
 21
-17
  0
LINE
  8
0
 10
-29.5
 20
-17
 11
-29.4606
 21
-17.6267
  0
LINE
  8
0
 10
-29.4606
 20
-17.6267
 11
-29.3429
 21
-18.2434
  0
LINE
  8
0
 10
-29.3429
 20
-18.2434
 11
-29.1489
 21
-18.8406
  0
LINE
  8
0
 10
-29.1489
 20
-18.8406
 11
-28.8815
 21
-19.4088
  0
LINE
  8
0
 10
-28.8815
 20
-19.4088
 11
-28.5451
 21
-19.9389
  0
LINE
  8
0
 10
-28.5451
 20
-19.9389
 11
-28.1448
 21
-20.4227
  0
LINE
  8
0
 10
-28.1448
 20
-20.4227
 11
-27.6871
 21
-20.8526
  0
LINE
  8
0
 10
-27.6871
 20
-20.8526
 11
-27.1791
 21
-21.2216
  0
LINE
  8
0
 10
-27.1791
 20
-21.2216
 11
-26.6289
 21
-21.5241
  0
LINE
  8
0
 10
-26.6289
 20
-21.5241
 11
-26.0451
 21
-21.7553
  0
LINE
  8
0
 10
-26.0451
 20
-21.7553
 11
-25.4369
 21
-21.9114
  0
LINE
  8
0
 10
-25.4369
 20
-21.9114
 11
-24.8139
 21
-21.9901
  0
LINE
  8
0
 10
-24.8139
 20
-21.9901
 11
24.8139
 21
-21.9901
  0
LINE
  8
0
 10
24.8139
 20
-21.9901
 11
25.4369
 21
-21.9114
  0
LINE
  8
0
 10
7.31161
 20
12.0059
 11
6.93785
 21
12.0531
  0
LINE
  8
0
 10
6.93785
 20
12.0531
 11
6.57294
 21
12.1468
  0
LINE
  8
0
 10
6.57294
 20
12.1468
 11
6.22266
 21
12.2855
  0
LINE
  8
0
 10
6.22266
 20
12.2855
 11
5.89252
 21
12.467
  0
LINE
  8
0
 10
5.89252
 20
12.467
 11
5.58772
 21
12.6884
  0
LINE
  8
0
 10
5.58772
 20
12.6884
 11
5.31308
 21
12.9464
  0
LINE
  8
0
 10
5.31308
 20
12.9464
 11
5.07294
 21
13.2366
  0
LINE
  8
0
 10
5.07294
 20
13.2366
 11
4.87108
 21
13.5547
  0
LINE
  8
0
 10
4.87108
 20
13.5547
 11
4.71066
 21
13.8956
  0
LINE
  8
0
 10
4.71066
 20
13.8956
 11
4.59424
 21
14.2539
  0
LINE
  8
0
 10
4.59424
 20
14.2539
 11
4.52365
 21
14.624
  0
LINE
  8
0
 10
4.52365
 20
14.624
 11
4.5
 21
15
  0
LINE
  8
0
 10
4.5
 20
15
 11
4.52365
 21
15.376
  0
LINE
  8
0
 10
4.52365
 20
15.376
 11
4.59424
 21
15.7461
  0
LINE
  8
0
 10
4.59424
 20
15.7461
 11
4.71066
 21
16.1044
  0
LINE
  8
0
 10
4.71066
 20
16.1044
 11
4.87108
 21
16.4453
  0
LINE
  8
0
 10
4.87108
 20
16.4453
 11
5.07294
 21
16.7634
  0
LINE
  8
0
 10
5.07294
 20
16.7634
 11
5.31308
 21
17.0536
  0
LINE
  8
0
 10
5.31308
 20
17.0536
 11
5.58772
 21
17.3115
  0
LINE
  8
0
 10
5.58772
 20
17.3115
 11
5.89252
 21
17.533
  0
LINE
  8
0
 10
5.89252
 20
17.533
 11
6.22266
 21
17.7145
  0
LINE
  8
0
 10
6.22266
 20
17.7145
 11
6.57294
 21
17.8532
  0
LINE
  8
0
 10
6.57294
 20
17.8532
 11
6.93785
 21
17.9469
  0
LINE
  8
0
 10
6.93785
 20
17.9469
 11
7.31161
 21
17.9941
  0
LINE
  8
0
 10
7.31161
 20
17.9941
 11
7.68837
 21
17.9941
  0
LINE
  8
0
 10
7.68837
 20
17.9941
 11
8.06213
 21
17.9469
  0
LINE
  8
0
 10
8.06213
 20
17.9469
 11
8.42705
 21
17.8532
  0
LINE
  8
0
 10
8.42705
 20
17.8532
 11
8.77733
 21
17.7145
  0
LINE
  8
0
 10
8.77733
 20
17.7145
 11
9.10747
 21
17.533
  0
LINE
  8
0
 10
9.10747
 20
17.533
 11
9.41226
 21
17.3115
  0
LINE
  8
0
 10
9.41226
 20
17.3115
 11
9.6869
 21
17.0536
  0
LINE
  8
0
 10
9.6869
 20
17.0536
 11
9.92705
 21
16.7634
  0
LINE
  8
0
 10
9.92705
 20
16.7634
 11
10.1289
 21
16.4453
  0
LINE
  8
0
 10
10.1289
 20
16.4453
 11
10.2893
 21
16.1044
  0
LINE
  8
0
 10
10.2893
 20
16.1044
 11
10.4057
 21
15.7461
  0
LINE
  8
0
 10
10.4057
 20
15.7461
 11
10.4763
 21
15.376
  0
LINE
  8
0
 10
10.4763
 20
15.376
 11
10.5
 21
15
  0
LINE
  8
0
 10
10.5
 20
15
 11
10.4763
 21
14.624
  0
LINE
  8
0
 10
10.4763
 20
14.624
 11
10.4057
 21
14.2539
  0
LINE
  8
0
 10
10.4057
 20
14.2539
 11
10.2893
 21
13.8956
  0
LINE
  8
0
 10
10.2893
 20
13.8956
 11
10.1289
 21
13.5547
  0
LINE
  8
0
 10
10.1289
 20
13.5547
 11
9.92705
 21
13.2366
  0
LINE
  8
0
 10
9.92705
 20
13.2366
 11
9.6869
 21
12.9464
  0
LINE
  8
0
 10
9.6869
 20
12.9464
 11
9.41226
 21
12.6884
  0
LINE
  8
0
 10
9.41226
 20
12.6884
 11
9.10747
 21
12.467
  0
LINE
  8
0
 10
9.10747
 20
12.467
 11
8.77733
 21
12.2855
  0
LINE
  8
0
 10
8.77733
 20
12.2855
 11
8.42705
 21
12.1468
  0
LINE
  8
0
 10
8.42705
 20
12.1468
 11
8.06213
 21
12.0531
  0
LINE
  8
0
 10
8.06213
 20
12.0531
 11
7.68837
 21
12.0059
  0
LINE
  8
0
 10
7.68837
 20
12.0059
 11
7.31161
 21
12.0059
  0
LINE
  8
0
 10
22.3116
 20
12.0059
 11
21.9379
 21
12.0531
  0
LINE
  8
0
 10
21.9379
 20
12.0531
 11
21.5729
 21
12.1468
  0
LINE
  8
0
 10
21.5729
 20
12.1468
 11
21.2227
 21
12.2855
  0
LINE
  8
0
 10
21.2227
 20
12.2855
 11
20.8925
 21
12.467
  0
LINE
  8
0
 10
20.8925
 20
12.467
 11
20.5877
 21
12.6884
  0
LINE
  8
0
 10
20.5877
 20
12.6884
 11
20.3131
 21
12.9464
  0
LINE
  8
0
 10
20.3131
 20
12.9464
 11
20.0729
 21
13.2366
  0
LINE
  8
0
 10
20.0729
 20
13.2366
 11
19.8711
 21
13.5547
  0
LINE
  8
0
 10
19.8711
 20
13.5547
 11
19.7107
 21
13.8956
  0
LINE
  8
0
 10
19.7107
 20
13.8956
 11
19.5942
 21
14.2539
  0
LINE
  8
0
 10
19.5942
 20
14.2539
 11
19.5237
 21
14.624
  0
LINE
  8
0
 10
19.5237
 20
14.624
 11
19.5
 21
15
  0
LINE
  8
0
 10
19.5
 20
15
 11
19.5237
 21
15.376
  0
LINE
  8
0
 10
19.5237
 20
15.376
 11
19.5942
 21
15.7461
  0
LINE
  8
0
 10
19.5942
 20
15.7461
 11
19.7107
 21
16.1044
  0
LINE
  8
0
 10
19.7107
 20
16.1044
 11
19.8711
 21
16.4453
  0
LINE
  8
0
 10
19.8711
 20
16.4453
 11
20.0729
 21
16.7634
  0
LINE
  8
0
 10
20.0729
 20
16.7634
 11
20.3131
 21
17.0536
  0
LINE
  8
0
 10
20.3131
 20
17.0536
 11
20.5877
 21
17.3115
  0
LINE
  8
0
 10
20.5877
 20
17.3115
 11
20.8925
 21
17.533
  0
LINE
  8
0
 10
20.8925
 20
17.533
 11
21.2227
 21
17.7145
  0
LINE
  8
0
 10
21.2227
 20
17.7145
 11
21.5729
 21
17.8532
  0
LINE
  8
0
 10
21.5729
 20
17.8532
 11
21.9379
 21
17.9469
  0
LINE
  8
0
 10
21.9379
 20
17.9469
 11
22.3116
 21
17.9941
  0
LINE
  8
0
 10
22.3116
 20
17.9941
 11
22.6884
 21
17.9941
  0
LINE
  8
0
 10
22.6884
 20
17.9941
 11
23.0621
 21
17.9469
  0
LINE
  8
0
 10
23.0621
 20
17.9469
 11
23.427
 21
17.8532
  0
LINE
  8
0
 10
23.427
 20
17.8532
 11
23.7773
 21
17.7145
  0
LINE
  8
0
 10
23.7773
 20
17.7145
 11
24.1075
 21
17.533
  0
LINE
  8
0
 10
24.1075
 20
17.533
 11
24.4123
 21
17.3115
  0
LINE
  8
0
 10
24.4123
 20
17.3115
 11
24.6869
 21
17.0536
  0
LINE
  8
0
 10
24.6869
 20
17.0536
 11
24.927
 21
16.7634
  0
LINE
  8
0
 10
24.927
 20
16.7634
 11
25.1289
 21
16.4453
  0
LINE
  8
0
 10
25.1289
 20
16.4453
 11
25.2893
 21
16.1044
  0
LINE
  8
0
 10
25.2893
 20
16.1044
 11
25.4057
 21
15.7461
  0
LINE
  8
0
 10
25.4057
 20
15.7461
 11
25.4763
 21
15.376
  0
LINE
  8
0
 10
25.4763
 20
15.376
 11
25.5
 21
15
  0
LINE
  8
0
 10
25.5
 20
15
 11
25.4763
 21
14.624
  0
LINE
  8
0
 10
25.4763
 20
14.624
 11
25.4057
 21
14.2539
  0
LINE
  8
0
 10
25.4057
 20
14.2539
 11
25.2893
 21
13.8956
  0
LINE
  8
0
 10
25.2893
 20
13.8956
 11
25.1289
 21
13.5547
  0
LINE
  8
0
 10
25.1289
 20
13.5547
 11
24.927
 21
13.2366
  0
LINE
  8
0
 10
24.927
 20
13.2366
 11
24.6869
 21
12.9464
  0
LINE
  8
0
 10
24.6869
 20
12.9464
 11
24.4123
 21
12.6884
  0
LINE
  8
0
 10
24.4123
 20
12.6884
 11
24.1075
 21
12.467
  0
LINE
  8
0
 10
24.1075
 20
12.467
 11
23.7773
 21
12.2855
  0
LINE
  8
0
 10
23.7773
 20
12.2855
 11
23.427
 21
12.1468
  0
LINE
  8
0
 10
23.427
 20
12.1468
 11
23.0621
 21
12.0531
  0
LINE
  8
0
 10
23.0621
 20
12.0531
 11
22.6884
 21
12.0059
  0
LINE
  8
0
 10
22.6884
 20
12.0059
 11
22.3116
 21
12.0059
  0
LINE
  8
0
 10
-7.68837
 20
12.0059
 11
-8.06213
 21
12.0531
  0
LINE
  8
0
 10
-8.06213
 20
12.0531
 11
-8.42705
 21
12.1468
  0
LINE
  8
0
 10
-8.42705
 20
12.1468
 11
-8.77733
 21
12.2855
  0
LINE
  8
0
 10
-8.77733
 20
12.2855
 11
-9.10747
 21
12.467
  0
LINE
  8
0
 10
-9.10747
 20
12.467
 11
-9.41226
 21
12.6884
  0
LINE
  8
0
 10
-9.41226
 20
12.6884
 11
-9.6869
 21
12.9464
  0
LINE
  8
0
 10
-9.6869
 20
12.9464
 11
-9.92705
 21
13.2366
  0
LINE
  8
0
 10
-9.92705
 20
13.2366
 11
-10.1289
 21
13.5547
  0
LINE
  8
0
 10
-10.1289
 20
13.5547
 11
-10.2893
 21
13.8956
  0
LINE
  8
0
 10
-10.2893
 20
13.8956
 11
-10.4057
 21
14.2539
  0
LINE
  8
0
 10
-10.4057
 20
14.2539
 11
-10.4763
 21
14.624
  0
LINE
  8
0
 10
-10.4763
 20
14.624
 11
-10.5
 21
15
  0
LINE
  8
0
 10
-10.5
 20
15
 11
-10.4763
 21
15.376
  0
LINE
  8
0
 10
-10.4763
 20
15.376
 11
-10.4057
 21
15.7461
  0
LINE
  8
0
 10
-10.4057
 20
15.7461
 11
-10.2893
 21
16.1044
  0
LINE
  8
0
 10
-10.2893
 20
16.1044
 11
-10.1289
 21
16.4453
  0
LINE
  8
0
 10
-10.1289
 20
16.4453
 11
-9.92705
 21
16.7634
  0
LINE
  8
0
 10
-9.92705
 20
16.7634
 11
-9.6869
 21
17.0536
  0
LINE
  8
0
 10
-9.6869
 20
17.0536
 11
-9.41226
 21
17.3115
  0
LINE
  8
0
 10
-9.41226
 20
17.3115
 11
-9.10747
 21
17.533
  0
LINE
  8
0
 10
-9.10747
 20
17.533
 11
-8.77733
 21
17.7145
  0
LINE
  8
0
 10
-8.77733
 20
17.7145
 11
-8.42705
 21
17.8532
  0
LINE
  8
0
 10
-8.42705
 20
17.8532
 11
-8.06213
 21
17.9469
  0
LINE
  8
0
 10
-8.06213
 20
17.9469
 11
-7.68837
 21
17.9941
  0
LINE
  8
0
 10
-7.68837
 20
17.9941
 11
-7.31161
 21
17.9941
  0
LINE
  8
0
 10
-7.31161
 20
17.9941
 11
-6.93785
 21
17.9469
  0
LINE
  8
0
 10
-6.93785
 20
17.9469
 11
-6.57294
 21
17.8532
  0
LINE
  8
0
 10
-6.57294
 20
17.8532
 11
-6.22266
 21
17.7145
  0
LINE
  8
0
 10
-6.22266
 20
17.7145
 11
-5.89252
 21
17.533
  0
LINE
  8
0
 10
-5.89252
 20
17.533
 11
-5.58772
 21
17.3115
  0
LINE
  8
0
 10
-5.58772
 20
17.3115
 11
-5.31308
 21
17.0536
  0
LINE
  8
0
 10
-5.31308
 20
17.0536
 11
-5.07294
 21
16.7634
  0
LINE
  8
0
 10
-5.07294
 20
16.7634
 11
-4.87108
 21
16.4453
  0
LINE
  8
0
 10
-4.87108
 20
16.4453
 11
-4.71066
 21
16.1044
  0
LINE
  8
0
 10
-4.71066
 20
16.1044
 11
-4.59424
 21
15.7461
  0
LINE
  8
0
 10
-4.59424
 20
15.7461
 11
-4.52365
 21
15.376
  0
LINE
  8
0
 10
-4.52365
 20
15.376
 11
-4.5
 21
15
  0
LINE
  8
0
 10
-4.5
 20
15
 11
-4.52365
 21
14.624
  0
LINE
  8
0
 10
-4.52365
 20
14.624
 11
-4.59424
 21
14.2539
  0
LINE
  8
0
 10
-4.59424
 20
14.2539
 11
-4.71066
 21
13.8956
  0
LINE
  8
0
 10
-4.71066
 20
13.8956
 11
-4.87108
 21
13.5547
  0
LINE
  8
0
 10
-4.87108
 20
13.5547
 11
-5.07294
 21
13.2366
  0
LINE
  8
0
 10
-5.07294
 20
13.2366
 11
-5.31308
 21
12.9464
  0
LINE
  8
0
 10
-5.31308
 20
12.9464
 11
-5.58772
 21
12.6884
  0
LINE
  8
0
 10
-5.58772
 20
12.6884
 11
-5.89252
 21
12.467
  0
LINE
  8
0
 10
-5.89252
 20
12.467
 11
-6.22266
 21
12.2855
  0
LINE
  8
0
 10
-6.22266
 20
12.2855
 11
-6.57294
 21
12.1468
  0
LINE
  8
0
 10
-6.57294
 20
12.1468
 11
-6.93785
 21
12.0531
  0
LINE
  8
0
 10
-6.93785
 20
12.0531
 11
-7.31161
 21
12.0059
  0
LINE
  8
0
 10
-7.31161
 20
12.0059
 11
-7.68837
 21
12.0059
  0
LINE
  8
0
 10
-22.6884
 20
12.0059
 11
-23.0621
 21
12.0531
  0
LINE
  8
0
 10
-23.0621
 20
12.0531
 11
-23.427
 21
12.1468
  0
LINE
  8
0
 10
-23.427
 20
12.1468
 11
-23.7773
 21
12.2855
  0
LINE
  8
0
 10
-23.7773
 20
12.2855
 11
-24.1075
 21
12.467
  0
LINE
  8
0
 10
-24.1075
 20
12.467
 11
-24.4123
 21
12.6884
  0
LINE
  8
0
 10
-24.4123
 20
12.6884
 11
-24.6869
 21
12.9464
  0
LINE
  8
0
 10
-24.6869
 20
12.9464
 11
-24.927
 21
13.2366
  0
LINE
  8
0
 10
-24.927
 20
13.2366
 11
-25.1289
 21
13.5547
  0
LINE
  8
0
 10
-25.1289
 20
13.5547
 11
-25.2893
 21
13.8956
  0
LINE
  8
0
 10
-25.2893
 20
13.8956
 11
-25.4057
 21
14.2539
  0
LINE
  8
0
 10
-25.4057
 20
14.2539
 11
-25.4763
 21
14.624
  0
LINE
  8
0
 10
-25.4763
 20
14.624
 11
-25.5
 21
15
  0
LINE
  8
0
 10
-25.5
 20
15
 11
-25.4763
 21
15.376
  0
LINE
  8
0
 10
-25.4763
 20
15.376
 11
-25.4057
 21
15.7461
  0
LINE
  8
0
 10
-25.4057
 20
15.7461
 11
-25.2893
 21
16.1044
  0
LINE
  8
0
 10
-25.2893
 20
16.1044
 11
-25.1289
 21
16.4453
  0
LINE
  8
0
 10
-25.1289
 20
16.4453
 11
-24.927
 21
16.7634
  0
LINE
  8
0
 10
-24.927
 20
16.7634
 11
-24.6869
 21
17.0536
  0
LINE
  8
0
 10
-24.6869
 20
17.0536
 11
-24.4123
 21
17.3115
  0
LINE
  8
0
 10
-24.4123
 20
17.3115
 11
-24.1075
 21
17.533
  0
LINE
  8
0
 10
-24.1075
 20
17.533
 11
-23.7773
 21
17.7145
  0
LINE
  8
0
 10
-23.7773
 20
17.7145
 11
-23.427
 21
17.8532
  0
LINE
  8
0
 10
-23.427
 20
17.8532
 11
-23.0621
 21
17.9469
  0
LINE
  8
0
 10
-23.0621
 20
17.9469
 11
-22.6884
 21
17.9941
  0
LINE
  8
0
 10
-22.6884
 20
17.9941
 11
-22.3116
 21
17.9941
  0
LINE
  8
0
 10
-22.3116
 20
17.9941
 11
-21.9379
 21
17.9469
  0
LINE
  8
0
 10
-21.9379
 20
17.9469
 11
-21.5729
 21
17.8532
  0
LINE
  8
0
 10
-21.5729
 20
17.8532
 11
-21.2227
 21
17.7145
  0
LINE
  8
0
 10
-21.2227
 20
17.7145
 11
-20.8925
 21
17.533
  0
LINE
  8
0
 10
-20.8925
 20
17.533
 11
-20.5877
 21
17.3115
  0
LINE
  8
0
 10
-20.5877
 20
17.3115
 11
-20.3131
 21
17.0536
  0
LINE
  8
0
 10
-20.3131
 20
17.0536
 11
-20.0729
 21
16.7634
  0
LINE
  8
0
 10
-20.0729
 20
16.7634
 11
-19.8711
 21
16.4453
  0
LINE
  8
0
 10
-19.8711
 20
16.4453
 11
-19.7107
 21
16.1044
  0
LINE
  8
0
 10
-19.7107
 20
16.1044
 11
-19.5942
 21
15.7461
  0
LINE
  8
0
 10
-19.5942
 20
15.7461
 11
-19.5237
 21
15.376
  0
LINE
  8
0
 10
-19.5237
 20
15.376
 11
-19.5
 21
15
  0
LINE
  8
0
 10
-19.5
 20
15
 11
-19.5237
 21
14.624
  0
LINE
  8
0
 10
-19.5237
 20
14.624
 11
-19.5942
 21
14.2539
  0
LINE
  8
0
 10
-19.5942
 20
14.2539
 11
-19.7107
 21
13.8956
  0
LINE
  8
0
 10
-19.7107
 20
13.8956
 11
-19.8711
 21
13.5547
  0
LINE
  8
0
 10
-19.8711
 20
13.5547
 11
-20.0729
 21
13.2366
  0
LINE
  8
0
 10
-20.0729
 20
13.2366
 11
-20.3131
 21
12.9464
  0
LINE
  8
0
 10
-20.3131
 20
12.9464
 11
-20.5877
 21
12.6884
  0
LINE
  8
0
 10
-20.5877
 20
12.6884
 11
-20.8925
 21
12.467
  0
LINE
  8
0
 10
-20.8925
 20
12.467
 11
-21.2227
 21
12.2855
  0
LINE
  8
0
 10
-21.2227
 20
12.2855
 11
-21.5729
 21
12.1468
  0
LINE
  8
0
 10
-21.5729
 20
12.1468
 11
-21.9379
 21
12.0531
  0
LINE
  8
0
 10
-21.9379
 20
12.0531
 11
-22.3116
 21
12.0059
  0
LINE
  8
0
 10
-22.3116
 20
12.0059
 11
-22.6884
 21
12.0059
  0
LINE
  8
0
 10
15.0686
 20
7.55098
 11
15.0063
 21
7.55885
  0
LINE
  8
0
 10
15.0063
 20
7.55885
 11
14.9455
 21
7.57446
  0
LINE
  8
0
 10
14.9455
 20
7.57446
 11
14.8871
 21
7.59758
  0
LINE
  8
0
 10
14.8871
 20
7.59758
 11
14.8321
 21
7.62782
  0
LINE
  8
0
 10
14.8321
 20
7.62782
 11
14.7813
 21
7.66473
  0
LINE
  8
0
 10
14.7813
 20
7.66473
 11
14.7355
 21
7.70772
  0
LINE
  8
0
 10
14.7355
 20
7.70772
 11
14.6955
 21
7.7561
  0
LINE
  8
0
 10
14.6955
 20
7.7561
 11
14.6618
 21
7.80911
  0
LINE
  8
0
 10
14.6618
 20
7.80911
 11
14.6351
 21
7.86594
  0
LINE
  8
0
 10
14.6351
 20
7.86594
 11
14.6157
 21
7.92564
  0
LINE
  8
0
 10
14.6157
 20
7.92564
 11
14.6039
 21
7.98732
  0
LINE
  8
0
 10
14.6039
 20
7.98732
 11
14.6
 21
8.04999
  0
LINE
  8
0
 10
14.6
 20
8.04999
 11
14.6039
 21
8.11266
  0
LINE
  8
0
 10
14.6039
 20
8.11266
 11
14.6157
 21
8.17433
  0
LINE
  8
0
 10
14.6157
 20
8.17433
 11
14.6351
 21
8.23405
  0
LINE
  8
0
 10
14.6351
 20
8.23405
 11
14.6618
 21
8.29086
  0
LINE
  8
0
 10
14.6618
 20
8.29086
 11
14.6955
 21
8.34389
  0
LINE
  8
0
 10
14.6955
 20
8.34389
 11
14.7355
 21
8.39227
  0
LINE
  8
0
 10
14.7355
 20
8.39227
 11
14.7813
 21
8.43524
  0
LINE
  8
0
 10
14.7813
 20
8.43524
 11
14.8321
 21
8.47215
  0
LINE
  8
0
 10
14.8321
 20
8.47215
 11
14.8871
 21
8.50241
  0
LINE
  8
0
 10
14.8871
 20
8.50241
 11
14.9455
 21
8.52553
  0
LINE
  8
0
 10
14.9455
 20
8.52553
 11
15.0063
 21
8.54114
  0
LINE
  8
0
 10
15.0063
 20
8.54114
 11
15.0686
 21
8.54901
  0
LINE
  8
0
 10
15.0686
 20
8.54901
 11
15.1314
 21
8.54901
  0
LINE
  8
0
 10
15.1314
 20
8.54901
 11
15.1937
 21
8.54114
  0
LINE
  8
0
 10
15.1937
 20
8.54114
 11
15.2545
 21
8.52553
  0
LINE
  8
0
 10
15.2545
 20
8.52553
 11
15.3129
 21
8.50241
  0
LINE
  8
0
 10
15.3129
 20
8.50241
 11
15.3679
 21
8.47215
  0
LINE
  8
0
 10
15.3679
 20
8.47215
 11
15.4187
 21
8.43524
  0
LINE
  8
0
 10
15.4187
 20
8.43524
 11
15.4645
 21
8.39227
  0
LINE
  8
0
 10
15.4645
 20
8.39227
 11
15.5045
 21
8.34389
  0
LINE
  8
0
 10
15.5045
 20
8.34389
 11
15.5381
 21
8.29086
  0
LINE
  8
0
 10
15.5381
 20
8.29086
 11
15.5649
 21
8.23405
  0
LINE
  8
0
 10
15.5649
 20
8.23405
 11
15.5843
 21
8.17433
  0
LINE
  8
0
 10
15.5843
 20
8.17433
 11
15.5961
 21
8.11266
  0
LINE
  8
0
 10
15.5961
 20
8.11266
 11
15.6
 21
8.04999
  0
LINE
  8
0
 10
15.6
 20
8.04999
 11
15.5961
 21
7.98732
  0
LINE
  8
0
 10
15.5961
 20
7.98732
 11
15.5843
 21
7.92564
  0
LINE
  8
0
 10
15.5843
 20
7.92564
 11
15.5649
 21
7.86594
  0
LINE
  8
0
 10
15.5649
 20
7.86594
 11
15.5381
 21
7.80911
  0
LINE
  8
0
 10
15.5381
 20
7.80911
 11
15.5045
 21
7.7561
  0
LINE
  8
0
 10
15.5045
 20
7.7561
 11
15.4645
 21
7.70772
  0
LINE
  8
0
 10
15.4645
 20
7.70772
 11
15.4187
 21
7.66473
  0
LINE
  8
0
 10
15.4187
 20
7.66473
 11
15.3679
 21
7.62782
  0
LINE
  8
0
 10
15.3679
 20
7.62782
 11
15.3129
 21
7.59758
  0
LINE
  8
0
 10
15.3129
 20
7.59758
 11
15.2545
 21
7.57446
  0
LINE
  8
0
 10
15.2545
 20
7.57446
 11
15.1937
 21
7.55885
  0
LINE
  8
0
 10
15.1937
 20
7.55885
 11
15.1314
 21
7.55098
  0
LINE
  8
0
 10
15.1314
 20
7.55098
 11
15.0686
 21
7.55098
  0
LINE
  8
0
 10
-15.3377
 20
7.15117
 11
-15.4124
 21
7.16061
  0
LINE
  8
0
 10
-15.4124
 20
7.16061
 11
-15.4854
 21
7.17935
  0
LINE
  8
0
 10
-15.4854
 20
7.17935
 11
-15.5555
 21
7.20709
  0
LINE
  8
0
 10
-15.5555
 20
7.20709
 11
-15.6215
 21
7.24339
  0
LINE
  8
0
 10
-15.6215
 20
7.24339
 11
-15.6824
 21
7.28769
  0
LINE
  8
0
 10
-15.6824
 20
7.28769
 11
-15.7374
 21
7.33926
  0
LINE
  8
0
 10
-15.7374
 20
7.33926
 11
-15.7854
 21
7.39732
  0
LINE
  8
0
 10
-15.7854
 20
7.39732
 11
-15.8258
 21
7.46094
  0
LINE
  8
0
 10
-15.8258
 20
7.46094
 11
-15.8579
 21
7.52911
  0
LINE
  8
0
 10
-15.8579
 20
7.52911
 11
-15.8811
 21
7.60078
  0
LINE
  8
0
 10
-15.8811
 20
7.60078
 11
-15.8953
 21
7.67479
  0
LINE
  8
0
 10
-15.8953
 20
7.67479
 11
-15.9
 21
7.75
  0
LINE
  8
0
 10
-15.9
 20
7.75
 11
-15.8953
 21
7.8252
  0
LINE
  8
0
 10
-15.8953
 20
7.8252
 11
-15.8811
 21
7.8992
  0
LINE
  8
0
 10
-15.8811
 20
7.8992
 11
-15.8579
 21
7.97087
  0
LINE
  8
0
 10
-15.8579
 20
7.97087
 11
-15.8258
 21
8.03905
  0
LINE
  8
0
 10
-15.8258
 20
8.03905
 11
-15.7854
 21
8.10266
  0
LINE
  8
0
 10
-15.7854
 20
8.10266
 11
-15.7374
 21
8.16072
  0
LINE
  8
0
 10
-15.7374
 20
8.16072
 11
-15.6824
 21
8.2123
  0
LINE
  8
0
 10
-15.6824
 20
8.2123
 11
-15.6215
 21
8.25659
  0
LINE
  8
0
 10
-15.6215
 20
8.25659
 11
-15.5555
 21
8.29289
  0
LINE
  8
0
 10
-15.5555
 20
8.29289
 11
-15.4854
 21
8.32063
  0
LINE
  8
0
 10
-15.4854
 20
8.32063
 11
-15.4124
 21
8.33937
  0
LINE
  8
0
 10
-15.4124
 20
8.33937
 11
-15.3377
 21
8.34882
  0
LINE
  8
0
 10
-15.3377
 20
8.34882
 11
-15.2623
 21
8.34882
  0
LINE
  8
0
 10
-15.2623
 20
8.34882
 11
-15.1876
 21
8.33937
  0
LINE
  8
0
 10
-15.1876
 20
8.33937
 11
-15.1146
 21
8.32063
  0
LINE
  8
0
 10
-15.1146
 20
8.32063
 11
-15.0445
 21
8.29289
  0
LINE
  8
0
 10
-15.0445
 20
8.29289
 11
-14.9785
 21
8.25659
  0
LINE
  8
0
 10
-14.9785
 20
8.25659
 11
-14.9175
 21
8.2123
  0
LINE
  8
0
 10
-14.9175
 20
8.2123
 11
-14.8626
 21
8.16072
  0
LINE
  8
0
 10
-14.8626
 20
8.16072
 11
-14.8146
 21
8.10266
  0
LINE
  8
0
 10
-14.8146
 20
8.10266
 11
-14.7742
 21
8.03905
  0
LINE
  8
0
 10
-14.7742
 20
8.03905
 11
-14.7421
 21
7.97087
  0
LINE
  8
0
 10
-14.7421
 20
7.97087
 11
-14.7188
 21
7.8992
  0
LINE
  8
0
 10
-14.7188
 20
7.8992
 11
-14.7047
 21
7.8252
  0
LINE
  8
0
 10
-14.7047
 20
7.8252
 11
-14.7
 21
7.75
  0
LINE
  8
0
 10
-14.7
 20
7.75
 11
-14.7047
 21
7.67479
  0
LINE
  8
0
 10
-14.7047
 20
7.67479
 11
-14.7188
 21
7.60078
  0
LINE
  8
0
 10
-14.7188
 20
7.60078
 11
-14.7421
 21
7.52911
  0
LINE
  8
0
 10
-14.7421
 20
7.52911
 11
-14.7742
 21
7.46094
  0
LINE
  8
0
 10
-14.7742
 20
7.46094
 11
-14.8146
 21
7.39732
  0
LINE
  8
0
 10
-14.8146
 20
7.39732
 11
-14.8626
 21
7.33926
  0
LINE
  8
0
 10
-14.8626
 20
7.33926
 11
-14.9175
 21
7.28769
  0
LINE
  8
0
 10
-14.9175
 20
7.28769
 11
-14.9785
 21
7.24339
  0
LINE
  8
0
 10
-14.9785
 20
7.24339
 11
-15.0445
 21
7.20709
  0
LINE
  8
0
 10
-15.0445
 20
7.20709
 11
-15.1146
 21
7.17935
  0
LINE
  8
0
 10
-15.1146
 20
7.17935
 11
-15.1876
 21
7.16061
  0
LINE
  8
0
 10
-15.1876
 20
7.16061
 11
-15.2623
 21
7.15117
  0
LINE
  8
0
 10
-15.2623
 20
7.15117
 11
-15.3377
 21
7.15117
  0
LINE
  8
0
 10
-22.6884
 20
-2.99408
 11
-23.0621
 21
-2.94685
  0
LINE
  8
0
 10
-23.0621
 20
-2.94685
 11
-23.427
 21
-2.85316
  0
LINE
  8
0
 10
-23.427
 20
-2.85316
 11
-23.7773
 21
-2.71448
  0
LINE
  8
0
 10
-23.7773
 20
-2.71448
 11
-24.1075
 21
-2.53297
  0
LINE
  8
0
 10
-24.1075
 20
-2.53297
 11
-24.4123
 21
-2.31154
  0
LINE
  8
0
 10
-24.4123
 20
-2.31154
 11
-24.6869
 21
-2.05363
  0
LINE
  8
0
 10
-24.6869
 20
-2.05363
 11
-24.927
 21
-1.76335
  0
LINE
  8
0
 10
-24.927
 20
-1.76335
 11
-25.1289
 21
-1.44525
  0
LINE
  8
0
 10
-25.1289
 20
-1.44525
 11
-25.2893
 21
-1.10437
  0
LINE
  8
0
 10
-25.2893
 20
-1.10437
 11
-25.4057
 21
-0.746063
  0
LINE
  8
0
 10
-25.4057
 20
-0.746063
 11
-25.4763
 21
-0.375992
  0
LINE
  8
0
 10
-25.4763
 20
-0.375992
 11
-25.5
 21
0
  0
LINE
  8
0
 10
-25.5
 20
0
 11
-25.4763
 21
0.375992
  0
LINE
  8
0
 10
-25.4763
 20
0.375992
 11
-25.4057
 21
0.746063
  0
LINE
  8
0
 10
-25.4057
 20
0.746063
 11
-25.2893
 21
1.10437
  0
LINE
  8
0
 10
-25.2893
 20
1.10437
 11
-25.1289
 21
1.44525
  0
LINE
  8
0
 10
-25.1289
 20
1.44525
 11
-24.927
 21
1.76335
  0
LINE
  8
0
 10
-24.927
 20
1.76335
 11
-24.6869
 21
2.05363
  0
LINE
  8
0
 10
-24.6869
 20
2.05363
 11
-24.4123
 21
2.31154
  0
LINE
  8
0
 10
-24.4123
 20
2.31154
 11
-24.1075
 21
2.53297
  0
LINE
  8
0
 10
-24.1075
 20
2.53297
 11
-23.7773
 21
2.71448
  0
LINE
  8
0
 10
-23.7773
 20
2.71448
 11
-23.427
 21
2.85316
  0
LINE
  8
0
 10
-23.427
 20
2.85316
 11
-23.0621
 21
2.94685
  0
LINE
  8
0
 10
-23.0621
 20
2.94685
 11
-22.6884
 21
2.99408
  0
LINE
  8
0
 10
-22.6884
 20
2.99408
 11
-22.3116
 21
2.99408
  0
LINE
  8
0
 10
-22.3116
 20
2.99408
 11
-21.9379
 21
2.94685
  0
LINE
  8
0
 10
-21.9379
 20
2.94685
 11
-21.5729
 21
2.85316
  0
LINE
  8
0
 10
-21.5729
 20
2.85316
 11
-21.2227
 21
2.71448
  0
LINE
  8
0
 10
-21.2227
 20
2.71448
 11
-20.8925
 21
2.53297
  0
LINE
  8
0
 10
-20.8925
 20
2.53297
 11
-20.5877
 21
2.31154
  0
LINE
  8
0
 10
-20.5877
 20
2.31154
 11
-20.3131
 21
2.05363
  0
LINE
  8
0
 10
-20.3131
 20
2.05363
 11
-20.0729
 21
1.76335
  0
LINE
  8
0
 10
-20.0729
 20
1.76335
 11
-19.8711
 21
1.44525
  0
LINE
  8
0
 10
-19.8711
 20
1.44525
 11
-19.7107
 21
1.10437
  0
LINE
  8
0
 10
-19.7107
 20
1.10437
 11
-19.5942
 21
0.746063
  0
LINE
  8
0
 10
-19.5942
 20
0.746063
 11
-19.5237
 21
0.375992
  0
LINE
  8
0
 10
-19.5237
 20
0.375992
 11
-19.5
 21
0
  0
LINE
  8
0
 10
-19.5
 20
0
 11
-19.5237
 21
-0.375992
  0
LINE
  8
0
 10
-19.5237
 20
-0.375992
 11
-19.5942
 21
-0.746063
  0
LINE
  8
0
 10
-19.5942
 20
-0.746063
 11
-19.7107
 21
-1.10437
  0
LINE
  8
0
 10
-19.7107
 20
-1.10437
 11
-19.8711
 21
-1.44525
  0
LINE
  8
0
 10
-19.8711
 20
-1.44525
 11
-20.0729
 21
-1.76335
  0
LINE
  8
0
 10
-20.0729
 20
-1.76335
 11
-20.3131
 21
-2.05363
  0
LINE
  8
0
 10
-20.3131
 20
-2.05363
 11
-20.5877
 21
-2.31154
  0
LINE
  8
0
 10
-20.5877
 20
-2.31154
 11
-20.8925
 21
-2.53297
  0
LINE
  8
0
 10
-20.8925
 20
-2.53297
 11
-21.2227
 21
-2.71448
  0
LINE
  8
0
 10
-21.2227
 20
-2.71448
 11
-21.5729
 21
-2.85316
  0
LINE
  8
0
 10
-21.5729
 20
-2.85316
 11
-21.9379
 21
-2.94685
  0
LINE
  8
0
 10
-21.9379
 20
-2.94685
 11
-22.3116
 21
-2.99408
  0
LINE
  8
0
 10
-22.3116
 20
-2.99408
 11
-22.6884
 21
-2.99408
  0
LINE
  8
0
 10
22.3116
 20
-2.99408
 11
21.9379
 21
-2.94685
  0
LINE
  8
0
 10
21.9379
 20
-2.94685
 11
21.5729
 21
-2.85316
  0
LINE
  8
0
 10
21.5729
 20
-2.85316
 11
21.2227
 21
-2.71448
  0
LINE
  8
0
 10
21.2227
 20
-2.71448
 11
20.8925
 21
-2.53297
  0
LINE
  8
0
 10
20.8925
 20
-2.53297
 11
20.5877
 21
-2.31154
  0
LINE
  8
0
 10
20.5877
 20
-2.31154
 11
20.3131
 21
-2.05363
  0
LINE
  8
0
 10
20.3131
 20
-2.05363
 11
20.0729
 21
-1.76335
  0
LINE
  8
0
 10
20.0729
 20
-1.76335
 11
19.8711
 21
-1.44525
  0
LINE
  8
0
 10
19.8711
 20
-1.44525
 11
19.7107
 21
-1.10437
  0
LINE
  8
0
 10
19.7107
 20
-1.10437
 11
19.5942
 21
-0.746063
  0
LINE
  8
0
 10
19.5942
 20
-0.746063
 11
19.5237
 21
-0.375992
  0
LINE
  8
0
 10
19.5237
 20
-0.375992
 11
19.5
 21
0
  0
LINE
  8
0
 10
19.5
 20
0
 11
19.5237
 21
0.375992
  0
LINE
  8
0
 10
19.5237
 20
0.375992
 11
19.5942
 21
0.746063
  0
LINE
  8
0
 10
19.5942
 20
0.746063
 11
19.7107
 21
1.10437
  0
LINE
  8
0
 10
19.7107
 20
1.10437
 11
19.8711
 21
1.44525
  0
LINE
  8
0
 10
19.8711
 20
1.44525
 11
20.0729
 21
1.76335
  0
LINE
  8
0
 10
20.0729
 20
1.76335
 11
20.3131
 21
2.05363
  0
LINE
  8
0
 10
20.3131
 20
2.05363
 11
20.5877
 21
2.31154
  0
LINE
  8
0
 10
20.5877
 20
2.31154
 11
20.8925
 21
2.53297
  0
LINE
  8
0
 10
20.8925
 20
2.53297
 11
21.2227
 21
2.71448
  0
LINE
  8
0
 10
21.2227
 20
2.71448
 11
21.5729
 21
2.85316
  0
LINE
  8
0
 10
21.5729
 20
2.85316
 11
21.9379
 21
2.94685
  0
LINE
  8
0
 10
21.9379
 20
2.94685
 11
22.3116
 21
2.99408
  0
LINE
  8
0
 10
22.3116
 20
2.99408
 11
22.6884
 21
2.99408
  0
LINE
  8
0
 10
22.6884
 20
2.99408
 11
23.0621
 21
2.94685
  0
LINE
  8
0
 10
23.0621
 20
2.94685
 11
23.427
 21
2.85316
  0
LINE
  8
0
 10
23.427
 20
2.85316
 11
23.7773
 21
2.71448
  0
LINE
  8
0
 10
23.7773
 20
2.71448
 11
24.1075
 21
2.53297
  0
LINE
  8
0
 10
24.1075
 20
2.53297
 11
24.4123
 21
2.31154
  0
LINE
  8
0
 10
24.4123
 20
2.31154
 11
24.6869
 21
2.05363
  0
LINE
  8
0
 10
24.6869
 20
2.05363
 11
24.927
 21
1.76335
  0
LINE
  8
0
 10
24.927
 20
1.76335
 11
25.1289
 21
1.44525
  0
LINE
  8
0
 10
25.1289
 20
1.44525
 11
25.2893
 21
1.10437
  0
LINE
  8
0
 10
25.2893
 20
1.10437
 11
25.4057
 21
0.746063
  0
LINE
  8
0
 10
25.4057
 20
0.746063
 11
25.4763
 21
0.375992
  0
LINE
  8
0
 10
25.4763
 20
0.375992
 11
25.5
 21
0
  0
LINE
  8
0
 10
25.5
 20
0
 11
25.4763
 21
-0.375992
  0
LINE
  8
0
 10
25.4763
 20
-0.375992
 11
25.4057
 21
-0.746063
  0
LINE
  8
0
 10
25.4057
 20
-0.746063
 11
25.2893
 21
-1.10437
  0
LINE
  8
0
 10
25.2893
 20
-1.10437
 11
25.1289
 21
-1.44525
  0
LINE
  8
0
 10
25.1289
 20
-1.44525
 11
24.927
 21
-1.76335
  0
LINE
  8
0
 10
24.927
 20
-1.76335
 11
24.6869
 21
-2.05363
  0
LINE
  8
0
 10
24.6869
 20
-2.05363
 11
24.4123
 21
-2.31154
  0
LINE
  8
0
 10
24.4123
 20
-2.31154
 11
24.1075
 21
-2.53297
  0
LINE
  8
0
 10
24.1075
 20
-2.53297
 11
23.7773
 21
-2.71448
  0
LINE
  8
0
 10
23.7773
 20
-2.71448
 11
23.427
 21
-2.85316
  0
LINE
  8
0
 10
23.427
 20
-2.85316
 11
23.0621
 21
-2.94685
  0
LINE
  8
0
 10
23.0621
 20
-2.94685
 11
22.6884
 21
-2.99408
  0
LINE
  8
0
 10
22.6884
 20
-2.99408
 11
22.3116
 21
-2.99408
  0
LINE
  8
0
 10
14.9623
 20
-4.84882
 11
14.8876
 21
-4.83937
  0
LINE
  8
0
 10
14.8876
 20
-4.83937
 11
14.8146
 21
-4.82063
  0
LINE
  8
0
 10
14.8146
 20
-4.82063
 11
14.7445
 21
-4.79289
  0
LINE
  8
0
 10
14.7445
 20
-4.79289
 11
14.6785
 21
-4.75659
  0
LINE
  8
0
 10
14.6785
 20
-4.75659
 11
14.6175
 21
-4.7123
  0
LINE
  8
0
 10
14.6175
 20
-4.7123
 11
14.5626
 21
-4.66072
  0
LINE
  8
0
 10
14.5626
 20
-4.66072
 11
14.5146
 21
-4.60266
  0
LINE
  8
0
 10
14.5146
 20
-4.60266
 11
14.4742
 21
-4.53905
  0
LINE
  8
0
 10
14.4742
 20
-4.53905
 11
14.4421
 21
-4.47087
  0
LINE
  8
0
 10
14.4421
 20
-4.47087
 11
14.4188
 21
-4.3992
  0
LINE
  8
0
 10
14.4188
 20
-4.3992
 11
14.4047
 21
-4.3252
  0
LINE
  8
0
 10
14.4047
 20
-4.3252
 11
14.4
 21
-4.25
  0
LINE
  8
0
 10
14.4
 20
-4.25
 11
14.4047
 21
-4.17479
  0
LINE
  8
0
 10
14.4047
 20
-4.17479
 11
14.4188
 21
-4.10078
  0
LINE
  8
0
 10
14.4188
 20
-4.10078
 11
14.4421
 21
-4.02911
  0
LINE
  8
0
 10
14.4421
 20
-4.02911
 11
14.4742
 21
-3.96094
  0
LINE
  8
0
 10
14.4742
 20
-3.96094
 11
14.5146
 21
-3.89732
  0
LINE
  8
0
 10
14.5146
 20
-3.89732
 11
14.5626
 21
-3.83926
  0
LINE
  8
0
 10
14.5626
 20
-3.83926
 11
14.6175
 21
-3.78769
  0
LINE
  8
0
 10
14.6175
 20
-3.78769
 11
14.6785
 21
-3.74339
  0
LINE
  8
0
 10
14.6785
 20
-3.74339
 11
14.7445
 21
-3.70709
  0
LINE
  8
0
 10
14.7445
 20
-3.70709
 11
14.8146
 21
-3.67935
  0
LINE
  8
0
 10
14.8146
 20
-3.67935
 11
14.8876
 21
-3.66061
  0
LINE
  8
0
 10
14.8876
 20
-3.66061
 11
14.9623
 21
-3.65117
  0
LINE
  8
0
 10
14.9623
 20
-3.65117
 11
15.0377
 21
-3.65117
  0
LINE
  8
0
 10
15.0377
 20
-3.65117
 11
15.1124
 21
-3.66061
  0
LINE
  8
0
 10
15.1124
 20
-3.66061
 11
15.1854
 21
-3.67935
  0
LINE
  8
0
 10
15.1854
 20
-3.67935
 11
15.2555
 21
-3.70709
  0
LINE
  8
0
 10
15.2555
 20
-3.70709
 11
15.3215
 21
-3.74339
  0
LINE
  8
0
 10
15.3215
 20
-3.74339
 11
15.3824
 21
-3.78769
  0
LINE
  8
0
 10
15.3824
 20
-3.78769
 11
15.4374
 21
-3.83926
  0
LINE
  8
0
 10
15.4374
 20
-3.83926
 11
15.4854
 21
-3.89732
  0
LINE
  8
0
 10
15.4854
 20
-3.89732
 11
15.5258
 21
-3.96094
  0
LINE
  8
0
 10
15.5258
 20
-3.96094
 11
15.5579
 21
-4.02911
  0
LINE
  8
0
 10
15.5579
 20
-4.02911
 11
15.5811
 21
-4.10078
  0
LINE
  8
0
 10
15.5811
 20
-4.10078
 11
15.5953
 21
-4.17479
  0
LINE
  8
0
 10
15.5953
 20
-4.17479
 11
15.6
 21
-4.25
  0
LINE
  8
0
 10
15.6
 20
-4.25
 11
15.5953
 21
-4.3252
  0
LINE
  8
0
 10
15.5953
 20
-4.3252
 11
15.5811
 21
-4.3992
  0
LINE
  8
0
 10
15.5811
 20
-4.3992
 11
15.5579
 21
-4.47087
  0
LINE
  8
0
 10
15.5579
 20
-4.47087
 11
15.5258
 21
-4.53905
  0
LINE
  8
0
 10
15.5258
 20
-4.53905
 11
15.4854
 21
-4.60266
  0
LINE
  8
0
 10
15.4854
 20
-4.60266
 11
15.4374
 21
-4.66072
  0
LINE
  8
0
 10
15.4374
 20
-4.66072
 11
15.3824
 21
-4.7123
  0
LINE
  8
0
 10
15.3824
 20
-4.7123
 11
15.3215
 21
-4.75659
  0
LINE
  8
0
 10
15.3215
 20
-4.75659
 11
15.2555
 21
-4.79289
  0
LINE
  8
0
 10
15.2555
 20
-4.79289
 11
15.1854
 21
-4.82063
  0
LINE
  8
0
 10
15.1854
 20
-4.82063
 11
15.1124
 21
-4.83937
  0
LINE
  8
0
 10
15.1124
 20
-4.83937
 11
15.0377
 21
-4.84882
  0
LINE
  8
0
 10
15.0377
 20
-4.84882
 11
14.9623
 21
-4.84882
  0
LINE
  8
0
 10
-15.3314
 20
-5.24901
 11
-15.3937
 21
-5.24113
  0
LINE
  8
0
 10
-15.3937
 20
-5.24113
 11
-15.4545
 21
-5.22552
  0
LINE
  8
0
 10
-15.4545
 20
-5.22552
 11
-15.5129
 21
-5.20241
  0
LINE
  8
0
 10
-15.5129
 20
-5.20241
 11
-15.5679
 21
-5.17215
  0
LINE
  8
0
 10
-15.5679
 20
-5.17215
 11
-15.6187
 21
-5.13525
  0
LINE
  8
0
 10
-15.6187
 20
-5.13525
 11
-15.6645
 21
-5.09227
  0
LINE
  8
0
 10
-15.6645
 20
-5.09227
 11
-15.7045
 21
-5.04388
  0
LINE
  8
0
 10
-15.7045
 20
-5.04388
 11
-15.7381
 21
-4.99088
  0
LINE
  8
0
 10
-15.7381
 20
-4.99088
 11
-15.7649
 21
-4.93405
  0
LINE
  8
0
 10
-15.7649
 20
-4.93405
 11
-15.7843
 21
-4.87434
  0
LINE
  8
0
 10
-15.7843
 20
-4.87434
 11
-15.7961
 21
-4.81265
  0
LINE
  8
0
 10
-15.7961
 20
-4.81265
 11
-15.8
 21
-4.75
  0
LINE
  8
0
 10
-15.8
 20
-4.75
 11
-15.7961
 21
-4.68733
  0
LINE
  8
0
 10
-15.7961
 20
-4.68733
 11
-15.7843
 21
-4.62564
  0
LINE
  8
0
 10
-15.7843
 20
-4.62564
 11
-15.7649
 21
-4.56593
  0
LINE
  8
0
 10
-15.7649
 20
-4.56593
 11
-15.7381
 21
-4.50911
  0
LINE
  8
0
 10
-15.7381
 20
-4.50911
 11
-15.7045
 21
-4.4561
  0
LINE
  8
0
 10
-15.7045
 20
-4.4561
 11
-15.6645
 21
-4.40771
  0
LINE
  8
0
 10
-15.6645
 20
-4.40771
 11
-15.6187
 21
-4.36473
  0
LINE
  8
0
 10
-15.6187
 20
-4.36473
 11
-15.5679
 21
-4.32784
  0
LINE
  8
0
 10
-15.5679
 20
-4.32784
 11
-15.5129
 21
-4.29758
  0
LINE
  8
0
 10
-15.5129
 20
-4.29758
 11
-15.4545
 21
-4.27446
  0
LINE
  8
0
 10
-15.4545
 20
-4.27446
 11
-15.3937
 21
-4.25885
  0
LINE
  8
0
 10
-15.3937
 20
-4.25885
 11
-15.3314
 21
-4.25098
  0
LINE
  8
0
 10
-15.3314
 20
-4.25098
 11
-15.2686
 21
-4.25098
  0
LINE
  8
0
 10
-15.2686
 20
-4.25098
 11
-15.2063
 21
-4.25885
  0
LINE
  8
0
 10
-15.2063
 20
-4.25885
 11
-15.1455
 21
-4.27446
  0
LINE
  8
0
 10
-15.1455
 20
-4.27446
 11
-15.0871
 21
-4.29758
  0
LINE
  8
0
 10
-15.0871
 20
-4.29758
 11
-15.0321
 21
-4.32784
  0
LINE
  8
0
 10
-15.0321
 20
-4.32784
 11
-14.9813
 21
-4.36473
  0
LINE
  8
0
 10
-14.9813
 20
-4.36473
 11
-14.9355
 21
-4.40771
  0
LINE
  8
0
 10
-14.9355
 20
-4.40771
 11
-14.8955
 21
-4.4561
  0
LINE
  8
0
 10
-14.8955
 20
-4.4561
 11
-14.8618
 21
-4.50911
  0
LINE
  8
0
 10
-14.8618
 20
-4.50911
 11
-14.8351
 21
-4.56593
  0
LINE
  8
0
 10
-14.8351
 20
-4.56593
 11
-14.8157
 21
-4.62564
  0
LINE
  8
0
 10
-14.8157
 20
-4.62564
 11
-14.8039
 21
-4.68733
  0
LINE
  8
0
 10
-14.8039
 20
-4.68733
 11
-14.8
 21
-4.75
  0
LINE
  8
0
 10
-14.8
 20
-4.75
 11
-14.8039
 21
-4.81265
  0
LINE
  8
0
 10
-14.8039
 20
-4.81265
 11
-14.8157
 21
-4.87434
  0
LINE
  8
0
 10
-14.8157
 20
-4.87434
 11
-14.8351
 21
-4.93405
  0
LINE
  8
0
 10
-14.8351
 20
-4.93405
 11
-14.8618
 21
-4.99088
  0
LINE
  8
0
 10
-14.8618
 20
-4.99088
 11
-14.8955
 21
-5.04388
  0
LINE
  8
0
 10
-14.8955
 20
-5.04388
 11
-14.9355
 21
-5.09227
  0
LINE
  8
0
 10
-14.9355
 20
-5.09227
 11
-14.9813
 21
-5.13525
  0
LINE
  8
0
 10
-14.9813
 20
-5.13525
 11
-15.0321
 21
-5.17215
  0
LINE
  8
0
 10
-15.0321
 20
-5.17215
 11
-15.0871
 21
-5.20241
  0
LINE
  8
0
 10
-15.0871
 20
-5.20241
 11
-15.1455
 21
-5.22552
  0
LINE
  8
0
 10
-15.1455
 20
-5.22552
 11
-15.2063
 21
-5.24113
  0
LINE
  8
0
 10
-15.2063
 20
-5.24113
 11
-15.2686
 21
-5.24901
  0
LINE
  8
0
 10
-15.2686
 20
-5.24901
 11
-15.3314
 21
-5.24901
  0
LINE
  8
0
 10
7.31161
 20
-17.9941
 11
6.93785
 21
-17.9469
  0
LINE
  8
0
 10
6.93785
 20
-17.9469
 11
6.57294
 21
-17.8532
  0
LINE
  8
0
 10
6.57294
 20
-17.8532
 11
6.22266
 21
-17.7145
  0
LINE
  8
0
 10
6.22266
 20
-17.7145
 11
5.89252
 21
-17.533
  0
LINE
  8
0
 10
5.89252
 20
-17.533
 11
5.58772
 21
-17.3115
  0
LINE
  8
0
 10
5.58772
 20
-17.3115
 11
5.31308
 21
-17.0536
  0
LINE
  8
0
 10
5.31308
 20
-17.0536
 11
5.07294
 21
-16.7634
  0
LINE
  8
0
 10
5.07294
 20
-16.7634
 11
4.87108
 21
-16.4453
  0
LINE
  8
0
 10
4.87108
 20
-16.4453
 11
4.71066
 21
-16.1044
  0
LINE
  8
0
 10
4.71066
 20
-16.1044
 11
4.59424
 21
-15.7461
  0
LINE
  8
0
 10
4.59424
 20
-15.7461
 11
4.52365
 21
-15.376
  0
LINE
  8
0
 10
4.52365
 20
-15.376
 11
4.5
 21
-15
  0
LINE
  8
0
 10
4.5
 20
-15
 11
4.52365
 21
-14.624
  0
LINE
  8
0
 10
4.52365
 20
-14.624
 11
4.59424
 21
-14.2539
  0
LINE
  8
0
 10
4.59424
 20
-14.2539
 11
4.71066
 21
-13.8956
  0
LINE
  8
0
 10
4.71066
 20
-13.8956
 11
4.87108
 21
-13.5547
  0
LINE
  8
0
 10
4.87108
 20
-13.5547
 11
5.07294
 21
-13.2366
  0
LINE
  8
0
 10
5.07294
 20
-13.2366
 11
5.31308
 21
-12.9464
  0
LINE
  8
0
 10
5.31308
 20
-12.9464
 11
5.58772
 21
-12.6884
  0
LINE
  8
0
 10
5.58772
 20
-12.6884
 11
5.89252
 21
-12.467
  0
LINE
  8
0
 10
5.89252
 20
-12.467
 11
6.22266
 21
-12.2855
  0
LINE
  8
0
 10
6.22266
 20
-12.2855
 11
6.57294
 21
-12.1468
  0
LINE
  8
0
 10
6.57294
 20
-12.1468
 11
6.93785
 21
-12.0531
  0
LINE
  8
0
 10
6.93785
 20
-12.0531
 11
7.31161
 21
-12.0059
  0
LINE
  8
0
 10
7.31161
 20
-12.0059
 11
7.68837
 21
-12.0059
  0
LINE
  8
0
 10
7.68837
 20
-12.0059
 11
8.06213
 21
-12.0531
  0
LINE
  8
0
 10
8.06213
 20
-12.0531
 11
8.42705
 21
-12.1468
  0
LINE
  8
0
 10
8.42705
 20
-12.1468
 11
8.77733
 21
-12.2855
  0
LINE
  8
0
 10
8.77733
 20
-12.2855
 11
9.10747
 21
-12.467
  0
LINE
  8
0
 10
9.10747
 20
-12.467
 11
9.41226
 21
-12.6884
  0
LINE
  8
0
 10
9.41226
 20
-12.6884
 11
9.6869
 21
-12.9464
  0
LINE
  8
0
 10
9.6869
 20
-12.9464
 11
9.92705
 21
-13.2366
  0
LINE
  8
0
 10
9.92705
 20
-13.2366
 11
10.1289
 21
-13.5547
  0
LINE
  8
0
 10
10.1289
 20
-13.5547
 11
10.2893
 21
-13.8956
  0
LINE
  8
0
 10
10.2893
 20
-13.8956
 11
10.4057
 21
-14.2539
  0
LINE
  8
0
 10
10.4057
 20
-14.2539
 11
10.4763
 21
-14.624
  0
LINE
  8
0
 10
10.4763
 20
-14.624
 11
10.5
 21
-15
  0
LINE
  8
0
 10
10.5
 20
-15
 11
10.4763
 21
-15.376
  0
LINE
  8
0
 10
10.4763
 20
-15.376
 11
10.4057
 21
-15.7461
  0
LINE
  8
0
 10
10.4057
 20
-15.7461
 11
10.2893
 21
-16.1044
  0
LINE
  8
0
 10
10.2893
 20
-16.1044
 11
10.1289
 21
-16.4453
  0
LINE
  8
0
 10
10.1289
 20
-16.4453
 11
9.92705
 21
-16.7634
  0
LINE
  8
0
 10
9.92705
 20
-16.7634
 11
9.6869
 21
-17.0536
  0
LINE
  8
0
 10
9.6869
 20
-17.0536
 11
9.41226
 21
-17.3115
  0
LINE
  8
0
 10
9.41226
 20
-17.3115
 11
9.10747
 21
-17.533
  0
LINE
  8
0
 10
9.10747
 20
-17.533
 11
8.77733
 21
-17.7145
  0
LINE
  8
0
 10
8.77733
 20
-17.7145
 11
8.42705
 21
-17.8532
  0
LINE
  8
0
 10
8.42705
 20
-17.8532
 11
8.06213
 21
-17.9469
  0
LINE
  8
0
 10
8.06213
 20
-17.9469
 11
7.68837
 21
-17.9941
  0
LINE
  8
0
 10
7.68837
 20
-17.9941
 11
7.31161
 21
-17.9941
  0
LINE
  8
0
 10
-22.6884
 20
-17.9941
 11
-23.0621
 21
-17.9469
  0
LINE
  8
0
 10
-23.0621
 20
-17.9469
 11
-23.427
 21
-17.8532
  0
LINE
  8
0
 10
-23.427
 20
-17.8532
 11
-23.7773
 21
-17.7145
  0
LINE
  8
0
 10
-23.7773
 20
-17.7145
 11
-24.1075
 21
-17.533
  0
LINE
  8
0
 10
-24.1075
 20
-17.533
 11
-24.4123
 21
-17.3115
  0
LINE
  8
0
 10
-24.4123
 20
-17.3115
 11
-24.6869
 21
-17.0536
  0
LINE
  8
0
 10
-24.6869
 20
-17.0536
 11
-24.927
 21
-16.7634
  0
LINE
  8
0
 10
-24.927
 20
-16.7634
 11
-25.1289
 21
-16.4453
  0
LINE
  8
0
 10
-25.1289
 20
-16.4453
 11
-25.2893
 21
-16.1044
  0
LINE
  8
0
 10
-25.2893
 20
-16.1044
 11
-25.4057
 21
-15.7461
  0
LINE
  8
0
 10
-25.4057
 20
-15.7461
 11
-25.4763
 21
-15.376
  0
LINE
  8
0
 10
-25.4763
 20
-15.376
 11
-25.5
 21
-15
  0
LINE
  8
0
 10
-25.5
 20
-15
 11
-25.4763
 21
-14.624
  0
LINE
  8
0
 10
-25.4763
 20
-14.624
 11
-25.4057
 21
-14.2539
  0
LINE
  8
0
 10
-25.4057
 20
-14.2539
 11
-25.2893
 21
-13.8956
  0
LINE
  8
0
 10
-25.2893
 20
-13.8956
 11
-25.1289
 21
-13.5547
  0
LINE
  8
0
 10
-25.1289
 20
-13.5547
 11
-24.927
 21
-13.2366
  0
LINE
  8
0
 10
-24.927
 20
-13.2366
 11
-24.6869
 21
-12.9464
  0
LINE
  8
0
 10
-24.6869
 20
-12.9464
 11
-24.4123
 21
-12.6884
  0
LINE
  8
0
 10
-24.4123
 20
-12.6884
 11
-24.1075
 21
-12.467
  0
LINE
  8
0
 10
-24.1075
 20
-12.467
 11
-23.7773
 21
-12.2855
  0
LINE
  8
0
 10
-23.7773
 20
-12.2855
 11
-23.427
 21
-12.1468
  0
LINE
  8
0
 10
-23.427
 20
-12.1468
 11
-23.0621
 21
-12.0531
  0
LINE
  8
0
 10
-23.0621
 20
-12.0531
 11
-22.6884
 21
-12.0059
  0
LINE
  8
0
 10
-22.6884
 20
-12.0059
 11
-22.3116
 21
-12.0059
  0
LINE
  8
0
 10
-22.3116
 20
-12.0059
 11
-21.9379
 21
-12.0531
  0
LINE
  8
0
 10
-21.9379
 20
-12.0531
 11
-21.5729
 21
-12.1468
  0
LINE
  8
0
 10
-21.5729
 20
-12.1468
 11
-21.2227
 21
-12.2855
  0
LINE
  8
0
 10
-21.2227
 20
-12.2855
 11
-20.8925
 21
-12.467
  0
LINE
  8
0
 10
-20.8925
 20
-12.467
 11
-20.5877
 21
-12.6884
  0
LINE
  8
0
 10
-20.5877
 20
-12.6884
 11
-20.3131
 21
-12.9464
  0
LINE
  8
0
 10
-20.3131
 20
-12.9464
 11
-20.0729
 21
-13.2366
  0
LINE
  8
0
 10
-20.0729
 20
-13.2366
 11
-19.8711
 21
-13.5547
  0
LINE
  8
0
 10
-19.8711
 20
-13.5547
 11
-19.7107
 21
-13.8956
  0
LINE
  8
0
 10
-19.7107
 20
-13.8956
 11
-19.5942
 21
-14.2539
  0
LINE
  8
0
 10
-19.5942
 20
-14.2539
 11
-19.5237
 21
-14.624
  0
LINE
  8
0
 10
-19.5237
 20
-14.624
 11
-19.5
 21
-15
  0
LINE
  8
0
 10
-19.5
 20
-15
 11
-19.5237
 21
-15.376
  0
LINE
  8
0
 10
-19.5237
 20
-15.376
 11
-19.5942
 21
-15.7461
  0
LINE
  8
0
 10
-19.5942
 20
-15.7461
 11
-19.7107
 21
-16.1044
  0
LINE
  8
0
 10
-19.7107
 20
-16.1044
 11
-19.8711
 21
-16.4453
  0
LINE
  8
0
 10
-19.8711
 20
-16.4453
 11
-20.0729
 21
-16.7634
  0
LINE
  8
0
 10
-20.0729
 20
-16.7634
 11
-20.3131
 21
-17.0536
  0
LINE
  8
0
 10
-20.3131
 20
-17.0536
 11
-20.5877
 21
-17.3115
  0
LINE
  8
0
 10
-20.5877
 20
-17.3115
 11
-20.8925
 21
-17.533
  0
LINE
  8
0
 10
-20.8925
 20
-17.533
 11
-21.2227
 21
-17.7145
  0
LINE
  8
0
 10
-21.2227
 20
-17.7145
 11
-21.5729
 21
-17.8532
  0
LINE
  8
0
 10
-21.5729
 20
-17.8532
 11
-21.9379
 21
-17.9469
  0
LINE
  8
0
 10
-21.9379
 20
-17.9469
 11
-22.3116
 21
-17.9941
  0
LINE
  8
0
 10
-22.3116
 20
-17.9941
 11
-22.6884
 21
-17.9941
  0
LINE
  8
0
 10
22.3116
 20
-17.9941
 11
21.9379
 21
-17.9469
  0
LINE
  8
0
 10
21.9379
 20
-17.9469
 11
21.5729
 21
-17.8532
  0
LINE
  8
0
 10
21.5729
 20
-17.8532
 11
21.2227
 21
-17.7145
  0
LINE
  8
0
 10
21.2227
 20
-17.7145
 11
20.8925
 21
-17.533
  0
LINE
  8
0
 10
20.8925
 20
-17.533
 11
20.5877
 21
-17.3115
  0
LINE
  8
0
 10
20.5877
 20
-17.3115
 11
20.3131
 21
-17.0536
  0
LINE
  8
0
 10
20.3131
 20
-17.0536
 11
20.0729
 21
-16.7634
  0
LINE
  8
0
 10
20.0729
 20
-16.7634
 11
19.8711
 21
-16.4453
  0
LINE
  8
0
 10
19.8711
 20
-16.4453
 11
19.7107
 21
-16.1044
  0
LINE
  8
0
 10
19.7107
 20
-16.1044
 11
19.5942
 21
-15.7461
  0
LINE
  8
0
 10
19.5942
 20
-15.7461
 11
19.5237
 21
-15.376
  0
LINE
  8
0
 10
19.5237
 20
-15.376
 11
19.5
 21
-15
  0
LINE
  8
0
 10
19.5
 20
-15
 11
19.5237
 21
-14.624
  0
LINE
  8
0
 10
19.5237
 20
-14.624
 11
19.5942
 21
-14.2539
  0
LINE
  8
0
 10
19.5942
 20
-14.2539
 11
19.7107
 21
-13.8956
  0
LINE
  8
0
 10
19.7107
 20
-13.8956
 11
19.8711
 21
-13.5547
  0
LINE
  8
0
 10
19.8711
 20
-13.5547
 11
20.0729
 21
-13.2366
  0
LINE
  8
0
 10
20.0729
 20
-13.2366
 11
20.3131
 21
-12.9464
  0
LINE
  8
0
 10
20.3131
 20
-12.9464
 11
20.5877
 21
-12.6884
  0
LINE
  8
0
 10
20.5877
 20
-12.6884
 11
20.8925
 21
-12.467
  0
LINE
  8
0
 10
20.8925
 20
-12.467
 11
21.2227
 21
-12.2855
  0
LINE
  8
0
 10
21.2227
 20
-12.2855
 11
21.5729
 21
-12.1468
  0
LINE
  8
0
 10
21.5729
 20
-12.1468
 11
21.9379
 21
-12.0531
  0
LINE
  8
0
 10
21.9379
 20
-12.0531
 11
22.3116
 21
-12.0059
  0
LINE
  8
0
 10
22.3116
 20
-12.0059
 11
22.6884
 21
-12.0059
  0
LINE
  8
0
 10
22.6884
 20
-12.0059
 11
23.0621
 21
-12.0531
  0
LINE
  8
0
 10
23.0621
 20
-12.0531
 11
23.427
 21
-12.1468
  0
LINE
  8
0
 10
23.427
 20
-12.1468
 11
23.7773
 21
-12.2855
  0
LINE
  8
0
 10
23.7773
 20
-12.2855
 11
24.1075
 21
-12.467
  0
LINE
  8
0
 10
24.1075
 20
-12.467
 11
24.4123
 21
-12.6884
  0
LINE
  8
0
 10
24.4123
 20
-12.6884
 11
24.6869
 21
-12.9464
  0
LINE
  8
0
 10
24.6869
 20
-12.9464
 11
24.927
 21
-13.2366
  0
LINE
  8
0
 10
24.927
 20
-13.2366
 11
25.1289
 21
-13.5547
  0
LINE
  8
0
 10
25.1289
 20
-13.5547
 11
25.2893
 21
-13.8956
  0
LINE
  8
0
 10
25.2893
 20
-13.8956
 11
25.4057
 21
-14.2539
  0
LINE
  8
0
 10
25.4057
 20
-14.2539
 11
25.4763
 21
-14.624
  0
LINE
  8
0
 10
25.4763
 20
-14.624
 11
25.5
 21
-15
  0
LINE
  8
0
 10
25.5
 20
-15
 11
25.4763
 21
-15.376
  0
LINE
  8
0
 10
25.4763
 20
-15.376
 11
25.4057
 21
-15.7461
  0
LINE
  8
0
 10
25.4057
 20
-15.7461
 11
25.2893
 21
-16.1044
  0
LINE
  8
0
 10
25.2893
 20
-16.1044
 11
25.1289
 21
-16.4453
  0
LINE
  8
0
 10
25.1289
 20
-16.4453
 11
24.927
 21
-16.7634
  0
LINE
  8
0
 10
24.927
 20
-16.7634
 11
24.6869
 21
-17.0536
  0
LINE
  8
0
 10
24.6869
 20
-17.0536
 11
24.4123
 21
-17.3115
  0
LINE
  8
0
 10
24.4123
 20
-17.3115
 11
24.1075
 21
-17.533
  0
LINE
  8
0
 10
24.1075
 20
-17.533
 11
23.7773
 21
-17.7145
  0
LINE
  8
0
 10
23.7773
 20
-17.7145
 11
23.427
 21
-17.8532
  0
LINE
  8
0
 10
23.427
 20
-17.8532
 11
23.0621
 21
-17.9469
  0
LINE
  8
0
 10
23.0621
 20
-17.9469
 11
22.6884
 21
-17.9941
  0
LINE
  8
0
 10
22.6884
 20
-17.9941
 11
22.3116
 21
-17.9941
  0
LINE
  8
0
 10
-7.68837
 20
-17.9941
 11
-8.06213
 21
-17.9469
  0
LINE
  8
0
 10
-8.06213
 20
-17.9469
 11
-8.42705
 21
-17.8532
  0
LINE
  8
0
 10
-8.42705
 20
-17.8532
 11
-8.77733
 21
-17.7145
  0
LINE
  8
0
 10
-8.77733
 20
-17.7145
 11
-9.10747
 21
-17.533
  0
LINE
  8
0
 10
-9.10747
 20
-17.533
 11
-9.41226
 21
-17.3115
  0
LINE
  8
0
 10
-9.41226
 20
-17.3115
 11
-9.6869
 21
-17.0536
  0
LINE
  8
0
 10
-9.6869
 20
-17.0536
 11
-9.92705
 21
-16.7634
  0
LINE
  8
0
 10
-9.92705
 20
-16.7634
 11
-10.1289
 21
-16.4453
  0
LINE
  8
0
 10
-10.1289
 20
-16.4453
 11
-10.2893
 21
-16.1044
  0
LINE
  8
0
 10
-10.2893
 20
-16.1044
 11
-10.4057
 21
-15.7461
  0
LINE
  8
0
 10
-10.4057
 20
-15.7461
 11
-10.4763
 21
-15.376
  0
LINE
  8
0
 10
-10.4763
 20
-15.376
 11
-10.5
 21
-15
  0
LINE
  8
0
 10
-10.5
 20
-15
 11
-10.4763
 21
-14.624
  0
LINE
  8
0
 10
-10.4763
 20
-14.624
 11
-10.4057
 21
-14.2539
  0
LINE
  8
0
 10
-10.4057
 20
-14.2539
 11
-10.2893
 21
-13.8956
  0
LINE
  8
0
 10
-10.2893
 20
-13.8956
 11
-10.1289
 21
-13.5547
  0
LINE
  8
0
 10
-10.1289
 20
-13.5547
 11
-9.92705
 21
-13.2366
  0
LINE
  8
0
 10
-9.92705
 20
-13.2366
 11
-9.6869
 21
-12.9464
  0
LINE
  8
0
 10
-9.6869
 20
-12.9464
 11
-9.41226
 21
-12.6884
  0
LINE
  8
0
 10
-9.41226
 20
-12.6884
 11
-9.10747
 21
-12.467
  0
LINE
  8
0
 10
-9.10747
 20
-12.467
 11
-8.77733
 21
-12.2855
  0
LINE
  8
0
 10
-8.77733
 20
-12.2855
 11
-8.42705
 21
-12.1468
  0
LINE
  8
0
 10
-8.42705
 20
-12.1468
 11
-8.06213
 21
-12.0531
  0
LINE
  8
0
 10
-8.06213
 20
-12.0531
 11
-7.68837
 21
-12.0059
  0
LINE
  8
0
 10
-7.68837
 20
-12.0059
 11
-7.31161
 21
-12.0059
  0
LINE
  8
0
 10
-7.31161
 20
-12.0059
 11
-6.93785
 21
-12.0531
  0
LINE
  8
0
 10
-6.93785
 20
-12.0531
 11
-6.57294
 21
-12.1468
  0
LINE
  8
0
 10
-6.57294
 20
-12.1468
 11
-6.22266
 21
-12.2855
  0
LINE
  8
0
 10
-6.22266
 20
-12.2855
 11
-5.89252
 21
-12.467
  0
LINE
  8
0
 10
-5.89252
 20
-12.467
 11
-5.58772
 21
-12.6884
  0
LINE
  8
0
 10
-5.58772
 20
-12.6884
 11
-5.31308
 21
-12.9464
  0
LINE
  8
0
 10
-5.31308
 20
-12.9464
 11
-5.07294
 21
-13.2366
  0
LINE
  8
0
 10
-5.07294
 20
-13.2366
 11
-4.87108
 21
-13.5547
  0
LINE
  8
0
 10
-4.87108
 20
-13.5547
 11
-4.71066
 21
-13.8956
  0
LINE
  8
0
 10
-4.71066
 20
-13.8956
 11
-4.59424
 21
-14.2539
  0
LINE
  8
0
 10
-4.59424
 20
-14.2539
 11
-4.52365
 21
-14.624
  0
LINE
  8
0
 10
-4.52365
 20
-14.624
 11
-4.5
 21
-15
  0
LINE
  8
0
 10
-4.5
 20
-15
 11
-4.52365
 21
-15.376
  0
LINE
  8
0
 10
-4.52365
 20
-15.376
 11
-4.59424
 21
-15.7461
  0
LINE
  8
0
 10
-4.59424
 20
-15.7461
 11
-4.71066
 21
-16.1044
  0
LINE
  8
0
 10
-4.71066
 20
-16.1044
 11
-4.87108
 21
-16.4453
  0
LINE
  8
0
 10
-4.87108
 20
-16.4453
 11
-5.07294
 21
-16.7634
  0
LINE
  8
0
 10
-5.07294
 20
-16.7634
 11
-5.31308
 21
-17.0536
  0
LINE
  8
0
 10
-5.31308
 20
-17.0536
 11
-5.58772
 21
-17.3115
  0
LINE
  8
0
 10
-5.58772
 20
-17.3115
 11
-5.89252
 21
-17.533
  0
LINE
  8
0
 10
-5.89252
 20
-17.533
 11
-6.22266
 21
-17.7145
  0
LINE
  8
0
 10
-6.22266
 20
-17.7145
 11
-6.57294
 21
-17.8532
  0
LINE
  8
0
 10
-6.57294
 20
-17.8532
 11
-6.93785
 21
-17.9469
  0
LINE
  8
0
 10
-6.93785
 20
-17.9469
 11
-7.31161
 21
-17.9941
  0
LINE
  8
0
 10
-7.31161
 20
-17.9941
 11
-7.68837
 21
-17.9941
  0
ENDSEC
  0
SECTION
  2
OBJECTS
  0
DICTIONARY
  0
ENDSEC
  0
EOF
