<?xml version="1.0" standalone="no"?>
<!DOCTYPE svg PUBLIC "-//W3C//DTD SVG 1.1//EN" "http://www.w3.org/Graphics/SVG/1.1/DTD/svg11.dtd">
<svg width="60mm" height="44mm" viewBox="-30 -22 60 44" xmlns="http://www.w3.org/2000/svg" version="1.1">
<title>OpenSCAD Model</title>
<path d="
M 25.4369,21.9114 L 26.0451,21.7553 L 26.6289,21.5241 L 27.1791,21.2216 L 27.6871,20.8526 L 28.1448,20.4227
 L 28.5451,19.9389 L 28.8815,19.4088 L 29.1489,18.8406 L 29.3429,18.2434 L 29.4606,17.6267 L 29.5,17
 L 29.5,-17 L 29.4606,-17.6267 L 29.3429,-18.2434 L 29.1489,-18.8406 L 28.8815,-19.4088 L 28.5451,-19.9389
 L 28.1448,-20.4227 L 27.6871,-20.8526 L 27.1791,-21.2216 L 26.6289,-21.5241 L 26.0451,-21.7553 L 25.4369,-21.9114
 L 24.8139,-21.9901 L -24.8139,-21.9901 L -25.4369,-21.9114 L -26.0451,-21.7553 L -26.6289,-21.5241 L -27.1791,-21.2216
 L -27.6871,-20.8526 L -28.1448,-20.4227 L -28.5451,-19.9389 L -28.8815,-19.4088 L -29.1489,-18.8406 L -29.3429,-18.2434
 L -29.4606,-17.6267 L -29.5,-17 L -29.5,17 L -29.4606,17.6267 L -29.3429,18.2434 L -29.1489,18.8406
 L -28.8815,19.4088 L -28.5451,19.9389 L -28.1448,20.4227 L -27.6871,20.8526 L -27.1791,21.2216 L -26.6289,21.5241
 L -26.0451,21.7553 L -25.4369,21.9114 L -24.8139,21.9901 L 24.8139,21.9901 z
M 7.31161,-12.0059 L 6.93785,-12.0531 L 6.57294,-12.1468 L 6.22266,-12.2855 L 5.89252,-12.467 L 5.58772,-12.6884
 L 5.31308,-12.9464 L 5.07294,-13.2366 L 4.87108,-13.5547 L 4.71066,-13.8956 L 4.59424,-14.2539 L 4.52365,-14.624
 L 4.5,-15 L 4.52365,-15.376 L 4.59424,-15.7461 L 4.71066,-16.1044 L 4.87108,-16.4453 L 5.07294,-16.7634
 L 5.31308,-17.0536 L 5.58772,-17.3115 L 5.89252,-17.533 L 6.22266,-17.7145 L 6.57294,-17.8532 L 6.93785,-17.9469
 L 7.31161,-17.9941 L 7.68837,-17.9941 L 8.06213,-17.9469 L 8.42705,-17.8532 L 8.77733,-17.7145 L 9.10747,-17.533
 L 9.41226,-17.3115 L 9.6869,-17.0536 L 9.92705,-16.7634 L 10.1289,-16.4453 L 10.2893,-16.1044 L 10.4057,-15.7461
 L 10.4763,-15.376 L 10.5,-15 L 10.4763,-14.624 L 10.4057,-14.2539 L 10.2893,-13.8956 L 10.1289,-13.5547
 L 9.92705,-13.2366 L 9.6869,-12.9464 L 9.41226,-12.6884 L 9.10747,-12.467 L 8.77733,-12.2855 L 8.42705,-12.1468
 L 8.06213,-12.0531 L 7.68837,-12.0059 z
M 22.3116,-12.0059 L 21.9379,-12.0531 L 21.5729,-12.1468 L 21.2227,-12.2855 L 20.8925,-12.467 L 20.5877,-12.6884
 L 20.3131,-12.9464 L 20.0729,-13.2366 L 19.8711,-13.5547 L 19.7107,-13.8956 L 19.5942,-14.2539 L 19.5237,-14.624
 L 19.5,-15 L 19.5237,-15.376 L 19.5942,-15.7461 L 19.7107,-16.1044 L 19.8711,-16.4453 L 20.0729,-16.7634
 L 20.3131,-17.0536 L 20.5877,-17.3115 L 20.8925,-17.533 L 21.2227,-17.7145 L 21.5729,-17.8532 L 21.9379,-17.9469
 L 22.3116,-17.9941 L 22.6884,-17.9941 L 23.0621,-17.9469 L 23.427,-17.8532 L 23.7773,-17.7145 L 24.1075,-17.533
 L 24.4123,-17.3115 L 24.6869,-17.0536 L 24.927,-16.7634 L 25.1289,-16.4453 L 25.2893,-16.1044 L 25.4057,-15.7461
 L 25.4763,-15.376 L 25.5,-15 L 25.4763,-14.624 L 25.4057,-14.2539 L 25.2893,-13.8956 L 25.1289,-13.5547
 L 24.927,-13.2366 L 24.6869,-12.9464 L 24.4123,-12.6884 L 24.1075,-12.467 L 23.7773,-12.2855 L 23.427,-12.1468
 L 23.0621,-12.0531 L 22.6884,-12.0059 z
M -7.68837,-12.0059 L -8.06213,-12.0531 L -8.42705,-12.1468 L -8.77733,-12.2855 L -9.10747,-12.467 L -9.41226,-12.6884
 L -9.6869,-12.9464 L -9.92705,-13.2366 L -10.1289,-13.5547 L -10.2893,-13.8956 L -10.4057,-14.2539 L -10.4763,-14.624
 L -10.5,-15 L -10.4763,-15.376 L -10.4057,-15.7461 L -10.2893,-16.1044 L -10.1289,-16.4453 L -9.92705,-16.7634
 L -9.6869,-17.0536 L -9.41226,-17.3115 L -9.10747,-17.533 L -8.77733,-17.7145 L -8.42705,-17.8532 L -8.06213,-17.9469
 L -7.68837,-17.9941 L -7.31161,-17.9941 L -6.93785,-17.9469 L -6.57294,-17.8532 L -6.22266,-17.7145 L -5.89252,-17.533
 L -5.58772,-17.3115 L -5.31308,-17.0536 L -5.07294,-16.7634 L -4.87108,-16.4453 L -4.71066,-16.1044 L -4.59424,-15.7461
 L -4.52365,-15.376 L -4.5,-15 L -4.52365,-14.624 L -4.59424,-14.2539 L -4.71066,-13.8956 L -4.87108,-13.5547
 L -5.07294,-13.2366 L -5.31308,-12.9464 L -5.58772,-12.6884 L -5.89252,-12.467 L -6.22266,-12.2855 L -6.57294,-12.1468
 L -6.93785,-12.0531 L -7.31161,-12.0059 z
M -22.6884,-12.0059 L -23.0621,-12.0531 L -23.427,-12.1468 L -23.7773,-12.2855 L -24.1075,-12.467 L -24.4123,-12.6884
 L -24.6869,-12.9464 L -24.927,-13.2366 L -25.1289,-13.5547 L -25.2893,-13.8956 L -25.4057,-14.2539 L -25.4763,-14.624
 L -25.5,-15 L -25.4763,-15.376 L -25.4057,-15.7461 L -25.2893,-16.1044 L -25.1289,-16.4453 L -24.927,-16.7634
 L -24.6869,-17.0536 L -24.4123,-17.3115 L -24.1075,-17.533 L -23.7773,-17.7145 L -23.427,-17.8532 L -23.0621,-17.9469
 L -22.6884,-17.9941 L -22.3116,-17.9941 L -21.9379,-17.9469 L -21.5729,-17.8532 L -21.2227,-17.7145 L -20.8925,-17.533
 L -20.5877,-17.3115 L -20.3131,-17.0536 L -20.0729,-16.7634 L -19.8711,-16.4453 L -19.7107,-16.1044 L -19.5942,-15.7461
 L -19.5237,-15.376 L -19.5,-15 L -19.5237,-14.624 L -19.5942,-14.2539 L -19.7107,-13.8956 L -19.8711,-13.5547
 L -20.0729,-13.2366 L -20.3131,-12.9464 L -20.5877,-12.6884 L -20.8925,-12.467 L -21.2227,-12.2855 L -21.5729,-12.1468
 L -21.9379,-12.0531 L -22.3116,-12.0059 z
M 15.0686,-7.55098 L 15.0063,-7.55885 L 14.9455,-7.57446 L 14.8871,-7.59758 L 14.8321,-7.62782 L 14.7813,-7.66473
 L 14.7355,-7.70772 L 14.6955,-7.7561 L 14.6618,-7.80911 L 14.6351,-7.86594 L 14.6157,-7.92564 L 14.6039,-7.98732
 L 14.6,-8.04999 L 14.6039,-8.11266 L 14.6157,-8.17433 L 14.6351,-8.23405 L 14.6618,-8.29086 L 14.6955,-8.34389
 L 14.7355,-8.39227 L 14.7813,-8.43524 L 14.8321,-8.47215 L 14.8871,-8.50241 L 14.9455,-8.52553 L 15.0063,-8.54114
 L 15.0686,-8.54901 L 15.1314,-8.54901 L 15.1937,-8.54114 L 15.2545,-8.52553 L 15.3129,-8.50241 L 15.3679,-8.47215
 L 15.4187,-8.43524 L 15.4645,-8.39227 L 15.5045,-8.34389 L 15.5381,-8.29086 L 15.5649,-8.23405 L 15.5843,-8.17433
 L 15.5961,-8.11266 L 15.6,-8.04999 L 15.5961,-7.98732 L 15.5843,-7.92564 L 15.5649,-7.86594 L 15.5381,-7.80911
 L 15.5045,-7.7561 L 15.4645,-7.70772 L 15.4187,-7.66473 L 15.3679,-7.62782 L 15.3129,-7.59758 L 15.2545,-7.57446
 L 15.1937,-7.55885 L 15.1314,-7.55098 z
M -15.3377,-7.15117 L -15.4124,-7.16061 L -15.4854,-7.17935 L -15.5555,-7.20709 L -15.6215,-7.24339 L -15.6824,-7.28769
 L -15.7374,-7.33926 L -15.7854,-7.39732 L -15.8258,-7.46094 L -15.8579,-7.52911 L -15.8811,-7.60078 L -15.8953,-7.67479
 L -15.9,-7.75 L -15.8953,-7.8252 L -15.8811,-7.8992 L -15.8579,-7.97087 L -15.8258,-8.03905 L -15.7854,-8.10266
 L -15.7374,-8.16072 L -15.6824,-8.2123 L -15.6215,-8.25659 L -15.5555,-8.29289 L -15.4854,-8.32063 L -15.4124,-8.33937
 L -15.3377,-8.34882 L -15.2623,-8.34882 L -15.1876,-8.33937 L -15.1146,-8.32063 L -15.0445,-8.29289 L -14.9785,-8.25659
 L -14.9175,-8.2123 L -14.8626,-8.16072 L -14.8146,-8.10266 L -14.7742,-8.03905 L -14.7421,-7.97087 L -14.7188,-7.8992
 L -14.7047,-7.8252 L -14.7,-7.75 L -14.7047,-7.67479 L -14.7188,-7.60078 L -14.7421,-7.52911 L -14.7742,-7.46094
 L -14.8146,-7.39732 L -14.8626,-7.33926 L -14.9175,-7.28769 L -14.9785,-7.24339 L -15.0445,-7.20709 L -15.1146,-7.17935
 L -15.1876,-7.16061 L -15.2623,-7.15117 z
M -22.6884,2.99408 L -23.0621,2.94685 L -23.427,2.85316 L -23.7773,2.71448 L -24.1075,2.53297 L -24.4123,2.31154
 L -24.6869,2.05363 L -24.927,1.76335 L -25.1289,1.44525 L -25.2893,1.10437 L -25.4057,0.746063 L -25.4763,0.375992
 L -25.5,-0 L -25.4763,-0.375992 L -25.4057,-0.746063 L -25.2893,-1.10437 L -25.1289,-1.44525 L -24.927,-1.76335
 L -24.6869,-2.05363 L -24.4123,-2.31154 L -24.1075,-2.53297 L -23.7773,-2.71448 L -23.427,-2.85316 L -23.0621,-2.94685
 L -22.6884,-2.99408 L -22.3116,-2.99408 L -21.9379,-2.94685 L -21.5729,-2.85316 L -21.2227,-2.71448 L -20.8925,-2.53297
 L -20.5877,-2.31154 L -20.3131,-2.05363 L -20.0729,-1.76335 L -19.8711,-1.44525 L -19.7107,-1.10437 L -19.5942,-0.746063
 L -19.5237,-0.375992 L -19.5,-0 L -19.5237,0.375992 L -19.5942,0.746063 L -19.7107,1.10437 L -19.8711,1.44525
 L -20.0729,1.76335 L -20.3131,2.05363 L -20.5877,2.31154 L -20.8925,2.53297 L -21.2227,2.71448 L -21.5729,2.85316
 L -21.9379,2.94685 L -22.3116,2.99408 z
M 22.3116,2.99408 L 21.9379,2.94685 L 21.5729,2.85316 L 21.2227,2.71448 L 20.8925,2.53297 L 20.5877,2.31154
 L 20.3131,2.05363 L 20.0729,1.76335 L 19.8711,1.44525 L 19.7107,1.10437 L 19.5942,0.746063 L 19.5237,0.375992
 L 19.5,-0 L 19.5237,-0.375992 L 19.5942,-0.746063 L 19.7107,-1.10437 L 19.8711,-1.44525 L 20.0729,-1.76335
 L 20.3131,-2.05363 L 20.5877,-2.31154 L 20.8925,-2.53297 L 21.2227,-2.71448 L 21.5729,-2.85316 L 21.9379,-2.94685
 L 22.3116,-2.99408 L 22.6884,-2.99408 L 23.0621,-2.94685 L 23.427,-2.85316 L 23.7773,-2.71448 L 24.1075,-2.53297
 L 24.4123,-2.31154 L 24.6869,-2.05363 L 24.927,-1.76335 L 25.1289,-1.44525 L 25.2893,-1.10437 L 25.4057,-0.746063
 L 25.4763,-0.375992 L 25.5,-0 L 25.4763,0.375992 L 25.4057,0.746063 L 25.2893,1.10437 L 25.1289,1.44525
 L 24.927,1.76335 L 24.6869,2.05363 L 24.4123,2.31154 L 24.1075,2.53297 L 23.7773,2.71448 L 23.427,2.85316
 L 23.0621,2.94685 L 22.6884,2.99408 z
M 14.9623,4.84882 L 14.8876,4.83937 L 14.8146,4.82063 L 14.7445,4.79289 L 14.6785,4.75659 L 14.6175,4.7123
 L 14.5626,4.66072 L 14.5146,4.60266 L 14.4742,4.53905 L 14.4421,4.47087 L 14.4188,4.3992 L 14.4047,4.3252
 L 14.4,4.25 L 14.4047,4.17479 L 14.4188,4.10078 L 14.4421,4.02911 L 14.4742,3.96094 L 14.5146,3.89732
 L 14.5626,3.83926 L 14.6175,3.78769 L 14.6785,3.74339 L 14.7445,3.70709 L 14.8146,3.67935 L 14.8876,3.66061
 L 14.9623,3.65117 L 15.0377,3.65117 L 15.1124,3.66061 L 15.1854,3.67935 L 15.2555,3.70709 L 15.3215,3.74339
 L 15.3824,3.78769 L 15.4374,3.83926 L 15.4854,3.89732 L 15.5258,3.96094 L 15.5579,4.02911 L 15.5811,4.10078
 L 15.5953,4.17479 L 15.6,4.25 L 15.5953,4.3252 L 15.5811,4.3992 L 15.5579,4.47087 L 15.5258,4.53905
 L 15.4854,4.60266 L 15.4374,4.66072 L 15.3824,4.7123 L 15.3215,4.75659 L 15.2555,4.79289 L 15.1854,4.82063
 L 15.1124,4.83937 L 15.0377,4.84882 z
M -15.3314,5.24901 L -15.3937,5.24113 L -15.4545,5.22552 L -15.5129,5.20241 L -15.5679,5.17215 L -15.6187,5.13525
 L -15.6645,5.09227 L -15.7045,5.04388 L -15.7381,4.99088 L -15.7649,4.93405 L -15.7843,4.87434 L -15.7961,4.81265
 L -15.8,4.75 L -15.7961,4.68733 L -15.7843,4.62564 L -15.7649,4.56593 L -15.7381,4.50911 L -15.7045,4.4561
 L -15.6645,4.40771 L -15.6187,4.36473 L -15.5679,4.32784 L -15.5129,4.29758 L -15.4545,4.27446 L -15.3937,4.25885
 L -15.3314,4.25098 L -15.2686,4.25098 L -15.2063,4.25885 L -15.1455,4.27446 L -15.0871,4.29758 L -15.0321,4.32784
 L -14.9813,4.36473 L -14.9355,4.40771 L -14.8955,4.4561 L -14.8618,4.50911 L -14.8351,4.56593 L -14.8157,4.62564
 L -14.8039,4.68733 L -14.8,4.75 L -14.8039,4.81265 L -14.8157,4.87434 L -14.8351,4.93405 L -14.8618,4.99088
 L -14.8955,5.04388 L -14.9355,5.09227 L -14.9813,5.13525 L -15.0321,5.17215 L -15.0871,5.20241 L -15.1455,5.22552
 L -15.2063,5.24113 L -15.2686,5.24901 z
M 7.31161,17.9941 L 6.93785,17.9469 L 6.57294,17.8532 L 6.22266,17.7145 L 5.89252,17.533 L 5.58772,17.3115
 L 5.31308,17.0536 L 5.07294,16.7634 L 4.87108,16.4453 L 4.71066,16.1044 L 4.59424,15.7461 L 4.52365,15.376
 L 4.5,15 L 4.52365,14.624 L 4.59424,14.2539 L 4.71066,13.8956 L 4.87108,13.5547 L 5.07294,13.2366
 L 5.31308,12.9464 L 5.58772,12.6884 L 5.89252,12.467 L 6.22266,12.2855 L 6.57294,12.1468 L 6.93785,12.0531
 L 7.31161,12.0059 L 7.68837,12.0059 L 8.06213,12.0531 L 8.42705,12.1468 L 8.77733,12.2855 L 9.10747,12.467
 L 9.41226,12.6884 L 9.6869,12.9464 L 9.92705,13.2366 L 10.1289,13.5547 L 10.2893,13.8956 L 10.4057,14.2539
 L 10.4763,14.624 L 10.5,15 L 10.4763,15.376 L 10.4057,15.7461 L 10.2893,16.1044 L 10.1289,16.4453
 L 9.92705,16.7634 L 9.6869,17.0536 L 9.41226,17.3115 L 9.10747,17.533 L 8.77733,17.7145 L 8.42705,17.8532
 L 8.06213,17.9469 L 7.68837,17.9941 z
M -22.6884,17.9941 L -23.0621,17.9469 L -23.427,17.8532 L -23.7773,17.7145 L -24.1075,17.533 L -24.4123,17.3115
 L -24.6869,17.0536 L -24.927,16.7634 L -25.1289,16.4453 L -25.2893,16.1044 L -25.4057,15.7461 L -25.4763,15.376
 L -25.5,15 L -25.4763,14.624 L -25.4057,14.2539 L -25.2893,13.8956 L -25.1289,13.5547 L -24.927,13.2366
 L -24.6869,12.9464 L -24.4123,12.6884 L -24.1075,12.467 L -23.7773,12.2855 L -23.427,12.1468 L -23.0621,12.0531
 L -22.6884,12.0059 L -22.3116,12.0059 L -21.9379,12.0531 L -21.5729,12.1468 L -21.2227,12.2855 L -20.8925,12.467
 L -20.5877,12.6884 L -20.3131,12.9464 L -20.0729,13.2366 L -19.8711,13.5547 L -19.7107,13.8956 L -19.5942,14.2539
 L -19.5237,14.624 L -19.5,15 L -19.5237,15.376 L -19.5942,15.7461 L -19.7107,16.1044 L -19.8711,16.4453
 L -20.0729,16.7634 L -20.3131,17.0536 L -20.5877,17.3115 L -20.8925,17.533 L -21.2227,17.7145 L -21.5729,17.8532
 L -21.9379,17.9469 L -22.3116,17.9941 z
M 22.3116,17.9941 L 21.9379,17.9469 L 21.5729,17.8532 L 21.2227,17.7145 L 20.8925,17.533 L 20.5877,17.3115
 L 20.3131,17.0536 L 20.0729,16.7634 L 19.8711,16.4453 L 19.7107,16.1044 L 19.5942,15.7461 L 19.5237,15.376
 L 19.5,15 L 19.5237,14.624 L 19.5942,14.2539 L 19.7107,13.8956 L 19.8711,13.5547 L 20.0729,13.2366
 L 20.3131,12.9464 L 20.5877,12.6884 L 20.8925,12.467 L 21.2227,12.2855 L 21.5729,12.1468 L 21.9379,12.0531
 L 22.3116,12.0059 L 22.6884,12.0059 L 23.0621,12.0531 L 23.427,12.1468 L 23.7773,12.2855 L 24.1075,12.467
 L 24.4123,12.6884 L 24.6869,12.9464 L 24.927,13.2366 L 25.1289,13.5547 L 25.2893,13.8956 L 25.4057,14.2539
 L 25.4763,14.624 L 25.5,15 L 25.4763,15.376 L 25.4057,15.7461 L 25.2893,16.1044 L 25.1289,16.4453
 L 24.927,16.7634 L 24.6869,17.0536 L 24.4123,17.3115 L 24.1075,17.533 L 23.7773,17.7145 L 23.427,17.8532
 L 23.0621,17.9469 L 22.6884,17.9941 z
M -7.68837,17.9941 L -8.06213,17.9469 L -8.42705,17.8532 L -8.77733,17.7145 L -9.10747,17.533 L -9.41226,17.3115
 L -9.6869,17.0536 L -9.92705,16.7634 L -10.1289,16.4453 L -10.2893,16.1044 L -10.4057,15.7461 L -10.4763,15.376
 L -10.5,15 L -10.4763,14.624 L -10.4057,14.2539 L -10.2893,13.8956 L -10.1289,13.5547 L -9.92705,13.2366
 L -9.6869,12.9464 L -9.41226,12.6884 L -9.10747,12.467 L -8.77733,12.2855 L -8.42705,12.1468 L -8.06213,12.0531
 L -7.68837,12.0059 L -7.31161,12.0059 L -6.93785,12.0531 L -6.57294,12.1468 L -6.22266,12.2855 L -5.89252,12.467
 L -5.58772,12.6884 L -5.31308,12.9464 L -5.07294,13.2366 L -4.87108,13.5547 L -4.71066,13.8956 L -4.59424,14.2539
 L -4.52365,14.624 L -4.5,15 L -4.52365,15.376 L -4.59424,15.7461 L -4.71066,16.1044 L -4.87108,16.4453
 L -5.07294,16.7634 L -5.31308,17.0536 L -5.58772,17.3115 L -5.89252,17.533 L -6.22266,17.7145 L -6.57294,17.8532
 L -6.93785,17.9469 L -7.31161,17.9941 z
" stroke="black" fill="lightgray" stroke-width="0.5"/>
</svg>
